<score-partwise version="3.0">
  <work>
    <work-title>Ankara'N&#305;n Yollar&#305;</work-title>
  </work>
  <identification>
    <creator type="composer">(Anonim)</creator>
    <creator type="poet">?</creator>
    <encoding>
      <encoder>Burak Uyar</encoder>
      <software>https://github.com/burakuyar/MusicXMLConverter</software>
    </encoding>
    <relation>http://musicbrainz.org/work/5980622b-ba51-4685-8703-c82bd3431231</relation>
  </identification>
  <part-list>
    <score-part id="P1">
      <part-name>Music</part-name>
    </score-part>
  </part-list>
  <part id="P1">
    <measure number="1-0">
      <direction placement="above">
        <direction-type>
          <metronome>
            <beat-unit>quarter</beat-unit>
            <per-minute>90</per-minute>
          </metronome>
        </direction-type>
        <direction-type>
          <words default-y="35">Makam: Acemk&#252;rd&#238;, Form: T&#252;rk&#252;, Usul: D&#252;yek </words>
        </direction-type>
        <sound tempo="90" />
      </direction>
      <attributes>
        <divisions>96</divisions>
        <time>
          <beats>8</beats>
          <beat-type>8</beat-type>
        </time>
      </attributes>
      <note>
        
        <rest />
        <duration>48</duration>
        <type>eighth</type>
        <lyric>
          <text />
        </lyric>
      </note>
      <note>
        
        <pitch>
          <step>F</step>
          <octave>5</octave>
        </pitch>
        <duration>24</duration>
        <type>16th</type>
        <lyric>
          <text />
        </lyric>
      </note>
      <note>
        
        <pitch>
          <step>F</step>
          <octave>5</octave>
        </pitch>
        <duration>24</duration>
        <type>16th</type>
        <lyric>
          <text />
        </lyric>
      </note>
      <note>
        
        <pitch>
          <step>F</step>
          <octave>5</octave>
        </pitch>
        <duration>48</duration>
        <type>eighth</type>
        <lyric>
          <text />
        </lyric>
      </note>
      <note>
        
        <pitch>
          <step>G</step>
          <octave>5</octave>
        </pitch>
        <duration>24</duration>
        <type>16th</type>
        <lyric>
          <text />
        </lyric>
      </note>
      <note>
        
        <pitch>
          <step>E</step>
          <octave>5</octave>
        </pitch>
        <duration>24</duration>
        <type>16th</type>
        <lyric>
          <text />
        </lyric>
      </note>
      <note>
        
        <pitch>
          <step>E</step>
          <octave>5</octave>
        </pitch>
        <duration>48</duration>
        <type>eighth</type>
        <lyric>
          <text />
        </lyric>
      </note>
      <note>
        
        <pitch>
          <step>E</step>
          <octave>5</octave>
        </pitch>
        <duration>24</duration>
        <type>16th</type>
        <lyric>
          <text />
        </lyric>
      </note>
      <note>
        
        <pitch>
          <step>E</step>
          <octave>5</octave>
        </pitch>
        <duration>24</duration>
        <type>16th</type>
        <lyric>
          <text />
        </lyric>
      </note>
      <note>
        
        <pitch>
          <step>E</step>
          <octave>5</octave>
        </pitch>
        <duration>48</duration>
        <type>eighth</type>
        <lyric>
          <text />
        </lyric>
      </note>
      <note>
        
        <pitch>
          <step>F</step>
          <octave>5</octave>
        </pitch>
        <duration>24</duration>
        <type>16th</type>
        <lyric>
          <text />
        </lyric>
      </note>
      <note>
        
        <pitch>
          <step>D</step>
          <octave>5</octave>
        </pitch>
        <duration>24</duration>
        <type>16th</type>
        <lyric>
          <text />
        </lyric>
      </note>
    </measure>
    <measure number="2-0">
      <attributes />
      <note>
        
        <pitch>
          <step>D</step>
          <octave>5</octave>
        </pitch>
        <duration>24</duration>
        <type>16th</type>
        <lyric>
          <text />
        </lyric>
      </note>
      <note>
        
        <pitch>
          <step>E</step>
          <octave>5</octave>
        </pitch>
        <duration>24</duration>
        <type>16th</type>
        <lyric>
          <text />
        </lyric>
      </note>
      <note>
        
        <pitch>
          <step>D</step>
          <octave>5</octave>
        </pitch>
        <duration>24</duration>
        <type>16th</type>
        <lyric>
          <text />
        </lyric>
      </note>
      <note>
        
        <pitch>
          <step>D</step>
          <octave>5</octave>
        </pitch>
        <duration>24</duration>
        <type>16th</type>
        <lyric>
          <text />
        </lyric>
      </note>
      <note>
        
        <pitch>
          <step>D</step>
          <octave>5</octave>
        </pitch>
        <duration>48</duration>
        <type>eighth</type>
        <lyric>
          <text />
        </lyric>
      </note>
      <note>
        
        <pitch>
          <step>E</step>
          <octave>5</octave>
        </pitch>
        <duration>24</duration>
        <type>16th</type>
        <lyric>
          <text />
        </lyric>
      </note>
      <note>
        
        <pitch>
          <step>C</step>
          <octave>5</octave>
        </pitch>
        <duration>24</duration>
        <type>16th</type>
        <lyric>
          <text />
        </lyric>
      </note>
      <note>
        
        <pitch>
          <step>C</step>
          <octave>5</octave>
        </pitch>
        <duration>48</duration>
        <type>eighth</type>
        <lyric>
          <text />
        </lyric>
      </note>
      <note>
        
        <pitch>
          <step>F</step>
          <octave>5</octave>
        </pitch>
        <duration>24</duration>
        <type>16th</type>
        <lyric>
          <text />
        </lyric>
      </note>
      <note>
        
        <pitch>
          <step>E</step>
          <octave>5</octave>
        </pitch>
        <duration>24</duration>
        <type>16th</type>
        <lyric>
          <text />
        </lyric>
      </note>
      <note>
        
        <pitch>
          <step>E</step>
          <octave>5</octave>
        </pitch>
        <duration>96</duration>
        <type>quarter</type>
        <lyric>
          <text />
        </lyric>
      </note>
    </measure>
    <measure number="3-0">
      <attributes />
      <note>
        
        <rest />
        <duration>48</duration>
        <type>eighth</type>
        <lyric>
          <text />
        </lyric>
      </note>
      <note>
        
        <pitch>
          <step>E</step>
          <octave>5</octave>
        </pitch>
        <duration>24</duration>
        <type>16th</type>
        <lyric>
          <text />
        </lyric>
      </note>
      <note>
        
        <pitch>
          <step>E</step>
          <octave>5</octave>
        </pitch>
        <duration>24</duration>
        <type>16th</type>
        <lyric>
          <text />
        </lyric>
      </note>
      <note>
        
        <pitch>
          <step>E</step>
          <octave>5</octave>
        </pitch>
        <duration>48</duration>
        <type>eighth</type>
        <lyric>
          <text />
        </lyric>
      </note>
      <note>
        
        <pitch>
          <step>F</step>
          <octave>5</octave>
        </pitch>
        <duration>24</duration>
        <type>16th</type>
        <lyric>
          <text />
        </lyric>
      </note>
      <note>
        
        <pitch>
          <step>D</step>
          <octave>5</octave>
        </pitch>
        <duration>24</duration>
        <type>16th</type>
        <lyric>
          <text />
        </lyric>
      </note>
      <note>
        
        <pitch>
          <step>D</step>
          <octave>5</octave>
        </pitch>
        <duration>24</duration>
        <type>16th</type>
        <lyric>
          <text />
        </lyric>
      </note>
      <note>
        
        <pitch>
          <step>E</step>
          <octave>5</octave>
        </pitch>
        <duration>24</duration>
        <type>16th</type>
        <lyric>
          <text />
        </lyric>
      </note>
      <note>
        
        <pitch>
          <step>D</step>
          <octave>5</octave>
        </pitch>
        <duration>24</duration>
        <type>16th</type>
        <lyric>
          <text />
        </lyric>
      </note>
      <note>
        
        <pitch>
          <step>D</step>
          <octave>5</octave>
        </pitch>
        <duration>24</duration>
        <type>16th</type>
        <lyric>
          <text />
        </lyric>
      </note>
      <note>
        
        <pitch>
          <step>D</step>
          <octave>5</octave>
        </pitch>
        <duration>48</duration>
        <type>eighth</type>
        <lyric>
          <text />
        </lyric>
      </note>
      <note>
        
        <pitch>
          <step>E</step>
          <octave>5</octave>
        </pitch>
        <duration>24</duration>
        <type>16th</type>
        <lyric>
          <text />
        </lyric>
      </note>
      <note>
        
        <pitch>
          <step>C</step>
          <octave>5</octave>
        </pitch>
        <duration>24</duration>
        <type>16th</type>
        <lyric>
          <text />
        </lyric>
      </note>
    </measure>
    <measure number="4-0">
      <attributes />
      <note>
        
        <pitch>
          <step>C</step>
          <octave>5</octave>
        </pitch>
        <duration>48</duration>
        <type>eighth</type>
        <lyric>
          <text />
        </lyric>
      </note>
      <note>
        
        <pitch>
          <step>C</step>
          <octave>5</octave>
        </pitch>
        <duration>24</duration>
        <type>16th</type>
        <lyric>
          <text />
        </lyric>
      </note>
      <note>
        
        <pitch>
          <step>C</step>
          <octave>5</octave>
        </pitch>
        <duration>24</duration>
        <type>16th</type>
        <lyric>
          <text />
        </lyric>
      </note>
      <note>
        
        <pitch>
          <step>C</step>
          <octave>5</octave>
        </pitch>
        <duration>48</duration>
        <type>eighth</type>
        <lyric>
          <text />
        </lyric>
      </note>
      <note>
        
        <pitch>
          <step>D</step>
          <octave>5</octave>
        </pitch>
        <duration>24</duration>
        <type>16th</type>
        <lyric>
          <text />
        </lyric>
      </note>
      <note>
        
        <pitch>
          <step>C</step>
          <octave>5</octave>
        </pitch>
        <duration>24</duration>
        <type>16th</type>
        <lyric>
          <text />
        </lyric>
      </note>
      <note>
        
        <pitch>
          <step>B</step>
          <alter>-1</alter>
          <octave>4</octave>
        </pitch>
        <duration>24</duration>
        <type>16th</type>
        <accidental>flat</accidental>
        <lyric>
          <text />
        </lyric>
      </note>
      <note>
        
        <pitch>
          <step>C</step>
          <octave>5</octave>
        </pitch>
        <duration>24</duration>
        <type>16th</type>
        <lyric>
          <text />
        </lyric>
      </note>
      <note>
        
        <pitch>
          <step>B</step>
          <alter>-1</alter>
          <octave>4</octave>
        </pitch>
        <duration>24</duration>
        <type>16th</type>
        <accidental>flat</accidental>
        <lyric>
          <text />
        </lyric>
      </note>
      <note>
        
        <pitch>
          <step>A</step>
          <octave>4</octave>
        </pitch>
        <duration>24</duration>
        <type>16th</type>
        <lyric>
          <text />
        </lyric>
      </note>
      <note>
        
        <pitch>
          <step>A</step>
          <octave>4</octave>
        </pitch>
        <duration>96</duration>
        <type>quarter</type>
        <lyric>
          <text />
        </lyric>
      </note>
    </measure>
    <measure number="5-0">
      <attributes />
      <note>
        
        <rest />
        <duration>48</duration>
        <type>eighth</type>
        <lyric>
          <text />
        </lyric>
      </note>
      <note>
        
        <pitch>
          <step>F</step>
          <octave>5</octave>
        </pitch>
        <duration>24</duration>
        <type>16th</type>
        <lyric>
          <text />
        </lyric>
      </note>
      <note>
        
        <pitch>
          <step>G</step>
          <octave>5</octave>
        </pitch>
        <duration>24</duration>
        <type>16th</type>
        <lyric>
          <text />
        </lyric>
      </note>
      <note>
        
        <pitch>
          <step>A</step>
          <octave>5</octave>
        </pitch>
        <duration>24</duration>
        <type>16th</type>
        <lyric>
          <text />
        </lyric>
      </note>
      <note>
        
        <pitch>
          <step>G</step>
          <octave>5</octave>
        </pitch>
        <duration>24</duration>
        <type>16th</type>
        <lyric>
          <text />
        </lyric>
      </note>
      <note>
        
        <pitch>
          <step>A</step>
          <octave>5</octave>
        </pitch>
        <duration>48</duration>
        <type>eighth</type>
        <lyric>
          <text />
        </lyric>
      </note>
      <note>
        
        <rest />
        <duration>48</duration>
        <type>eighth</type>
        <lyric>
          <text />
        </lyric>
      </note>
      <note>
        
        <pitch>
          <step>F</step>
          <octave>5</octave>
        </pitch>
        <duration>24</duration>
        <type>16th</type>
        <lyric>
          <text />
        </lyric>
      </note>
      <note>
        
        <pitch>
          <step>G</step>
          <octave>5</octave>
        </pitch>
        <duration>24</duration>
        <type>16th</type>
        <lyric>
          <text />
        </lyric>
      </note>
      <note>
        
        <pitch>
          <step>A</step>
          <octave>5</octave>
        </pitch>
        <duration>24</duration>
        <type>16th</type>
        <lyric>
          <text />
        </lyric>
      </note>
      <note>
        
        <pitch>
          <step>G</step>
          <octave>5</octave>
        </pitch>
        <duration>24</duration>
        <type>16th</type>
        <lyric>
          <text />
        </lyric>
      </note>
      <note>
        
        <pitch>
          <step>A</step>
          <octave>5</octave>
        </pitch>
        <duration>48</duration>
        <type>eighth</type>
        <lyric>
          <text />
        </lyric>
      </note>
    </measure>
    <measure number="6-0">
      <attributes />
      <note>
        
        <rest />
        <duration>48</duration>
        <type>eighth</type>
        <lyric>
          <text />
        </lyric>
      </note>
      <note>
        
        <pitch>
          <step>G</step>
          <octave>5</octave>
        </pitch>
        <duration>24</duration>
        <type>16th</type>
        <lyric>
          <text />
        </lyric>
      </note>
      <note>
        
        <pitch>
          <step>A</step>
          <octave>5</octave>
        </pitch>
        <duration>24</duration>
        <type>16th</type>
        <lyric>
          <text />
        </lyric>
      </note>
      <note>
        
        <pitch>
          <step>A</step>
          <octave>5</octave>
        </pitch>
        <duration>48</duration>
        <type>eighth</type>
        <lyric>
          <text />
        </lyric>
      </note>
      <note>
        
        <pitch>
          <step>A</step>
          <octave>5</octave>
        </pitch>
        <duration>48</duration>
        <type>eighth</type>
        <lyric>
          <text />
        </lyric>
      </note>
      <note>
        
        <pitch>
          <step>A</step>
          <octave>5</octave>
        </pitch>
        <duration>48</duration>
        <type>eighth</type>
        <lyric>
          <text />
        </lyric>
      </note>
      <note>
        
        <pitch>
          <step>A</step>
          <octave>5</octave>
        </pitch>
        <duration>24</duration>
        <type>16th</type>
        <lyric>
          <text />
        </lyric>
      </note>
      <note>
        
        <pitch>
          <step>A</step>
          <octave>5</octave>
        </pitch>
        <duration>24</duration>
        <type>16th</type>
        <lyric>
          <text />
        </lyric>
      </note>
      <note>
        
        <pitch>
          <step>A</step>
          <octave>5</octave>
        </pitch>
        <duration>48</duration>
        <type>eighth</type>
        <lyric>
          <text />
        </lyric>
      </note>
      <note>
        
        <pitch>
          <step>A</step>
          <octave>5</octave>
        </pitch>
        <duration>24</duration>
        <type>16th</type>
        <lyric>
          <text />
        </lyric>
      </note>
      <note>
        
        <pitch>
          <step>G</step>
          <octave>5</octave>
        </pitch>
        <duration>24</duration>
        <type>16th</type>
        <lyric>
          <text />
        </lyric>
      </note>
    </measure>
    <measure number="7-0">
      <attributes />
      <note>
        
        <pitch>
          <step>G</step>
          <octave>5</octave>
        </pitch>
        <duration>24</duration>
        <type>16th</type>
        <lyric>
          <text />
        </lyric>
      </note>
      <note>
        
        <pitch>
          <step>G</step>
          <octave>5</octave>
        </pitch>
        <duration>72</duration>
        <type>eighth</type>
        <dot />
        <lyric>
          <text />
        </lyric>
      </note>
      <note>
        
        <pitch>
          <step>G</step>
          <octave>5</octave>
        </pitch>
        <duration>48</duration>
        <type>eighth</type>
        <lyric>
          <text />
        </lyric>
      </note>
      <note>
        
        <pitch>
          <step>A</step>
          <octave>5</octave>
        </pitch>
        <duration>24</duration>
        <type>16th</type>
        <lyric>
          <text />
        </lyric>
      </note>
      <note>
        
        <pitch>
          <step>G</step>
          <octave>5</octave>
        </pitch>
        <duration>24</duration>
        <type>16th</type>
        <lyric>
          <text />
        </lyric>
      </note>
      <note>
        
        <pitch>
          <step>F</step>
          <octave>5</octave>
        </pitch>
        <duration>48</duration>
        <type>eighth</type>
        <lyric>
          <text />
        </lyric>
      </note>
      <note>
        
        <pitch>
          <step>G</step>
          <octave>5</octave>
        </pitch>
        <duration>24</duration>
        <type>16th</type>
        <lyric>
          <text />
        </lyric>
      </note>
      <note>
        
        <pitch>
          <step>A</step>
          <octave>5</octave>
        </pitch>
        <duration>24</duration>
        <type>16th</type>
        <lyric>
          <text />
        </lyric>
      </note>
      <note>
        
        <pitch>
          <step>A</step>
          <octave>5</octave>
        </pitch>
        <duration>96</duration>
        <type>quarter</type>
        <lyric>
          <text />
        </lyric>
      </note>
    </measure>
    <measure number="8-0">
      <attributes />
      <note>
        
        <rest />
        <duration>48</duration>
        <type>eighth</type>
        <lyric>
          <text />
        </lyric>
      </note>
      <note>
        
        <pitch>
          <step>G</step>
          <octave>5</octave>
        </pitch>
        <duration>24</duration>
        <type>16th</type>
        <lyric>
          <text />
        </lyric>
      </note>
      <note>
        
        <pitch>
          <step>A</step>
          <octave>5</octave>
        </pitch>
        <duration>24</duration>
        <type>16th</type>
        <lyric>
          <text />
        </lyric>
      </note>
      <note>
        
        <pitch>
          <step>A</step>
          <octave>5</octave>
        </pitch>
        <duration>48</duration>
        <type>eighth</type>
        <lyric>
          <text />
        </lyric>
      </note>
      <note>
        
        <pitch>
          <step>A</step>
          <octave>5</octave>
        </pitch>
        <duration>48</duration>
        <type>eighth</type>
        <lyric>
          <text />
        </lyric>
      </note>
      <note>
        
        <pitch>
          <step>A</step>
          <octave>5</octave>
        </pitch>
        <duration>48</duration>
        <type>eighth</type>
        <lyric>
          <text />
        </lyric>
      </note>
      <note>
        
        <pitch>
          <step>A</step>
          <octave>5</octave>
        </pitch>
        <duration>24</duration>
        <type>16th</type>
        <lyric>
          <text />
        </lyric>
      </note>
      <note>
        
        <pitch>
          <step>A</step>
          <octave>5</octave>
        </pitch>
        <duration>24</duration>
        <type>16th</type>
        <lyric>
          <text />
        </lyric>
      </note>
      <note>
        
        <pitch>
          <step>A</step>
          <octave>5</octave>
        </pitch>
        <duration>48</duration>
        <type>eighth</type>
        <lyric>
          <text />
        </lyric>
      </note>
      <note>
        
        <pitch>
          <step>A</step>
          <octave>5</octave>
        </pitch>
        <duration>24</duration>
        <type>16th</type>
        <lyric>
          <text />
        </lyric>
      </note>
      <note>
        
        <pitch>
          <step>G</step>
          <octave>5</octave>
        </pitch>
        <duration>24</duration>
        <type>16th</type>
        <lyric>
          <text />
        </lyric>
      </note>
    </measure>
    <measure number="9-0">
      <attributes />
      <note>
        
        <pitch>
          <step>G</step>
          <octave>5</octave>
        </pitch>
        <duration>24</duration>
        <type>16th</type>
        <lyric>
          <text />
        </lyric>
      </note>
      <note>
        
        <pitch>
          <step>G</step>
          <octave>5</octave>
        </pitch>
        <duration>72</duration>
        <type>eighth</type>
        <dot />
        <lyric>
          <text />
        </lyric>
      </note>
      <note>
        
        <pitch>
          <step>G</step>
          <octave>5</octave>
        </pitch>
        <duration>48</duration>
        <type>eighth</type>
        <lyric>
          <text />
        </lyric>
      </note>
      <note>
        
        <pitch>
          <step>A</step>
          <octave>5</octave>
        </pitch>
        <duration>24</duration>
        <type>16th</type>
        <lyric>
          <text />
        </lyric>
      </note>
      <note>
        
        <pitch>
          <step>G</step>
          <octave>5</octave>
        </pitch>
        <duration>24</duration>
        <type>16th</type>
        <lyric>
          <text />
        </lyric>
      </note>
      <note>
        
        <pitch>
          <step>F</step>
          <octave>5</octave>
        </pitch>
        <duration>48</duration>
        <type>eighth</type>
        <lyric>
          <text />
        </lyric>
      </note>
      <note>
        
        <pitch>
          <step>G</step>
          <octave>5</octave>
        </pitch>
        <duration>24</duration>
        <type>16th</type>
        <lyric>
          <text />
        </lyric>
      </note>
      <note>
        
        <pitch>
          <step>A</step>
          <octave>5</octave>
        </pitch>
        <duration>24</duration>
        <type>16th</type>
        <lyric>
          <text />
        </lyric>
      </note>
      <note>
        
        <pitch>
          <step>A</step>
          <octave>5</octave>
        </pitch>
        <duration>96</duration>
        <type>quarter</type>
        <lyric>
          <text />
        </lyric>
      </note>
    </measure>
    <measure number="10-0">
      <attributes />
      <note>
        
        <rest />
        <duration>48</duration>
        <type>eighth</type>
        <lyric>
          <text />
        </lyric>
      </note>
      <note>
        
        <pitch>
          <step>E</step>
          <octave>5</octave>
        </pitch>
        <duration>24</duration>
        <type>16th</type>
        <lyric>
          <text />
        </lyric>
      </note>
      <note>
        
        <pitch>
          <step>F</step>
          <octave>5</octave>
        </pitch>
        <duration>24</duration>
        <type>16th</type>
        <lyric>
          <text />
        </lyric>
      </note>
      <note>
        
        <pitch>
          <step>F</step>
          <octave>5</octave>
        </pitch>
        <duration>48</duration>
        <type>eighth</type>
        <lyric>
          <text />
        </lyric>
      </note>
      <note>
        
        <pitch>
          <step>G</step>
          <octave>5</octave>
        </pitch>
        <duration>24</duration>
        <type>16th</type>
        <lyric>
          <text />
        </lyric>
      </note>
      <note>
        
        <pitch>
          <step>E</step>
          <octave>5</octave>
        </pitch>
        <duration>24</duration>
        <type>16th</type>
        <lyric>
          <text />
        </lyric>
      </note>
      <note>
        
        <pitch>
          <step>E</step>
          <octave>5</octave>
        </pitch>
        <duration>48</duration>
        <type>eighth</type>
        <lyric>
          <text />
        </lyric>
      </note>
      <note>
        
        <pitch>
          <step>E</step>
          <octave>5</octave>
        </pitch>
        <duration>24</duration>
        <type>16th</type>
        <lyric>
          <text />
        </lyric>
      </note>
      <note>
        
        <pitch>
          <step>E</step>
          <octave>5</octave>
        </pitch>
        <duration>24</duration>
        <type>16th</type>
        <lyric>
          <text />
        </lyric>
      </note>
      <note>
        
        <pitch>
          <step>E</step>
          <octave>5</octave>
        </pitch>
        <duration>48</duration>
        <type>eighth</type>
        <lyric>
          <text />
        </lyric>
      </note>
      <note>
        
        <pitch>
          <step>F</step>
          <octave>5</octave>
        </pitch>
        <duration>24</duration>
        <type>16th</type>
        <lyric>
          <text />
        </lyric>
      </note>
      <note>
        
        <pitch>
          <step>D</step>
          <octave>5</octave>
        </pitch>
        <duration>24</duration>
        <type>16th</type>
        <lyric>
          <text />
        </lyric>
      </note>
    </measure>
    <measure number="11-0">
      <attributes />
      <note>
        
        <pitch>
          <step>D</step>
          <octave>5</octave>
        </pitch>
        <duration>24</duration>
        <type>16th</type>
        <lyric>
          <text />
        </lyric>
      </note>
      <note>
        
        <pitch>
          <step>E</step>
          <octave>5</octave>
        </pitch>
        <duration>24</duration>
        <type>16th</type>
        <lyric>
          <text />
        </lyric>
      </note>
      <note>
        
        <pitch>
          <step>D</step>
          <octave>5</octave>
        </pitch>
        <duration>24</duration>
        <type>16th</type>
        <lyric>
          <text />
        </lyric>
      </note>
      <note>
        
        <pitch>
          <step>D</step>
          <octave>5</octave>
        </pitch>
        <duration>24</duration>
        <type>16th</type>
        <lyric>
          <text />
        </lyric>
      </note>
      <note>
        
        <pitch>
          <step>D</step>
          <octave>5</octave>
        </pitch>
        <duration>48</duration>
        <type>eighth</type>
        <lyric>
          <text />
        </lyric>
      </note>
      <note>
        
        <pitch>
          <step>E</step>
          <octave>5</octave>
        </pitch>
        <duration>24</duration>
        <type>16th</type>
        <lyric>
          <text />
        </lyric>
      </note>
      <note>
        
        <pitch>
          <step>C</step>
          <octave>5</octave>
        </pitch>
        <duration>24</duration>
        <type>16th</type>
        <lyric>
          <text />
        </lyric>
      </note>
      <note>
        
        <pitch>
          <step>C</step>
          <octave>5</octave>
        </pitch>
        <duration>48</duration>
        <type>eighth</type>
        <lyric>
          <text />
        </lyric>
      </note>
      <note>
        
        <pitch>
          <step>F</step>
          <octave>5</octave>
        </pitch>
        <duration>24</duration>
        <type>16th</type>
        <lyric>
          <text />
        </lyric>
      </note>
      <note>
        
        <pitch>
          <step>E</step>
          <octave>5</octave>
        </pitch>
        <duration>24</duration>
        <type>16th</type>
        <lyric>
          <text />
        </lyric>
      </note>
      <note>
        
        <pitch>
          <step>E</step>
          <octave>5</octave>
        </pitch>
        <duration>96</duration>
        <type>quarter</type>
        <lyric>
          <text />
        </lyric>
      </note>
    </measure>
    <measure number="12-0">
      <attributes />
      <note>
        
        <rest />
        <duration>48</duration>
        <type>eighth</type>
        <lyric>
          <text />
        </lyric>
      </note>
      <note>
        
        <pitch>
          <step>E</step>
          <octave>5</octave>
        </pitch>
        <duration>24</duration>
        <type>16th</type>
        <lyric>
          <text />
        </lyric>
      </note>
      <note>
        
        <pitch>
          <step>E</step>
          <octave>5</octave>
        </pitch>
        <duration>24</duration>
        <type>16th</type>
        <lyric>
          <text />
        </lyric>
      </note>
      <note>
        
        <pitch>
          <step>E</step>
          <octave>5</octave>
        </pitch>
        <duration>48</duration>
        <type>eighth</type>
        <lyric>
          <text />
        </lyric>
      </note>
      <note>
        
        <pitch>
          <step>F</step>
          <octave>5</octave>
        </pitch>
        <duration>24</duration>
        <type>16th</type>
        <lyric>
          <text />
        </lyric>
      </note>
      <note>
        
        <pitch>
          <step>D</step>
          <octave>5</octave>
        </pitch>
        <duration>24</duration>
        <type>16th</type>
        <lyric>
          <text />
        </lyric>
      </note>
      <note>
        
        <pitch>
          <step>D</step>
          <octave>5</octave>
        </pitch>
        <duration>24</duration>
        <type>16th</type>
        <lyric>
          <text />
        </lyric>
      </note>
      <note>
        
        <pitch>
          <step>E</step>
          <octave>5</octave>
        </pitch>
        <duration>24</duration>
        <type>16th</type>
        <lyric>
          <text />
        </lyric>
      </note>
      <note>
        
        <pitch>
          <step>D</step>
          <octave>5</octave>
        </pitch>
        <duration>24</duration>
        <type>16th</type>
        <lyric>
          <text />
        </lyric>
      </note>
      <note>
        
        <pitch>
          <step>D</step>
          <octave>5</octave>
        </pitch>
        <duration>24</duration>
        <type>16th</type>
        <lyric>
          <text />
        </lyric>
      </note>
      <note>
        
        <pitch>
          <step>D</step>
          <octave>5</octave>
        </pitch>
        <duration>48</duration>
        <type>eighth</type>
        <lyric>
          <text />
        </lyric>
      </note>
      <note>
        
        <pitch>
          <step>E</step>
          <octave>5</octave>
        </pitch>
        <duration>24</duration>
        <type>16th</type>
        <lyric>
          <text />
        </lyric>
      </note>
      <note>
        
        <pitch>
          <step>C</step>
          <octave>5</octave>
        </pitch>
        <duration>24</duration>
        <type>16th</type>
        <lyric>
          <text />
        </lyric>
      </note>
    </measure>
    <measure number="13-0">
      <attributes />
      <note>
        
        <pitch>
          <step>C</step>
          <octave>5</octave>
        </pitch>
        <duration>48</duration>
        <type>eighth</type>
        <lyric>
          <text />
        </lyric>
      </note>
      <note>
        
        <pitch>
          <step>C</step>
          <octave>5</octave>
        </pitch>
        <duration>24</duration>
        <type>16th</type>
        <lyric>
          <text />
        </lyric>
      </note>
      <note>
        
        <pitch>
          <step>C</step>
          <octave>5</octave>
        </pitch>
        <duration>24</duration>
        <type>16th</type>
        <lyric>
          <text />
        </lyric>
      </note>
      <note>
        
        <pitch>
          <step>C</step>
          <octave>5</octave>
        </pitch>
        <duration>48</duration>
        <type>eighth</type>
        <lyric>
          <text />
        </lyric>
      </note>
      <note>
        
        <pitch>
          <step>D</step>
          <octave>5</octave>
        </pitch>
        <duration>24</duration>
        <type>16th</type>
        <lyric>
          <text />
        </lyric>
      </note>
      <note>
        
        <pitch>
          <step>C</step>
          <octave>5</octave>
        </pitch>
        <duration>24</duration>
        <type>16th</type>
        <lyric>
          <text />
        </lyric>
      </note>
      <note>
        
        <pitch>
          <step>B</step>
          <alter>-1</alter>
          <octave>4</octave>
        </pitch>
        <duration>24</duration>
        <type>16th</type>
        <accidental>flat</accidental>
        <lyric>
          <text />
        </lyric>
      </note>
      <note>
        
        <pitch>
          <step>C</step>
          <octave>5</octave>
        </pitch>
        <duration>24</duration>
        <type>16th</type>
        <lyric>
          <text />
        </lyric>
      </note>
      <note>
        
        <pitch>
          <step>B</step>
          <alter>-1</alter>
          <octave>4</octave>
        </pitch>
        <duration>24</duration>
        <type>16th</type>
        <accidental>flat</accidental>
        <lyric>
          <text />
        </lyric>
      </note>
      <note>
        
        <pitch>
          <step>A</step>
          <octave>4</octave>
        </pitch>
        <duration>24</duration>
        <type>16th</type>
        <lyric>
          <text />
        </lyric>
      </note>
      <note>
        
        <pitch>
          <step>A</step>
          <octave>4</octave>
        </pitch>
        <duration>96</duration>
        <type>quarter</type>
        <lyric>
          <text />
        </lyric>
      </note>
    </measure>
    <measure number="14-0">
      <attributes />
      <note>
        
        <rest />
        <duration>48</duration>
        <type>eighth</type>
        <lyric>
          <text />
        </lyric>
      </note>
      <note>
        
        <pitch>
          <step>F</step>
          <octave>5</octave>
        </pitch>
        <duration>24</duration>
        <type>16th</type>
        <lyric>
          <text />
        </lyric>
      </note>
      <note>
        
        <pitch>
          <step>F</step>
          <octave>5</octave>
        </pitch>
        <duration>24</duration>
        <type>16th</type>
        <lyric>
          <text />
        </lyric>
      </note>
      <note>
        
        <pitch>
          <step>F</step>
          <octave>5</octave>
        </pitch>
        <duration>48</duration>
        <type>eighth</type>
        <lyric>
          <text />
        </lyric>
      </note>
      <note>
        
        <pitch>
          <step>G</step>
          <octave>5</octave>
        </pitch>
        <duration>24</duration>
        <type>16th</type>
        <lyric>
          <text />
        </lyric>
      </note>
      <note>
        
        <pitch>
          <step>E</step>
          <octave>5</octave>
        </pitch>
        <duration>24</duration>
        <type>16th</type>
        <lyric>
          <text />
        </lyric>
      </note>
      <note>
        
        <pitch>
          <step>E</step>
          <octave>5</octave>
        </pitch>
        <duration>48</duration>
        <type>eighth</type>
        <lyric>
          <text />
        </lyric>
      </note>
      <note>
        
        <pitch>
          <step>E</step>
          <octave>5</octave>
        </pitch>
        <duration>24</duration>
        <type>16th</type>
        <lyric>
          <text />
        </lyric>
      </note>
      <note>
        
        <pitch>
          <step>E</step>
          <octave>5</octave>
        </pitch>
        <duration>24</duration>
        <type>16th</type>
        <lyric>
          <text />
        </lyric>
      </note>
      <note>
        
        <pitch>
          <step>E</step>
          <octave>5</octave>
        </pitch>
        <duration>48</duration>
        <type>eighth</type>
        <lyric>
          <text />
        </lyric>
      </note>
      <note>
        
        <pitch>
          <step>F</step>
          <octave>5</octave>
        </pitch>
        <duration>24</duration>
        <type>16th</type>
        <lyric>
          <text />
        </lyric>
      </note>
      <note>
        
        <pitch>
          <step>D</step>
          <octave>5</octave>
        </pitch>
        <duration>24</duration>
        <type>16th</type>
        <lyric>
          <text />
        </lyric>
      </note>
    </measure>
    <measure number="15-0">
      <attributes />
      <note>
        
        <pitch>
          <step>D</step>
          <octave>5</octave>
        </pitch>
        <duration>24</duration>
        <type>16th</type>
        <lyric>
          <text />
        </lyric>
      </note>
      <note>
        
        <pitch>
          <step>E</step>
          <octave>5</octave>
        </pitch>
        <duration>24</duration>
        <type>16th</type>
        <lyric>
          <text />
        </lyric>
      </note>
      <note>
        
        <pitch>
          <step>D</step>
          <octave>5</octave>
        </pitch>
        <duration>24</duration>
        <type>16th</type>
        <lyric>
          <text />
        </lyric>
      </note>
      <note>
        
        <pitch>
          <step>D</step>
          <octave>5</octave>
        </pitch>
        <duration>24</duration>
        <type>16th</type>
        <lyric>
          <text />
        </lyric>
      </note>
      <note>
        
        <pitch>
          <step>D</step>
          <octave>5</octave>
        </pitch>
        <duration>48</duration>
        <type>eighth</type>
        <lyric>
          <text />
        </lyric>
      </note>
      <note>
        
        <pitch>
          <step>E</step>
          <octave>5</octave>
        </pitch>
        <duration>24</duration>
        <type>16th</type>
        <lyric>
          <text />
        </lyric>
      </note>
      <note>
        
        <pitch>
          <step>C</step>
          <octave>5</octave>
        </pitch>
        <duration>24</duration>
        <type>16th</type>
        <lyric>
          <text />
        </lyric>
      </note>
      <note>
        
        <pitch>
          <step>C</step>
          <octave>5</octave>
        </pitch>
        <duration>48</duration>
        <type>eighth</type>
        <lyric>
          <text />
        </lyric>
      </note>
      <note>
        
        <pitch>
          <step>F</step>
          <octave>5</octave>
        </pitch>
        <duration>24</duration>
        <type>16th</type>
        <lyric>
          <text />
        </lyric>
      </note>
      <note>
        
        <pitch>
          <step>E</step>
          <octave>5</octave>
        </pitch>
        <duration>24</duration>
        <type>16th</type>
        <lyric>
          <text />
        </lyric>
      </note>
      <note>
        
        <pitch>
          <step>E</step>
          <octave>5</octave>
        </pitch>
        <duration>96</duration>
        <type>quarter</type>
        <lyric>
          <text />
        </lyric>
      </note>
    </measure>
    <measure number="16-0">
      <attributes />
      <note>
        
        <rest />
        <duration>48</duration>
        <type>eighth</type>
        <lyric>
          <text />
        </lyric>
      </note>
      <note>
        
        <pitch>
          <step>E</step>
          <octave>5</octave>
        </pitch>
        <duration>24</duration>
        <type>16th</type>
        <lyric>
          <text />
        </lyric>
      </note>
      <note>
        
        <pitch>
          <step>E</step>
          <octave>5</octave>
        </pitch>
        <duration>24</duration>
        <type>16th</type>
        <lyric>
          <text />
        </lyric>
      </note>
      <note>
        
        <pitch>
          <step>E</step>
          <octave>5</octave>
        </pitch>
        <duration>48</duration>
        <type>eighth</type>
        <lyric>
          <text />
        </lyric>
      </note>
      <note>
        
        <pitch>
          <step>F</step>
          <octave>5</octave>
        </pitch>
        <duration>24</duration>
        <type>16th</type>
        <lyric>
          <text />
        </lyric>
      </note>
      <note>
        
        <pitch>
          <step>D</step>
          <octave>5</octave>
        </pitch>
        <duration>24</duration>
        <type>16th</type>
        <lyric>
          <text />
        </lyric>
      </note>
      <note>
        
        <pitch>
          <step>D</step>
          <octave>5</octave>
        </pitch>
        <duration>24</duration>
        <type>16th</type>
        <lyric>
          <text />
        </lyric>
      </note>
      <note>
        
        <pitch>
          <step>E</step>
          <octave>5</octave>
        </pitch>
        <duration>24</duration>
        <type>16th</type>
        <lyric>
          <text />
        </lyric>
      </note>
      <note>
        
        <pitch>
          <step>D</step>
          <octave>5</octave>
        </pitch>
        <duration>24</duration>
        <type>16th</type>
        <lyric>
          <text />
        </lyric>
      </note>
      <note>
        
        <pitch>
          <step>D</step>
          <octave>5</octave>
        </pitch>
        <duration>24</duration>
        <type>16th</type>
        <lyric>
          <text />
        </lyric>
      </note>
      <note>
        
        <pitch>
          <step>D</step>
          <octave>5</octave>
        </pitch>
        <duration>48</duration>
        <type>eighth</type>
        <lyric>
          <text />
        </lyric>
      </note>
      <note>
        
        <pitch>
          <step>E</step>
          <octave>5</octave>
        </pitch>
        <duration>24</duration>
        <type>16th</type>
        <lyric>
          <text />
        </lyric>
      </note>
      <note>
        
        <pitch>
          <step>C</step>
          <octave>5</octave>
        </pitch>
        <duration>24</duration>
        <type>16th</type>
        <lyric>
          <text />
        </lyric>
      </note>
    </measure>
    <measure number="17-0">
      <attributes />
      <note>
        
        <pitch>
          <step>C</step>
          <octave>5</octave>
        </pitch>
        <duration>48</duration>
        <type>eighth</type>
        <lyric>
          <text />
        </lyric>
      </note>
      <note>
        
        <pitch>
          <step>C</step>
          <octave>5</octave>
        </pitch>
        <duration>24</duration>
        <type>16th</type>
        <lyric>
          <text />
        </lyric>
      </note>
      <note>
        
        <pitch>
          <step>C</step>
          <octave>5</octave>
        </pitch>
        <duration>24</duration>
        <type>16th</type>
        <lyric>
          <text />
        </lyric>
      </note>
      <note>
        
        <pitch>
          <step>C</step>
          <octave>5</octave>
        </pitch>
        <duration>48</duration>
        <type>eighth</type>
        <lyric>
          <text />
        </lyric>
      </note>
      <note>
        
        <pitch>
          <step>D</step>
          <octave>5</octave>
        </pitch>
        <duration>24</duration>
        <type>16th</type>
        <lyric>
          <text />
        </lyric>
      </note>
      <note>
        
        <pitch>
          <step>C</step>
          <octave>5</octave>
        </pitch>
        <duration>24</duration>
        <type>16th</type>
        <lyric>
          <text />
        </lyric>
      </note>
      <note>
        
        <pitch>
          <step>B</step>
          <alter>-1</alter>
          <octave>4</octave>
        </pitch>
        <duration>24</duration>
        <type>16th</type>
        <accidental>flat</accidental>
        <lyric>
          <text />
        </lyric>
      </note>
      <note>
        
        <pitch>
          <step>C</step>
          <octave>5</octave>
        </pitch>
        <duration>24</duration>
        <type>16th</type>
        <lyric>
          <text />
        </lyric>
      </note>
      <note>
        
        <pitch>
          <step>B</step>
          <alter>-1</alter>
          <octave>4</octave>
        </pitch>
        <duration>24</duration>
        <type>16th</type>
        <accidental>flat</accidental>
        <lyric>
          <text />
        </lyric>
      </note>
      <note>
        
        <pitch>
          <step>A</step>
          <octave>4</octave>
        </pitch>
        <duration>24</duration>
        <type>16th</type>
        <lyric>
          <text />
        </lyric>
      </note>
      <note>
        
        <pitch>
          <step>A</step>
          <octave>4</octave>
        </pitch>
        <duration>96</duration>
        <type>quarter</type>
        <lyric>
          <text />
        </lyric>
      </note>
    </measure>
    <measure number="18-0">
      <attributes />
      <note>
        
        <rest />
        <duration>48</duration>
        <type>eighth</type>
        <lyric>
          <text />
        </lyric>
      </note>
      <note>
        
        <pitch>
          <step>F</step>
          <octave>5</octave>
        </pitch>
        <duration>24</duration>
        <type>16th</type>
        <lyric>
          <text />
        </lyric>
      </note>
      <note>
        
        <pitch>
          <step>F</step>
          <octave>5</octave>
        </pitch>
        <duration>24</duration>
        <type>16th</type>
        <lyric>
          <text />
        </lyric>
      </note>
      <note>
        
        <pitch>
          <step>F</step>
          <octave>5</octave>
        </pitch>
        <duration>48</duration>
        <type>eighth</type>
        <lyric>
          <text />
        </lyric>
      </note>
      <note>
        
        <pitch>
          <step>G</step>
          <octave>5</octave>
        </pitch>
        <duration>24</duration>
        <type>16th</type>
        <lyric>
          <text />
        </lyric>
      </note>
      <note>
        
        <pitch>
          <step>E</step>
          <octave>5</octave>
        </pitch>
        <duration>24</duration>
        <type>16th</type>
        <lyric>
          <text />
        </lyric>
      </note>
      <note>
        
        <pitch>
          <step>E</step>
          <octave>5</octave>
        </pitch>
        <duration>48</duration>
        <type>eighth</type>
        <lyric>
          <text />
        </lyric>
      </note>
      <note>
        
        <pitch>
          <step>E</step>
          <octave>5</octave>
        </pitch>
        <duration>24</duration>
        <type>16th</type>
        <lyric>
          <text />
        </lyric>
      </note>
      <note>
        
        <pitch>
          <step>E</step>
          <octave>5</octave>
        </pitch>
        <duration>24</duration>
        <type>16th</type>
        <lyric>
          <text />
        </lyric>
      </note>
      <note>
        
        <pitch>
          <step>E</step>
          <octave>5</octave>
        </pitch>
        <duration>48</duration>
        <type>eighth</type>
        <lyric>
          <text />
        </lyric>
      </note>
      <note>
        
        <pitch>
          <step>F</step>
          <octave>5</octave>
        </pitch>
        <duration>24</duration>
        <type>16th</type>
        <lyric>
          <text />
        </lyric>
      </note>
      <note>
        
        <pitch>
          <step>D</step>
          <octave>5</octave>
        </pitch>
        <duration>24</duration>
        <type>16th</type>
        <lyric>
          <text />
        </lyric>
      </note>
    </measure>
    <measure number="19-0">
      <attributes />
      <note>
        
        <pitch>
          <step>D</step>
          <octave>5</octave>
        </pitch>
        <duration>24</duration>
        <type>16th</type>
        <lyric>
          <text />
        </lyric>
      </note>
      <note>
        
        <pitch>
          <step>E</step>
          <octave>5</octave>
        </pitch>
        <duration>24</duration>
        <type>16th</type>
        <lyric>
          <text />
        </lyric>
      </note>
      <note>
        
        <pitch>
          <step>D</step>
          <octave>5</octave>
        </pitch>
        <duration>24</duration>
        <type>16th</type>
        <lyric>
          <text />
        </lyric>
      </note>
      <note>
        
        <pitch>
          <step>D</step>
          <octave>5</octave>
        </pitch>
        <duration>24</duration>
        <type>16th</type>
        <lyric>
          <text />
        </lyric>
      </note>
      <note>
        
        <pitch>
          <step>D</step>
          <octave>5</octave>
        </pitch>
        <duration>48</duration>
        <type>eighth</type>
        <lyric>
          <text />
        </lyric>
      </note>
      <note>
        
        <pitch>
          <step>E</step>
          <octave>5</octave>
        </pitch>
        <duration>24</duration>
        <type>16th</type>
        <lyric>
          <text />
        </lyric>
      </note>
      <note>
        
        <pitch>
          <step>C</step>
          <octave>5</octave>
        </pitch>
        <duration>24</duration>
        <type>16th</type>
        <lyric>
          <text />
        </lyric>
      </note>
      <note>
        
        <pitch>
          <step>C</step>
          <octave>5</octave>
        </pitch>
        <duration>48</duration>
        <type>eighth</type>
        <lyric>
          <text />
        </lyric>
      </note>
      <note>
        
        <pitch>
          <step>F</step>
          <octave>5</octave>
        </pitch>
        <duration>24</duration>
        <type>16th</type>
        <lyric>
          <text />
        </lyric>
      </note>
      <note>
        
        <pitch>
          <step>E</step>
          <octave>5</octave>
        </pitch>
        <duration>24</duration>
        <type>16th</type>
        <lyric>
          <text />
        </lyric>
      </note>
      <note>
        
        <pitch>
          <step>E</step>
          <octave>5</octave>
        </pitch>
        <duration>96</duration>
        <type>quarter</type>
        <lyric>
          <text />
        </lyric>
      </note>
    </measure>
    <measure number="20-0">
      <attributes />
      <note>
        
        <rest />
        <duration>48</duration>
        <type>eighth</type>
        <lyric>
          <text />
        </lyric>
      </note>
      <note>
        
        <pitch>
          <step>E</step>
          <octave>5</octave>
        </pitch>
        <duration>24</duration>
        <type>16th</type>
        <lyric>
          <text />
        </lyric>
      </note>
      <note>
        
        <pitch>
          <step>E</step>
          <octave>5</octave>
        </pitch>
        <duration>24</duration>
        <type>16th</type>
        <lyric>
          <text />
        </lyric>
      </note>
      <note>
        
        <pitch>
          <step>E</step>
          <octave>5</octave>
        </pitch>
        <duration>48</duration>
        <type>eighth</type>
        <lyric>
          <text />
        </lyric>
      </note>
      <note>
        
        <pitch>
          <step>F</step>
          <octave>5</octave>
        </pitch>
        <duration>24</duration>
        <type>16th</type>
        <lyric>
          <text />
        </lyric>
      </note>
      <note>
        
        <pitch>
          <step>D</step>
          <octave>5</octave>
        </pitch>
        <duration>24</duration>
        <type>16th</type>
        <lyric>
          <text />
        </lyric>
      </note>
      <note>
        
        <pitch>
          <step>D</step>
          <octave>5</octave>
        </pitch>
        <duration>24</duration>
        <type>16th</type>
        <lyric>
          <text />
        </lyric>
      </note>
      <note>
        
        <pitch>
          <step>E</step>
          <octave>5</octave>
        </pitch>
        <duration>24</duration>
        <type>16th</type>
        <lyric>
          <text />
        </lyric>
      </note>
      <note>
        
        <pitch>
          <step>D</step>
          <octave>5</octave>
        </pitch>
        <duration>24</duration>
        <type>16th</type>
        <lyric>
          <text />
        </lyric>
      </note>
      <note>
        
        <pitch>
          <step>D</step>
          <octave>5</octave>
        </pitch>
        <duration>24</duration>
        <type>16th</type>
        <lyric>
          <text />
        </lyric>
      </note>
      <note>
        
        <pitch>
          <step>D</step>
          <octave>5</octave>
        </pitch>
        <duration>48</duration>
        <type>eighth</type>
        <lyric>
          <text />
        </lyric>
      </note>
      <note>
        
        <pitch>
          <step>E</step>
          <octave>5</octave>
        </pitch>
        <duration>24</duration>
        <type>16th</type>
        <lyric>
          <text />
        </lyric>
      </note>
      <note>
        
        <pitch>
          <step>C</step>
          <octave>5</octave>
        </pitch>
        <duration>24</duration>
        <type>16th</type>
        <lyric>
          <text />
        </lyric>
      </note>
    </measure>
    <measure number="21-0">
      <attributes />
      <note>
        
        <pitch>
          <step>C</step>
          <octave>5</octave>
        </pitch>
        <duration>48</duration>
        <type>eighth</type>
        <lyric>
          <text />
        </lyric>
      </note>
      <note>
        
        <pitch>
          <step>C</step>
          <octave>5</octave>
        </pitch>
        <duration>24</duration>
        <type>16th</type>
        <lyric>
          <text />
        </lyric>
      </note>
      <note>
        
        <pitch>
          <step>C</step>
          <octave>5</octave>
        </pitch>
        <duration>24</duration>
        <type>16th</type>
        <lyric>
          <text />
        </lyric>
      </note>
      <note>
        
        <pitch>
          <step>C</step>
          <octave>5</octave>
        </pitch>
        <duration>48</duration>
        <type>eighth</type>
        <lyric>
          <text />
        </lyric>
      </note>
      <note>
        
        <pitch>
          <step>D</step>
          <octave>5</octave>
        </pitch>
        <duration>24</duration>
        <type>16th</type>
        <lyric>
          <text />
        </lyric>
      </note>
      <note>
        
        <pitch>
          <step>C</step>
          <octave>5</octave>
        </pitch>
        <duration>24</duration>
        <type>16th</type>
        <lyric>
          <text />
        </lyric>
      </note>
      <note>
        
        <pitch>
          <step>B</step>
          <alter>-1</alter>
          <octave>4</octave>
        </pitch>
        <duration>24</duration>
        <type>16th</type>
        <accidental>flat</accidental>
        <lyric>
          <text />
        </lyric>
      </note>
      <note>
        
        <pitch>
          <step>C</step>
          <octave>5</octave>
        </pitch>
        <duration>24</duration>
        <type>16th</type>
        <lyric>
          <text />
        </lyric>
      </note>
      <note>
        
        <pitch>
          <step>B</step>
          <alter>-1</alter>
          <octave>4</octave>
        </pitch>
        <duration>24</duration>
        <type>16th</type>
        <accidental>flat</accidental>
        <lyric>
          <text />
        </lyric>
      </note>
      <note>
        
        <pitch>
          <step>A</step>
          <octave>4</octave>
        </pitch>
        <duration>24</duration>
        <type>16th</type>
        <lyric>
          <text />
        </lyric>
      </note>
      <note>
        
        <pitch>
          <step>A</step>
          <octave>4</octave>
        </pitch>
        <duration>96</duration>
        <type>quarter</type>
        <lyric>
          <text />
        </lyric>
      </note>
    </measure>
    <measure number="22-0">
      <attributes />
    </measure>
  </part>
</score-partwise>