<score-partwise version="3.0">
  <work>
    <work-title>D&#252;&#351;me Ey &#194;&#351;&#305;k Hay&#226;le</work-title>
  </work>
  <identification>
    <creator type="composer">Niko&#287;os A&#287;a</creator>
    <creator type="poet">Mehmet S&#226;di Bey</creator>
    <encoding>
      <encoder>Burak Uyar</encoder>
      <software>https://github.com/burakuyar/MusicXMLConverter</software>
    </encoding>
    <relation>http://musicbrainz.org/work/241c8f21-6b0c-44fe-9284-3b37c0d3553e</relation>
  </identification>
  <part-list>
    <score-part id="P1">
      <part-name>Music</part-name>
    </score-part>
  </part-list>
  <part id="P1">
    <measure number="1-0">
      <direction placement="above">
        <direction-type>
          <metronome>
            <beat-unit>quarter</beat-unit>
            <per-minute>72</per-minute>
          </metronome>
        </direction-type>
        <direction-type>
          <words default-y="35">Makam: Isfah&#226;n, Form: &#350;ark&#305;, Usul: M&#252;semmen </words>
        </direction-type>
        <sound tempo="72" />
      </direction>
      <attributes>
        <divisions>96</divisions>
        <time>
          <beats>8</beats>
          <beat-type>8</beat-type>
        </time>
      </attributes>
      <note>
        
        <pitch>
          <step>G</step>
          <octave>4</octave>
        </pitch>
        <duration>96</duration>
        <type>quarter</type>
        <lyric name="VOCAL_SECTION">
          <syllabic>begin</syllabic>
          <text>D&#252;&#351;</text>
        </lyric>
      </note>
      <note>
        
        <pitch>
          <step>D</step>
          <octave>5</octave>
        </pitch>
        <duration>48</duration>
        <type>eighth</type>
        <lyric>
          <syllabic>end</syllabic>
          <text>me </text>
        </lyric>
      </note>
      <note>
        
        <pitch>
          <step>D</step>
          <octave>5</octave>
        </pitch>
        <duration>48</duration>
        <type>eighth</type>
        <lyric>
          <syllabic>single</syllabic>
          <text>ey </text>
        </lyric>
      </note>
      <note>
        
        <pitch>
          <step>C</step>
          <octave>5</octave>
        </pitch>
        <duration>48</duration>
        <type>eighth</type>
        <lyric>
          <text />
        </lyric>
      </note>
      <note>
        
        <pitch>
          <step>D</step>
          <octave>5</octave>
        </pitch>
        <duration>144</duration>
        <type>quarter</type>
        <dot />
        <lyric>
          <syllabic>begin</syllabic>
          <text>&#226;</text>
        </lyric>
      </note>
    </measure>
    <measure number="2-0">
      <attributes />
      <note>
        
        <pitch>
          <step>D</step>
          <octave>5</octave>
        </pitch>
        <duration>96</duration>
        <type>quarter</type>
        <lyric>
          <syllabic>end</syllabic>
          <text>&#351;&#305;k </text>
        </lyric>
      </note>
      <note>
        
        <pitch>
          <step>E</step>
          <octave>5</octave>
        </pitch>
        <duration>48</duration>
        <type>eighth</type>
        <lyric>
          <syllabic>begin</syllabic>
          <text>ha</text>
        </lyric>
      </note>
      <note>
        
        <grace steal-time-following="10" />
        <pitch>
          <step>F</step>
          <octave>5</octave>
        </pitch>
        <lyric>
          <text />
        </lyric>
      </note>
      <note>
        
        <pitch>
          <step>E</step>
          <octave>5</octave>
        </pitch>
        <duration>48</duration>
        <type>eighth</type>
        <lyric>
          <syllabic>end</syllabic>
          <text>y&#226;</text>
        </lyric>
      </note>
      <note>
        
        <pitch>
          <step>D</step>
          <octave>5</octave>
        </pitch>
        <duration>48</duration>
        <type>eighth</type>
        <lyric>
          <text />
        </lyric>
      </note>
      <note>
        
        <grace steal-time-previous="10" />
        <pitch>
          <step>E</step>
          <octave>5</octave>
        </pitch>
        <lyric>
          <text />
        </lyric>
      </note>
      <note>
        
        <pitch>
          <step>D</step>
          <octave>5</octave>
        </pitch>
        <duration>48</duration>
        <type>eighth</type>
        <lyric>
          <syllabic>single</syllabic>
          <text>le </text>
        </lyric>
      </note>
      <note>
        
        <pitch>
          <step>C</step>
          <octave>5</octave>
        </pitch>
        <duration>48</duration>
        <type>eighth</type>
        <lyric>
          <text />
        </lyric>
      </note>
      <note>
        
        <pitch>
          <step>B</step>
          <alter>-0.5</alter>
          <octave>4</octave>
        </pitch>
        <duration>48</duration>
        <type>eighth</type>
        <accidental>quarter-flat</accidental>
        <lyric>
          <text />
        </lyric>
      </note>
    </measure>
    <measure number="3-0">
      <attributes />
      <note>
        
        <pitch>
          <step>G</step>
          <octave>5</octave>
        </pitch>
        <duration>48</duration>
        <type>eighth</type>
        <lyric>
          <syllabic>begin</syllabic>
          <text>ya&#287;</text>
        </lyric>
      </note>
      <note>
        
        <pitch>
          <step>F</step>
          <alter>+1</alter>
          <octave>5</octave>
        </pitch>
        <duration>48</duration>
        <type>eighth</type>
        <accidental>sharp</accidental>
        <lyric>
          <text />
        </lyric>
      </note>
      <note>
        
        <pitch>
          <step>E</step>
          <octave>5</octave>
        </pitch>
        <duration>48</duration>
        <type>eighth</type>
        <lyric>
          <text />
        </lyric>
      </note>
      <note>
        
        <pitch>
          <step>A</step>
          <octave>5</octave>
        </pitch>
        <duration>48</duration>
        <type>eighth</type>
        <lyric>
          <text />
        </lyric>
      </note>
      <note>
        
        <pitch>
          <step>G</step>
          <octave>5</octave>
        </pitch>
        <duration>48</duration>
        <type>eighth</type>
        <lyric>
          <text />
        </lyric>
      </note>
      <note>
        
        <pitch>
          <step>F</step>
          <octave>5</octave>
        </pitch>
        <duration>48</duration>
        <type>eighth</type>
        <lyric>
          <text />
        </lyric>
      </note>
      <note>
        
        <pitch>
          <step>E</step>
          <octave>5</octave>
        </pitch>
        <duration>48</duration>
        <type>eighth</type>
        <lyric>
          <text />
        </lyric>
      </note>
      <note>
        
        <pitch>
          <step>D</step>
          <octave>5</octave>
        </pitch>
        <duration>48</duration>
        <type>eighth</type>
        <lyric>
          <syllabic>end</syllabic>
          <text>ma </text>
        </lyric>
      </note>
    </measure>
    <measure number="4-0">
      <attributes />
      <note>
        
        <grace steal-time-previous="10" />
        <pitch>
          <step>D</step>
          <octave>5</octave>
        </pitch>
        <lyric>
          <text />
        </lyric>
      </note>
      <note>
        
        <pitch>
          <step>E</step>
          <octave>5</octave>
        </pitch>
        <duration>48</duration>
        <type>eighth</type>
        <lyric>
          <syllabic>single</syllabic>
          <text>yok  </text>
          <end-line />
        </lyric>
      </note>
      <note>
        
        <pitch>
          <step>D</step>
          <octave>5</octave>
        </pitch>
        <duration>48</duration>
        <type>eighth</type>
        <lyric>
          <text />
        </lyric>
      </note>
      <note>
        
        <pitch>
          <step>C</step>
          <octave>5</octave>
        </pitch>
        <duration>48</duration>
        <type>eighth</type>
        <lyric>
          <text />
        </lyric>
      </note>
      <note>
        
        <pitch>
          <step>D</step>
          <octave>5</octave>
        </pitch>
        <duration>192</duration>
        <type>half</type>
        <lyric>
          <text />
        </lyric>
      </note>
      <note>
        
        <rest />
        <duration>48</duration>
        <type>eighth</type>
        <lyric>
          <text />
        </lyric>
      </note>
    </measure>
    <measure number="5-0">
      <attributes />
      <note>
        
        <pitch>
          <step>D</step>
          <octave>5</octave>
        </pitch>
        <duration>48</duration>
        <type>eighth</type>
        <lyric name="VOCAL_SECTION">
          <syllabic>begin</syllabic>
          <text>Ya&#287;</text>
        </lyric>
      </note>
      <note>
        
        <pitch>
          <step>C</step>
          <octave>5</octave>
        </pitch>
        <duration>48</duration>
        <type>eighth</type>
        <lyric>
          <text />
        </lyric>
      </note>
      <note>
        
        <pitch>
          <step>D</step>
          <octave>5</octave>
        </pitch>
        <duration>48</duration>
        <type>eighth</type>
        <lyric>
          <syllabic>end</syllabic>
          <text>ma </text>
        </lyric>
      </note>
      <note>
        
        <pitch>
          <step>E</step>
          <octave>5</octave>
        </pitch>
        <duration>48</duration>
        <type>eighth</type>
        <lyric>
          <syllabic>single</syllabic>
          <text>yok </text>
        </lyric>
      </note>
      <note>
        
        <pitch>
          <step>F</step>
          <alter>+1</alter>
          <octave>5</octave>
        </pitch>
        <duration>48</duration>
        <type>eighth</type>
        <accidental>sharp</accidental>
        <lyric>
          <text />
        </lyric>
      </note>
      <note>
        
        <pitch>
          <step>G</step>
          <octave>5</octave>
        </pitch>
        <duration>48</duration>
        <type>eighth</type>
        <lyric>
          <syllabic>begin</syllabic>
          <text>h&#226;n_</text>
        </lyric>
      </note>
      <note>
        
        <pitch>
          <step>A</step>
          <octave>5</octave>
        </pitch>
        <duration>48</duration>
        <type>eighth</type>
        <lyric>
          <text />
        </lyric>
      </note>
      <note>
        
        <pitch>
          <step>G</step>
          <octave>5</octave>
        </pitch>
        <duration>48</duration>
        <type>eighth</type>
        <lyric>
          <text />
        </lyric>
      </note>
    </measure>
    <measure number="6-0">
      <attributes />
      <note>
        
        <grace steal-time-previous="10" />
        <pitch>
          <step>A</step>
          <octave>5</octave>
        </pitch>
        <lyric>
          <text />
        </lyric>
      </note>
      <note>
        
        <pitch>
          <step>G</step>
          <octave>5</octave>
        </pitch>
        <duration>48</duration>
        <type>eighth</type>
        <lyric>
          <syllabic>end</syllabic>
          <text>i </text>
        </lyric>
      </note>
      <note>
        
        <pitch>
          <step>F</step>
          <alter>+0.5</alter>
          <octave>5</octave>
        </pitch>
        <duration>48</duration>
        <type>eighth</type>
        <accidental>quarter-sharp</accidental>
        <lyric>
          <text />
        </lyric>
      </note>
      <note>
        
        <pitch>
          <step>E</step>
          <octave>5</octave>
        </pitch>
        <duration>48</duration>
        <type>eighth</type>
        <lyric>
          <syllabic>begin</syllabic>
          <text>vi</text>
        </lyric>
      </note>
      <note>
        
        <pitch>
          <step>E</step>
          <octave>5</octave>
        </pitch>
        <duration>48</duration>
        <type>eighth</type>
        <lyric>
          <syllabic>end</syllabic>
          <text>s&#226;</text>
        </lyric>
      </note>
      <note>
        
        <pitch>
          <step>D</step>
          <octave>5</octave>
        </pitch>
        <duration>48</duration>
        <type>eighth</type>
        <lyric>
          <text />
        </lyric>
      </note>
      <note>
        
        <grace steal-time-previous="10" />
        <pitch>
          <step>E</step>
          <octave>5</octave>
        </pitch>
        <lyric>
          <text />
        </lyric>
      </note>
      <note>
        
        <pitch>
          <step>D</step>
          <octave>5</octave>
        </pitch>
        <duration>48</duration>
        <type>eighth</type>
        <lyric>
          <syllabic>single</syllabic>
          <text>le </text>
        </lyric>
      </note>
      <note>
        
        <pitch>
          <step>C</step>
          <octave>5</octave>
        </pitch>
        <duration>48</duration>
        <type>eighth</type>
        <lyric>
          <text />
        </lyric>
      </note>
      <note>
        
        <pitch>
          <step>B</step>
          <alter>-0.5</alter>
          <octave>4</octave>
        </pitch>
        <duration>48</duration>
        <type>eighth</type>
        <accidental>quarter-flat</accidental>
        <lyric>
          <text />
        </lyric>
      </note>
    </measure>
    <measure number="7-0">
      <attributes />
      <note>
        
        <pitch>
          <step>D</step>
          <octave>5</octave>
        </pitch>
        <duration>48</duration>
        <type>eighth</type>
        <lyric>
          <syllabic>begin</syllabic>
          <text>ya&#287;</text>
        </lyric>
      </note>
      <note>
        
        <pitch>
          <step>C</step>
          <octave>5</octave>
        </pitch>
        <duration>48</duration>
        <type>eighth</type>
        <lyric>
          <text />
        </lyric>
      </note>
      <note>
        
        <pitch>
          <step>D</step>
          <octave>5</octave>
        </pitch>
        <duration>48</duration>
        <type>eighth</type>
        <lyric>
          <text />
        </lyric>
      </note>
      <note>
        
        <pitch>
          <step>F</step>
          <octave>5</octave>
        </pitch>
        <duration>48</duration>
        <type>eighth</type>
        <lyric>
          <text />
        </lyric>
      </note>
      <note>
        
        <pitch>
          <step>E</step>
          <octave>5</octave>
        </pitch>
        <duration>48</duration>
        <type>eighth</type>
        <lyric>
          <text />
        </lyric>
      </note>
      <note>
        
        <pitch>
          <step>D</step>
          <octave>5</octave>
        </pitch>
        <duration>96</duration>
        <type>quarter</type>
        <lyric>
          <text />
        </lyric>
      </note>
      <note>
        
        <pitch>
          <step>B</step>
          <alter>-0.5</alter>
          <octave>4</octave>
        </pitch>
        <duration>48</duration>
        <type>eighth</type>
        <accidental>quarter-flat</accidental>
        <lyric>
          <syllabic>end</syllabic>
          <text>ma </text>
        </lyric>
      </note>
    </measure>
    <measure number="8-0">
      <attributes />
      <note>
        
        <pitch>
          <step>C</step>
          <octave>5</octave>
        </pitch>
        <duration>96</duration>
        <type>quarter</type>
        <lyric>
          <syllabic>single</syllabic>
          <text>yok  </text>
          <end-line />
        </lyric>
      </note>
      <note>
        
        <pitch>
          <step>D</step>
          <octave>5</octave>
        </pitch>
        <duration>48</duration>
        <type>eighth</type>
        <lyric>
          <text />
        </lyric>
      </note>
      <note>
        
        <grace steal-time-previous="10" />
        <pitch>
          <step>E</step>
          <octave>5</octave>
        </pitch>
        <lyric>
          <text />
        </lyric>
      </note>
      <note>
        
        <pitch>
          <step>D</step>
          <octave>5</octave>
        </pitch>
        <duration>48</duration>
        <type>eighth</type>
        <lyric>
          <text />
        </lyric>
      </note>
      <note>
        
        <pitch>
          <step>C</step>
          <octave>5</octave>
        </pitch>
        <duration>48</duration>
        <type>eighth</type>
        <lyric>
          <text />
        </lyric>
      </note>
      <note>
        
        <pitch>
          <step>C</step>
          <octave>5</octave>
        </pitch>
        <duration>96</duration>
        <type>quarter</type>
        <notations>
          <ornaments>
            <tremolo type="single">2</tremolo>
          </ornaments>
        </notations>
        <lyric>
          <text />
        </lyric>
      </note>
      <note>
        
        <pitch>
          <step>B</step>
          <alter>-0.5</alter>
          <octave>4</octave>
        </pitch>
        <duration>48</duration>
        <type>eighth</type>
        <accidental>quarter-flat</accidental>
        <lyric>
          <text />
        </lyric>
      </note>
    </measure>
    <measure number="9-0">
      <attributes />
      <note>
        
        <pitch>
          <step>C</step>
          <octave>5</octave>
        </pitch>
        <duration>48</duration>
        <type>eighth</type>
        <lyric name="VOCAL_SECTION">
          <syllabic>begin</syllabic>
          <text>Ya&#287;</text>
        </lyric>
      </note>
      <note>
        
        <pitch>
          <step>B</step>
          <alter>-0.5</alter>
          <octave>4</octave>
        </pitch>
        <duration>48</duration>
        <type>eighth</type>
        <accidental>quarter-flat</accidental>
        <lyric>
          <text />
        </lyric>
      </note>
      <note>
        
        <pitch>
          <step>C</step>
          <octave>5</octave>
        </pitch>
        <duration>48</duration>
        <type>eighth</type>
        <lyric>
          <syllabic>end</syllabic>
          <text>ma </text>
        </lyric>
      </note>
      <note>
        
        <pitch>
          <step>D</step>
          <octave>5</octave>
        </pitch>
        <duration>96</duration>
        <type>quarter</type>
        <lyric>
          <syllabic>single</syllabic>
          <text>yok </text>
        </lyric>
      </note>
      <note>
        
        <pitch>
          <step>E</step>
          <octave>5</octave>
        </pitch>
        <duration>96</duration>
        <type>quarter</type>
        <lyric>
          <syllabic>begin</syllabic>
          <text>h&#226;n_</text>
        </lyric>
      </note>
      <note>
        
        <pitch>
          <step>D</step>
          <octave>5</octave>
        </pitch>
        <duration>48</duration>
        <type>eighth</type>
        <lyric>
          <text />
        </lyric>
      </note>
    </measure>
    <measure number="10-0">
      <attributes />
      <note>
        
        <pitch>
          <step>G</step>
          <octave>5</octave>
        </pitch>
        <duration>96</duration>
        <type>quarter</type>
        <lyric>
          <syllabic>end</syllabic>
          <text>i </text>
        </lyric>
      </note>
      <note>
        
        <pitch>
          <step>F</step>
          <octave>5</octave>
        </pitch>
        <duration>24</duration>
        <type>16th</type>
        <lyric>
          <syllabic>begin</syllabic>
          <text>vi</text>
        </lyric>
      </note>
      <note>
        
        <pitch>
          <step>E</step>
          <octave>5</octave>
        </pitch>
        <duration>24</duration>
        <type>16th</type>
        <lyric>
          <text />
        </lyric>
      </note>
      <note>
        
        <pitch>
          <step>E</step>
          <octave>5</octave>
        </pitch>
        <duration>36</duration>
        <type>16th</type>
        <dot />
        <lyric>
          <syllabic>end</syllabic>
          <text>s&#226;</text>
        </lyric>
      </note>
      <note>
        
        <pitch>
          <step>F</step>
          <octave>5</octave>
        </pitch>
        <duration>12</duration>
        <type>32nd</type>
        <lyric>
          <text />
        </lyric>
      </note>
      <note>
        
        <pitch>
          <step>E</step>
          <octave>5</octave>
        </pitch>
        <duration>24</duration>
        <type>16th</type>
        <lyric>
          <text />
        </lyric>
      </note>
      <note>
        
        <pitch>
          <step>D</step>
          <octave>5</octave>
        </pitch>
        <duration>24</duration>
        <type>16th</type>
        <lyric>
          <text />
        </lyric>
      </note>
      <note>
        
        <pitch>
          <step>D</step>
          <octave>5</octave>
        </pitch>
        <duration>48</duration>
        <type>eighth</type>
        <lyric>
          <syllabic>single</syllabic>
          <text>le </text>
        </lyric>
      </note>
      <note>
        
        <pitch>
          <step>C</step>
          <octave>5</octave>
        </pitch>
        <duration>48</duration>
        <type>eighth</type>
        <lyric>
          <text />
        </lyric>
      </note>
      <note>
        
        <pitch>
          <step>B</step>
          <alter>-0.5</alter>
          <octave>4</octave>
        </pitch>
        <duration>48</duration>
        <type>eighth</type>
        <accidental>quarter-flat</accidental>
        <lyric>
          <text />
        </lyric>
      </note>
    </measure>
    <measure number="11-0">
      <attributes />
      <note>
        
        <pitch>
          <step>C</step>
          <octave>5</octave>
        </pitch>
        <duration>24</duration>
        <type>16th</type>
        <lyric>
          <syllabic>begin</syllabic>
          <text>ya&#287;</text>
        </lyric>
      </note>
      <note>
        
        <pitch>
          <step>D</step>
          <octave>5</octave>
        </pitch>
        <duration>24</duration>
        <type>16th</type>
        <lyric>
          <text />
        </lyric>
      </note>
      <note>
        
        <pitch>
          <step>C</step>
          <octave>5</octave>
        </pitch>
        <duration>48</duration>
        <type>eighth</type>
        <lyric>
          <text />
        </lyric>
      </note>
      <note>
        
        <pitch>
          <step>D</step>
          <octave>5</octave>
        </pitch>
        <duration>48</duration>
        <type>eighth</type>
        <lyric>
          <text />
        </lyric>
      </note>
      <note>
        
        <pitch>
          <step>E</step>
          <octave>5</octave>
        </pitch>
        <duration>48</duration>
        <type>eighth</type>
        <lyric>
          <text />
        </lyric>
      </note>
      <note>
        
        <pitch>
          <step>D</step>
          <octave>5</octave>
        </pitch>
        <duration>48</duration>
        <type>eighth</type>
        <lyric>
          <text />
        </lyric>
      </note>
      <note>
        
        <pitch>
          <step>D</step>
          <octave>5</octave>
        </pitch>
        <duration>72</duration>
        <type>eighth</type>
        <dot />
        <lyric>
          <text />
        </lyric>
      </note>
      <note>
        
        <pitch>
          <step>C</step>
          <octave>5</octave>
        </pitch>
        <duration>24</duration>
        <type>16th</type>
        <lyric>
          <text />
        </lyric>
      </note>
      <note>
        
        <pitch>
          <step>B</step>
          <alter>-0.5</alter>
          <octave>4</octave>
        </pitch>
        <duration>48</duration>
        <type>eighth</type>
        <accidental>quarter-flat</accidental>
        <lyric>
          <syllabic>end</syllabic>
          <text>ma </text>
        </lyric>
      </note>
    </measure>
    <measure number="12-0">
      <attributes />
      <note>
        
        <pitch>
          <step>B</step>
          <alter>-0.5</alter>
          <octave>4</octave>
        </pitch>
        <duration>48</duration>
        <type>eighth</type>
        <accidental>quarter-flat</accidental>
        <lyric>
          <syllabic>single</syllabic>
          <text>yok  </text>
          <end-line />
        </lyric>
      </note>
      <note>
        
        <pitch>
          <step>A</step>
          <octave>4</octave>
        </pitch>
        <duration>48</duration>
        <type>eighth</type>
        <lyric>
          <text />
        </lyric>
      </note>
      <note>
        
        <grace steal-time-previous="10" />
        <pitch>
          <step>C</step>
          <octave>5</octave>
        </pitch>
        <lyric>
          <text />
        </lyric>
      </note>
      <note>
        
        <pitch>
          <step>B</step>
          <alter>-0.5</alter>
          <octave>4</octave>
        </pitch>
        <duration>24</duration>
        <type>16th</type>
        <accidental>quarter-flat</accidental>
        <lyric>
          <text />
        </lyric>
      </note>
      <note>
        
        <pitch>
          <step>A</step>
          <octave>4</octave>
        </pitch>
        <duration>24</duration>
        <type>16th</type>
        <lyric>
          <text />
        </lyric>
      </note>
      <note>
        
        <pitch>
          <step>A</step>
          <octave>4</octave>
        </pitch>
        <duration>96</duration>
        <type>quarter</type>
        <lyric>
          <text />
        </lyric>
      </note>
      <note>
        
        
        <pitch>
          <step>C</step>
          <octave>5</octave>
        </pitch>
        <duration>144</duration>
        <type>quarter</type>
        <dot />
        <lyric name="SAZ">
          <text>SAZ</text>
        </lyric>
      </note>
    </measure>
    <measure number="13-0">
      <attributes />
      <note>
        
        <pitch>
          <step>G</step>
          <octave>4</octave>
        </pitch>
        <duration>96</duration>
        <type>quarter</type>
        <lyric name="VOCAL_SECTION">
          <syllabic>begin</syllabic>
          <text>Ey</text>
        </lyric>
      </note>
      <note>
        
        <pitch>
          <step>C</step>
          <octave>5</octave>
        </pitch>
        <duration>48</duration>
        <type>eighth</type>
        <lyric>
          <syllabic>end</syllabic>
          <text>le</text>
        </lyric>
      </note>
      <note>
        
        <pitch>
          <step>C</step>
          <octave>5</octave>
        </pitch>
        <duration>96</duration>
        <type>quarter</type>
        <lyric>
          <syllabic>single</syllabic>
          <text>me </text>
        </lyric>
      </note>
      <note>
        
        <pitch>
          <step>C</step>
          <octave>5</octave>
        </pitch>
        <duration>96</duration>
        <type>quarter</type>
        <lyric>
          <syllabic>begin</syllabic>
          <text>bey</text>
        </lyric>
      </note>
      <note>
        
        <pitch>
          <step>B</step>
          <alter>-0.5</alter>
          <octave>4</octave>
        </pitch>
        <duration>48</duration>
        <type>eighth</type>
        <accidental>quarter-flat</accidental>
        <lyric>
          <text />
        </lyric>
      </note>
    </measure>
    <measure number="14-0">
      <attributes />
      <note>
        
        <pitch>
          <step>B</step>
          <alter>-0.5</alter>
          <octave>4</octave>
        </pitch>
        <duration>96</duration>
        <type>quarter</type>
        <accidental>quarter-flat</accidental>
        <lyric>
          <syllabic>end</syllabic>
          <text>h&#251;</text>
        </lyric>
      </note>
      <note>
        
        <pitch>
          <step>A</step>
          <octave>4</octave>
        </pitch>
        <duration>48</duration>
        <type>eighth</type>
        <lyric>
          <syllabic>single</syllabic>
          <text>de </text>
        </lyric>
      </note>
      <note>
        
        <pitch>
          <step>B</step>
          <alter>-0.5</alter>
          <octave>4</octave>
        </pitch>
        <duration>48</duration>
        <type>eighth</type>
        <accidental>quarter-flat</accidental>
        <lyric>
          <syllabic>begin</syllabic>
          <text>n&#226;</text>
        </lyric>
      </note>
      <note>
        
        <pitch>
          <step>C</step>
          <octave>5</octave>
        </pitch>
        <duration>48</duration>
        <type>eighth</type>
        <lyric>
          <text />
        </lyric>
      </note>
      <note>
        
        <pitch>
          <step>A</step>
          <octave>4</octave>
        </pitch>
        <duration>96</duration>
        <type>quarter</type>
        <lyric>
          <syllabic>end</syllabic>
          <text>le </text>
        </lyric>
      </note>
      <note>
        
        <rest />
        <duration>48</duration>
        <type>eighth</type>
        <lyric>
          <text />
        </lyric>
      </note>
    </measure>
    <measure number="15-0">
      <attributes />
      <note>
        
        <pitch>
          <step>G</step>
          <octave>5</octave>
        </pitch>
        <duration>48</duration>
        <type>eighth</type>
        <lyric>
          <syllabic>begin</syllabic>
          <text>ya&#287;</text>
        </lyric>
      </note>
      <note>
        
        <pitch>
          <step>F</step>
          <alter>+1</alter>
          <octave>5</octave>
        </pitch>
        <duration>48</duration>
        <type>eighth</type>
        <accidental>sharp</accidental>
        <lyric>
          <text />
        </lyric>
      </note>
      <note>
        
        <pitch>
          <step>G</step>
          <octave>5</octave>
        </pitch>
        <duration>48</duration>
        <type>eighth</type>
        <lyric>
          <text />
        </lyric>
      </note>
      <note>
        
        <pitch>
          <step>A</step>
          <octave>5</octave>
        </pitch>
        <duration>48</duration>
        <type>eighth</type>
        <lyric>
          <text />
        </lyric>
      </note>
      <note>
        
        <pitch>
          <step>G</step>
          <octave>5</octave>
        </pitch>
        <duration>48</duration>
        <type>eighth</type>
        <lyric>
          <text />
        </lyric>
      </note>
      <note>
        
        <pitch>
          <step>F</step>
          <alter>+0.5</alter>
          <octave>5</octave>
        </pitch>
        <duration>48</duration>
        <type>eighth</type>
        <accidental>quarter-sharp</accidental>
        <lyric>
          <text />
        </lyric>
      </note>
      <note>
        
        <pitch>
          <step>E</step>
          <octave>5</octave>
        </pitch>
        <duration>48</duration>
        <type>eighth</type>
        <lyric>
          <text />
        </lyric>
      </note>
      <note>
        
        <pitch>
          <step>D</step>
          <octave>5</octave>
        </pitch>
        <duration>48</duration>
        <type>eighth</type>
        <lyric>
          <syllabic>end</syllabic>
          <text>ma </text>
        </lyric>
      </note>
    </measure>
    <measure number="16-0">
      <attributes />
      <note>
        
        <grace steal-time-previous="10" />
        <pitch>
          <step>D</step>
          <octave>5</octave>
        </pitch>
        <lyric>
          <text />
        </lyric>
      </note>
      <note>
        
        <pitch>
          <step>E</step>
          <octave>5</octave>
        </pitch>
        <duration>48</duration>
        <type>eighth</type>
        <lyric>
          <syllabic>single</syllabic>
          <text>yok  </text>
          <end-line />
        </lyric>
      </note>
      <note>
        
        <pitch>
          <step>D</step>
          <octave>5</octave>
        </pitch>
        <duration>48</duration>
        <type>eighth</type>
        <lyric>
          <text />
        </lyric>
      </note>
      <note>
        
        <pitch>
          <step>C</step>
          <octave>5</octave>
        </pitch>
        <duration>48</duration>
        <type>eighth</type>
        <lyric>
          <text />
        </lyric>
      </note>
      <note>
        
        <pitch>
          <step>D</step>
          <octave>5</octave>
        </pitch>
        <duration>96</duration>
        <type>quarter</type>
        <lyric>
          <text />
        </lyric>
      </note>
      <note>
        
        <pitch>
          <step>D</step>
          <octave>5</octave>
        </pitch>
        <duration>96</duration>
        <type>quarter</type>
        <lyric>
          <text />
        </lyric>
      </note>
      <note>
        
        <rest />
        <duration>48</duration>
        <type>eighth</type>
        <lyric>
          <text />
        </lyric>
      </note>
    </measure>
    <measure number="17-0">
      <attributes />
      <note>
        
        <pitch>
          <step>D</step>
          <octave>5</octave>
        </pitch>
        <duration>48</duration>
        <type>eighth</type>
        <lyric name="VOCAL_SECTION">
          <syllabic>begin</syllabic>
          <text>Ya&#287;</text>
        </lyric>
      </note>
      <note>
        
        <pitch>
          <step>C</step>
          <octave>5</octave>
        </pitch>
        <duration>48</duration>
        <type>eighth</type>
        <lyric>
          <text />
        </lyric>
      </note>
      <note>
        
        <pitch>
          <step>D</step>
          <octave>5</octave>
        </pitch>
        <duration>48</duration>
        <type>eighth</type>
        <lyric>
          <syllabic>end</syllabic>
          <text>ma </text>
        </lyric>
      </note>
      <note>
        
        <pitch>
          <step>E</step>
          <octave>5</octave>
        </pitch>
        <duration>48</duration>
        <type>eighth</type>
        <lyric>
          <syllabic>single</syllabic>
          <text>yok </text>
        </lyric>
      </note>
      <note>
        
        <pitch>
          <step>F</step>
          <alter>+1</alter>
          <octave>5</octave>
        </pitch>
        <duration>48</duration>
        <type>eighth</type>
        <accidental>sharp</accidental>
        <lyric>
          <text />
        </lyric>
      </note>
      <note>
        
        <pitch>
          <step>G</step>
          <octave>5</octave>
        </pitch>
        <duration>48</duration>
        <type>eighth</type>
        <lyric>
          <syllabic>begin</syllabic>
          <text>h&#226;n_</text>
        </lyric>
      </note>
      <note>
        
        <pitch>
          <step>A</step>
          <octave>5</octave>
        </pitch>
        <duration>48</duration>
        <type>eighth</type>
        <lyric>
          <text />
        </lyric>
      </note>
      <note>
        
        <pitch>
          <step>G</step>
          <octave>5</octave>
        </pitch>
        <duration>48</duration>
        <type>eighth</type>
        <lyric>
          <text />
        </lyric>
      </note>
    </measure>
    <measure number="18-0">
      <attributes />
      <note>
        
        <grace steal-time-previous="10" />
        <pitch>
          <step>A</step>
          <octave>5</octave>
        </pitch>
        <lyric>
          <text />
        </lyric>
      </note>
      <note>
        
        <pitch>
          <step>G</step>
          <octave>5</octave>
        </pitch>
        <duration>48</duration>
        <type>eighth</type>
        <lyric>
          <syllabic>end</syllabic>
          <text>i </text>
        </lyric>
      </note>
      <note>
        
        <pitch>
          <step>F</step>
          <alter>+0.5</alter>
          <octave>5</octave>
        </pitch>
        <duration>48</duration>
        <type>eighth</type>
        <accidental>quarter-sharp</accidental>
        <lyric>
          <text />
        </lyric>
      </note>
      <note>
        
        <pitch>
          <step>E</step>
          <octave>5</octave>
        </pitch>
        <duration>48</duration>
        <type>eighth</type>
        <lyric>
          <syllabic>begin</syllabic>
          <text>vi</text>
        </lyric>
      </note>
      <note>
        
        <pitch>
          <step>E</step>
          <octave>5</octave>
        </pitch>
        <duration>48</duration>
        <type>eighth</type>
        <lyric>
          <syllabic>end</syllabic>
          <text>s&#226;</text>
        </lyric>
      </note>
      <note>
        
        <pitch>
          <step>D</step>
          <octave>5</octave>
        </pitch>
        <duration>48</duration>
        <type>eighth</type>
        <lyric>
          <text />
        </lyric>
      </note>
      <note>
        
        <grace steal-time-previous="10" />
        <pitch>
          <step>E</step>
          <octave>5</octave>
        </pitch>
        <lyric>
          <text />
        </lyric>
      </note>
      <note>
        
        <pitch>
          <step>D</step>
          <octave>5</octave>
        </pitch>
        <duration>48</duration>
        <type>eighth</type>
        <lyric>
          <syllabic>single</syllabic>
          <text>le </text>
        </lyric>
      </note>
      <note>
        
        <pitch>
          <step>C</step>
          <octave>5</octave>
        </pitch>
        <duration>48</duration>
        <type>eighth</type>
        <lyric>
          <text />
        </lyric>
      </note>
      <note>
        
        <pitch>
          <step>B</step>
          <alter>-0.5</alter>
          <octave>4</octave>
        </pitch>
        <duration>48</duration>
        <type>eighth</type>
        <accidental>quarter-flat</accidental>
        <lyric>
          <text />
        </lyric>
      </note>
    </measure>
    <measure number="19-0">
      <attributes />
      <note>
        
        <pitch>
          <step>D</step>
          <octave>5</octave>
        </pitch>
        <duration>48</duration>
        <type>eighth</type>
        <lyric>
          <syllabic>begin</syllabic>
          <text>ya&#287;</text>
        </lyric>
      </note>
      <note>
        
        <pitch>
          <step>C</step>
          <octave>5</octave>
        </pitch>
        <duration>48</duration>
        <type>eighth</type>
        <lyric>
          <text />
        </lyric>
      </note>
      <note>
        
        <pitch>
          <step>D</step>
          <octave>5</octave>
        </pitch>
        <duration>48</duration>
        <type>eighth</type>
        <lyric>
          <text />
        </lyric>
      </note>
      <note>
        
        <pitch>
          <step>F</step>
          <octave>5</octave>
        </pitch>
        <duration>48</duration>
        <type>eighth</type>
        <lyric>
          <text />
        </lyric>
      </note>
      <note>
        
        <pitch>
          <step>E</step>
          <octave>5</octave>
        </pitch>
        <duration>48</duration>
        <type>eighth</type>
        <lyric>
          <text />
        </lyric>
      </note>
      <note>
        
        <pitch>
          <step>D</step>
          <octave>5</octave>
        </pitch>
        <duration>96</duration>
        <type>quarter</type>
        <lyric>
          <text />
        </lyric>
      </note>
      <note>
        
        <pitch>
          <step>B</step>
          <alter>-0.5</alter>
          <octave>4</octave>
        </pitch>
        <duration>48</duration>
        <type>eighth</type>
        <accidental>quarter-flat</accidental>
        <lyric>
          <syllabic>end</syllabic>
          <text>ma </text>
        </lyric>
      </note>
    </measure>
    <measure number="20-0">
      <attributes />
      <note>
        
        <pitch>
          <step>C</step>
          <octave>5</octave>
        </pitch>
        <duration>96</duration>
        <type>quarter</type>
        <lyric>
          <syllabic>single</syllabic>
          <text>yok  </text>
          <end-line />
        </lyric>
      </note>
      <note>
        
        <pitch>
          <step>D</step>
          <octave>5</octave>
        </pitch>
        <duration>48</duration>
        <type>eighth</type>
        <lyric>
          <text />
        </lyric>
      </note>
      <note>
        
        <grace steal-time-previous="10" />
        <pitch>
          <step>E</step>
          <octave>5</octave>
        </pitch>
        <lyric>
          <text />
        </lyric>
      </note>
      <note>
        
        <pitch>
          <step>D</step>
          <octave>5</octave>
        </pitch>
        <duration>48</duration>
        <type>eighth</type>
        <lyric>
          <text />
        </lyric>
      </note>
      <note>
        
        <pitch>
          <step>C</step>
          <octave>5</octave>
        </pitch>
        <duration>48</duration>
        <type>eighth</type>
        <lyric>
          <text />
        </lyric>
      </note>
      <note>
        
        <pitch>
          <step>C</step>
          <octave>5</octave>
        </pitch>
        <duration>96</duration>
        <type>quarter</type>
        <notations>
          <ornaments>
            <tremolo type="single">2</tremolo>
          </ornaments>
        </notations>
        <lyric>
          <text />
        </lyric>
      </note>
      <note>
        
        <pitch>
          <step>B</step>
          <alter>-0.5</alter>
          <octave>4</octave>
        </pitch>
        <duration>48</duration>
        <type>eighth</type>
        <accidental>quarter-flat</accidental>
        <lyric>
          <text />
        </lyric>
      </note>
    </measure>
    <measure number="21-0">
      <attributes />
      <note>
        
        <pitch>
          <step>C</step>
          <octave>5</octave>
        </pitch>
        <duration>48</duration>
        <type>eighth</type>
        <lyric name="VOCAL_SECTION">
          <syllabic>begin</syllabic>
          <text>Ya&#287;</text>
        </lyric>
      </note>
      <note>
        
        <pitch>
          <step>B</step>
          <alter>-0.5</alter>
          <octave>4</octave>
        </pitch>
        <duration>48</duration>
        <type>eighth</type>
        <accidental>quarter-flat</accidental>
        <lyric>
          <text />
        </lyric>
      </note>
      <note>
        
        <pitch>
          <step>C</step>
          <octave>5</octave>
        </pitch>
        <duration>48</duration>
        <type>eighth</type>
        <lyric>
          <syllabic>end</syllabic>
          <text>ma </text>
        </lyric>
      </note>
      <note>
        
        <pitch>
          <step>D</step>
          <octave>5</octave>
        </pitch>
        <duration>96</duration>
        <type>quarter</type>
        <lyric>
          <syllabic>single</syllabic>
          <text>yok </text>
        </lyric>
      </note>
      <note>
        
        <pitch>
          <step>E</step>
          <octave>5</octave>
        </pitch>
        <duration>96</duration>
        <type>quarter</type>
        <lyric>
          <syllabic>begin</syllabic>
          <text>h&#226;n_</text>
        </lyric>
      </note>
      <note>
        
        <pitch>
          <step>D</step>
          <octave>5</octave>
        </pitch>
        <duration>48</duration>
        <type>eighth</type>
        <lyric>
          <text />
        </lyric>
      </note>
    </measure>
    <measure number="22-0">
      <attributes />
      <note>
        
        <pitch>
          <step>G</step>
          <octave>5</octave>
        </pitch>
        <duration>96</duration>
        <type>quarter</type>
        <lyric>
          <syllabic>end</syllabic>
          <text>i </text>
        </lyric>
      </note>
      <note>
        
        <pitch>
          <step>F</step>
          <octave>5</octave>
        </pitch>
        <duration>24</duration>
        <type>16th</type>
        <lyric>
          <syllabic>begin</syllabic>
          <text>vi</text>
        </lyric>
      </note>
      <note>
        
        <pitch>
          <step>E</step>
          <octave>5</octave>
        </pitch>
        <duration>24</duration>
        <type>16th</type>
        <lyric>
          <text />
        </lyric>
      </note>
      <note>
        
        <pitch>
          <step>E</step>
          <octave>5</octave>
        </pitch>
        <duration>36</duration>
        <type>16th</type>
        <dot />
        <lyric>
          <syllabic>end</syllabic>
          <text>s&#226;</text>
        </lyric>
      </note>
      <note>
        
        <pitch>
          <step>F</step>
          <octave>5</octave>
        </pitch>
        <duration>12</duration>
        <type>32nd</type>
        <lyric>
          <text />
        </lyric>
      </note>
      <note>
        
        <pitch>
          <step>E</step>
          <octave>5</octave>
        </pitch>
        <duration>24</duration>
        <type>16th</type>
        <lyric>
          <text />
        </lyric>
      </note>
      <note>
        
        <pitch>
          <step>D</step>
          <octave>5</octave>
        </pitch>
        <duration>24</duration>
        <type>16th</type>
        <lyric>
          <text />
        </lyric>
      </note>
      <note>
        
        <pitch>
          <step>D</step>
          <octave>5</octave>
        </pitch>
        <duration>48</duration>
        <type>eighth</type>
        <lyric>
          <syllabic>single</syllabic>
          <text>le </text>
        </lyric>
      </note>
      <note>
        
        <pitch>
          <step>C</step>
          <octave>5</octave>
        </pitch>
        <duration>48</duration>
        <type>eighth</type>
        <lyric>
          <text />
        </lyric>
      </note>
      <note>
        
        <pitch>
          <step>B</step>
          <alter>-0.5</alter>
          <octave>4</octave>
        </pitch>
        <duration>48</duration>
        <type>eighth</type>
        <accidental>quarter-flat</accidental>
        <lyric>
          <text />
        </lyric>
      </note>
    </measure>
    <measure number="23-0">
      <attributes />
      <note>
        
        <pitch>
          <step>C</step>
          <octave>5</octave>
        </pitch>
        <duration>24</duration>
        <type>16th</type>
        <lyric>
          <syllabic>begin</syllabic>
          <text>ya&#287;</text>
        </lyric>
      </note>
      <note>
        
        <pitch>
          <step>D</step>
          <octave>5</octave>
        </pitch>
        <duration>24</duration>
        <type>16th</type>
        <lyric>
          <text />
        </lyric>
      </note>
      <note>
        
        <pitch>
          <step>C</step>
          <octave>5</octave>
        </pitch>
        <duration>48</duration>
        <type>eighth</type>
        <lyric>
          <text />
        </lyric>
      </note>
      <note>
        
        <pitch>
          <step>D</step>
          <octave>5</octave>
        </pitch>
        <duration>48</duration>
        <type>eighth</type>
        <lyric>
          <text />
        </lyric>
      </note>
      <note>
        
        <pitch>
          <step>E</step>
          <octave>5</octave>
        </pitch>
        <duration>48</duration>
        <type>eighth</type>
        <lyric>
          <text />
        </lyric>
      </note>
      <note>
        
        <pitch>
          <step>D</step>
          <octave>5</octave>
        </pitch>
        <duration>48</duration>
        <type>eighth</type>
        <lyric>
          <text />
        </lyric>
      </note>
      <note>
        
        <pitch>
          <step>D</step>
          <octave>5</octave>
        </pitch>
        <duration>72</duration>
        <type>eighth</type>
        <dot />
        <lyric>
          <text />
        </lyric>
      </note>
      <note>
        
        <pitch>
          <step>C</step>
          <octave>5</octave>
        </pitch>
        <duration>24</duration>
        <type>16th</type>
        <lyric>
          <text />
        </lyric>
      </note>
      <note>
        
        <pitch>
          <step>B</step>
          <alter>-0.5</alter>
          <octave>4</octave>
        </pitch>
        <duration>48</duration>
        <type>eighth</type>
        <accidental>quarter-flat</accidental>
        <lyric>
          <syllabic>end</syllabic>
          <text>ma </text>
        </lyric>
      </note>
    </measure>
    <measure number="24-0">
      <attributes />
      <note>
        
        <pitch>
          <step>B</step>
          <alter>-0.5</alter>
          <octave>4</octave>
        </pitch>
        <duration>48</duration>
        <type>eighth</type>
        <accidental>quarter-flat</accidental>
        <lyric>
          <syllabic>single</syllabic>
          <text>yok  </text>
          <end-line />
        </lyric>
      </note>
      <note>
        
        <pitch>
          <step>A</step>
          <octave>4</octave>
        </pitch>
        <duration>48</duration>
        <type>eighth</type>
        <lyric>
          <text />
        </lyric>
      </note>
      <note>
        
        <grace steal-time-previous="10" />
        <pitch>
          <step>C</step>
          <octave>5</octave>
        </pitch>
        <lyric>
          <text />
        </lyric>
      </note>
      <note>
        
        <pitch>
          <step>B</step>
          <alter>-0.5</alter>
          <octave>4</octave>
        </pitch>
        <duration>24</duration>
        <type>16th</type>
        <accidental>quarter-flat</accidental>
        <lyric>
          <text />
        </lyric>
      </note>
      <note>
        
        <pitch>
          <step>A</step>
          <octave>4</octave>
        </pitch>
        <duration>24</duration>
        <type>16th</type>
        <lyric>
          <text />
        </lyric>
      </note>
      <note>
        
        <pitch>
          <step>A</step>
          <octave>4</octave>
        </pitch>
        <duration>96</duration>
        <type>quarter</type>
        <lyric>
          <text />
        </lyric>
      </note>
    </measure>
  </part>
</score-partwise>