<score-partwise version="3.0">
  <work>
    <work-title>Kametin Serv-I Seh&#238;dir</work-title>
  </work>
  <identification>
    <creator type="composer">Rifat Efendi (H&#226;f&#305;z-Molla)</creator>
    <creator type="poet">?</creator>
    <encoding>
      <encoder>Burak Uyar</encoder>
      <software>https://github.com/burakuyar/MusicXMLConverter</software>
    </encoding>
    <relation>http://musicbrainz.org/work/1ebc4f36-4e60-4f5c-b181-92d242123d39</relation>
  </identification>
  <part-list>
    <score-part id="P1">
      <part-name>Music</part-name>
    </score-part>
  </part-list>
  <part id="P1">
    <measure number="1-0">
      <direction placement="above">
        <direction-type>
          <metronome>
            <beat-unit>quarter</beat-unit>
            <per-minute>90</per-minute>
          </metronome>
        </direction-type>
        <direction-type>
          <words default-y="35">Makam: K&#252;rd&#238;, Form: Beste, Usul: Muhammes </words>
        </direction-type>
        <sound tempo="90" />
      </direction>
      <attributes>
        <divisions>96</divisions>
        <time>
          <beats>32</beats>
          <beat-type>4</beat-type>
        </time>
      </attributes>
      <note>
        
        <pitch>
          <step>E</step>
          <octave>5</octave>
        </pitch>
        <duration>144</duration>
        <type>quarter</type>
        <dot />
        <lyric name="VOCAL_SECTION">
          <syllabic>begin</syllabic>
          <text>Ka</text>
        </lyric>
      </note>
      <note>
        
        <pitch>
          <step>D</step>
          <octave>5</octave>
        </pitch>
        <duration>48</duration>
        <type>eighth</type>
        <lyric>
          <text />
        </lyric>
      </note>
      <note>
        
        <pitch>
          <step>C</step>
          <octave>5</octave>
        </pitch>
        <duration>96</duration>
        <type>quarter</type>
        <lyric>
          <text />
        </lyric>
      </note>
      <note>
        
        <pitch>
          <step>D</step>
          <octave>5</octave>
        </pitch>
        <duration>96</duration>
        <type>quarter</type>
        <lyric>
          <syllabic>end</syllabic>
          <text>me</text>
        </lyric>
      </note>
      <note>
        
        <pitch>
          <step>E</step>
          <octave>5</octave>
        </pitch>
        <duration>192</duration>
        <type>half</type>
        <lyric>
          <syllabic>single</syllabic>
          <text>tin </text>
        </lyric>
      </note>
      <note>
        
        <pitch>
          <step>E</step>
          <octave>5</octave>
        </pitch>
        <duration>144</duration>
        <type>quarter</type>
        <dot />
        <lyric>
          <syllabic>begin</syllabic>
          <text>serv_</text>
        </lyric>
      </note>
      <note>
        
        <pitch>
          <step>D</step>
          <octave>5</octave>
        </pitch>
        <duration>48</duration>
        <type>eighth</type>
        <lyric>
          <text />
        </lyric>
      </note>
      <note>
        
        <pitch>
          <step>D</step>
          <octave>5</octave>
        </pitch>
        <duration>48</duration>
        <type>eighth</type>
        <lyric>
          <text />
        </lyric>
      </note>
      <note>
        
        <rest />
        <duration>48</duration>
        <type>eighth</type>
        <lyric>
          <text />
        </lyric>
      </note>
      <note>
        
        <pitch>
          <step>A</step>
          <octave>5</octave>
        </pitch>
        <duration>48</duration>
        <type>eighth</type>
        <lyric>
          <syllabic>end</syllabic>
          <text>i </text>
        </lyric>
      </note>
      <note>
        
        <pitch>
          <step>G</step>
          <octave>5</octave>
        </pitch>
        <duration>48</duration>
        <type>eighth</type>
        <lyric>
          <text />
        </lyric>
      </note>
      <note>
        
        <pitch>
          <step>F</step>
          <octave>5</octave>
        </pitch>
        <duration>48</duration>
        <type>eighth</type>
        <lyric>
          <syllabic>begin</syllabic>
          <text>se</text>
        </lyric>
      </note>
      <note>
        
        <pitch>
          <step>E</step>
          <octave>5</octave>
        </pitch>
        <duration>96</duration>
        <type>quarter</type>
        <lyric>
          <text />
        </lyric>
      </note>
      <note>
        
        <pitch>
          <step>D</step>
          <octave>5</octave>
        </pitch>
        <duration>48</duration>
        <type>eighth</type>
        <lyric>
          <text />
        </lyric>
      </note>
      <note>
        
        <pitch>
          <step>D</step>
          <octave>5</octave>
        </pitch>
        <duration>48</duration>
        <type>eighth</type>
        <lyric>
          <syllabic>end</syllabic>
          <text>h&#238;</text>
        </lyric>
      </note>
      <note>
        
        <pitch>
          <step>C</step>
          <octave>5</octave>
        </pitch>
        <duration>96</duration>
        <type>quarter</type>
        <lyric>
          <text />
        </lyric>
      </note>
      <note>
        
        <pitch>
          <step>D</step>
          <octave>5</octave>
        </pitch>
        <duration>48</duration>
        <type>eighth</type>
        <lyric>
          <text />
        </lyric>
      </note>
      <note>
        
        <pitch>
          <step>C</step>
          <octave>5</octave>
        </pitch>
        <duration>48</duration>
        <type>eighth</type>
        <lyric>
          <syllabic>single</syllabic>
          <text>dir </text>
        </lyric>
      </note>
      <note>
        
        <pitch>
          <step>B</step>
          <octave>4</octave>
        </pitch>
        <duration>96</duration>
        <type>quarter</type>
        <lyric>
          <text />
        </lyric>
      </note>
      <note>
        
        <pitch>
          <step>A</step>
          <octave>4</octave>
        </pitch>
        <duration>48</duration>
        <type>eighth</type>
        <lyric>
          <text />
        </lyric>
      </note>
      <note>
        
        <pitch>
          <step>A</step>
          <octave>4</octave>
        </pitch>
        <duration>144</duration>
        <type>quarter</type>
        <dot />
        <lyric>
          <text />
        </lyric>
      </note>
      <note>
        
        <pitch>
          <step>G</step>
          <octave>4</octave>
        </pitch>
        <duration>48</duration>
        <type>eighth</type>
        <lyric>
          <text />
        </lyric>
      </note>
      <note>
        
        <rest />
        <duration>48</duration>
        <type>eighth</type>
        <lyric>
          <text />
        </lyric>
      </note>
      <note>
        
        <pitch>
          <step>A</step>
          <octave>4</octave>
        </pitch>
        <duration>96</duration>
        <type>quarter</type>
        <lyric>
          <syllabic>begin</syllabic>
          <text>&#226;</text>
        </lyric>
      </note>
      <note>
        
        <pitch>
          <step>B</step>
          <alter>-0.5</alter>
          <octave>4</octave>
        </pitch>
        <duration>48</duration>
        <type>eighth</type>
        <accidental>quarter-flat</accidental>
        <lyric>
          <syllabic>end</syllabic>
          <text>r&#305;</text>
        </lyric>
      </note>
      <note>
        
        <pitch>
          <step>C</step>
          <octave>5</octave>
        </pitch>
        <duration>96</duration>
        <type>quarter</type>
        <lyric>
          <syllabic>single</syllabic>
          <text>z&#305;n </text>
        </lyric>
      </note>
      <note>
        
        <grace steal-time-following="10" />
        <pitch>
          <step>E</step>
          <octave>5</octave>
        </pitch>
        <lyric>
          <text />
        </lyric>
      </note>
      <note>
        
        <pitch>
          <step>D</step>
          <octave>5</octave>
        </pitch>
        <duration>48</duration>
        <type>eighth</type>
        <lyric>
          <text />
        </lyric>
      </note>
      <note>
        
        <pitch>
          <step>C</step>
          <octave>5</octave>
        </pitch>
        <duration>48</duration>
        <type>eighth</type>
        <lyric>
          <text />
        </lyric>
      </note>
      <note>
        
        <pitch>
          <step>B</step>
          <alter>-0.5</alter>
          <octave>4</octave>
        </pitch>
        <duration>96</duration>
        <type>quarter</type>
        <accidental>quarter-flat</accidental>
        <lyric>
          <syllabic>begin</syllabic>
          <text>berk_</text>
        </lyric>
      </note>
      <note>
        
        <pitch>
          <step>A</step>
          <octave>4</octave>
        </pitch>
        <duration>96</duration>
        <type>quarter</type>
        <lyric>
          <text />
        </lyric>
      </note>
      <note>
        
        <pitch>
          <step>A</step>
          <octave>4</octave>
        </pitch>
        <duration>48</duration>
        <type>eighth</type>
        <lyric>
          <text />
        </lyric>
      </note>
      <note>
        
        <pitch>
          <step>B</step>
          <alter>-1</alter>
          <octave>4</octave>
        </pitch>
        <duration>96</duration>
        <type>quarter</type>
        <accidental>flat</accidental>
        <lyric>
          <syllabic>end</syllabic>
          <text>i </text>
        </lyric>
      </note>
      <note>
        
        <pitch>
          <step>A</step>
          <octave>4</octave>
        </pitch>
        <duration>48</duration>
        <type>eighth</type>
        <lyric>
          <text />
        </lyric>
      </note>
      <note>
        
        <pitch>
          <step>G</step>
          <octave>4</octave>
        </pitch>
        <duration>96</duration>
        <type>quarter</type>
        <lyric>
          <text />
        </lyric>
      </note>
      <note>
        
        <pitch>
          <step>A</step>
          <octave>4</octave>
        </pitch>
        <duration>96</duration>
        <type>quarter</type>
        <lyric>
          <syllabic>begin</syllabic>
          <text>se</text>
        </lyric>
      </note>
      <note>
        
        <grace steal-time-previous="10" />
        <pitch>
          <step>B</step>
          <octave>4</octave>
        </pitch>
        <lyric>
          <text />
        </lyric>
      </note>
      <note>
        
        <pitch>
          <step>A</step>
          <octave>4</octave>
        </pitch>
        <duration>336</duration>
        <type>half</type>
        <dot />
        <dot />
        <lyric>
          <syllabic>end</syllabic>
          <text>men  </text>
          <end-line />
        </lyric>
      </note>
      <note>
        
        <rest />
        <duration>48</duration>
        <type>eighth</type>
        <lyric>
          <text />
        </lyric>
      </note>
    </measure>
    <measure number="2-0">
      <attributes />
      <note>
        
        <rest />
        <duration>48</duration>
        <type>eighth</type>
        <lyric name="VOCAL_SECTION">
          <text />
        </lyric>
      </note>
      <note>
        
        <pitch>
          <step>E</step>
          <octave>5</octave>
        </pitch>
        <duration>96</duration>
        <type>quarter</type>
        <lyric>
          <syllabic>single</syllabic>
          <text>Y&#226; </text>
        </lyric>
      </note>
      <note>
        
        <pitch>
          <step>F</step>
          <octave>5</octave>
        </pitch>
        <duration>48</duration>
        <type>eighth</type>
        <lyric>
          <text />
        </lyric>
      </note>
      <note>
        
        <pitch>
          <step>E</step>
          <octave>5</octave>
        </pitch>
        <duration>72</duration>
        <type>eighth</type>
        <dot />
        <lyric>
          <syllabic>single</syllabic>
          <text>lel </text>
        </lyric>
      </note>
      <note>
        
        <pitch>
          <step>D</step>
          <octave>5</octave>
        </pitch>
        <duration>24</duration>
        <type>16th</type>
        <lyric>
          <text />
        </lyric>
      </note>
      <note>
        
        <pitch>
          <step>C</step>
          <octave>5</octave>
        </pitch>
        <duration>96</duration>
        <type>quarter</type>
        <lyric>
          <syllabic>single</syllabic>
          <text>li </text>
        </lyric>
      </note>
      <note>
        
        <rest />
        <duration>48</duration>
        <type>eighth</type>
        <lyric>
          <text />
        </lyric>
      </note>
      <note>
        
        <pitch>
          <step>D</step>
          <octave>5</octave>
        </pitch>
        <duration>96</duration>
        <type>quarter</type>
        <lyric>
          <syllabic>single</syllabic>
          <text>y&#226; </text>
        </lyric>
      </note>
      <note>
        
        <pitch>
          <step>E</step>
          <octave>5</octave>
        </pitch>
        <duration>48</duration>
        <type>eighth</type>
        <lyric>
          <text />
        </lyric>
      </note>
      <note>
        
        <pitch>
          <step>D</step>
          <octave>5</octave>
        </pitch>
        <duration>72</duration>
        <type>eighth</type>
        <dot />
        <lyric>
          <syllabic>single</syllabic>
          <text>lel </text>
        </lyric>
      </note>
      <note>
        
        <pitch>
          <step>C</step>
          <octave>5</octave>
        </pitch>
        <duration>24</duration>
        <type>16th</type>
        <lyric>
          <text />
        </lyric>
      </note>
      <note>
        
        <pitch>
          <step>B</step>
          <alter>-0.5</alter>
          <octave>4</octave>
        </pitch>
        <duration>96</duration>
        <type>quarter</type>
        <accidental>quarter-flat</accidental>
        <lyric>
          <syllabic>single</syllabic>
          <text>li </text>
        </lyric>
      </note>
      <note>
        
        <rest />
        <duration>48</duration>
        <type>eighth</type>
        <lyric>
          <text />
        </lyric>
      </note>
      <note>
        
        <pitch>
          <step>C</step>
          <octave>5</octave>
        </pitch>
        <duration>96</duration>
        <type>quarter</type>
        <lyric>
          <syllabic>single</syllabic>
          <text>y&#226; </text>
        </lyric>
      </note>
      <note>
        
        <pitch>
          <step>D</step>
          <octave>5</octave>
        </pitch>
        <duration>48</duration>
        <type>eighth</type>
        <lyric>
          <text />
        </lyric>
      </note>
      <note>
        
        <pitch>
          <step>C</step>
          <octave>5</octave>
        </pitch>
        <duration>72</duration>
        <type>eighth</type>
        <dot />
        <lyric>
          <syllabic>single</syllabic>
          <text>lel </text>
        </lyric>
      </note>
      <note>
        
        <pitch>
          <step>B</step>
          <alter>-0.5</alter>
          <octave>4</octave>
        </pitch>
        <duration>24</duration>
        <type>16th</type>
        <accidental>quarter-flat</accidental>
        <lyric>
          <text />
        </lyric>
      </note>
      <note>
        
        <pitch>
          <step>A</step>
          <octave>4</octave>
        </pitch>
        <duration>96</duration>
        <type>quarter</type>
        <lyric>
          <syllabic>single</syllabic>
          <text>li </text>
        </lyric>
      </note>
      <note>
        
        <pitch>
          <step>B</step>
          <alter>-1</alter>
          <octave>4</octave>
        </pitch>
        <duration>72</duration>
        <type>eighth</type>
        <dot />
        <accidental>flat</accidental>
        <lyric>
          <syllabic>single</syllabic>
          <text>le </text>
        </lyric>
      </note>
      <note>
        
        <pitch>
          <step>A</step>
          <octave>4</octave>
        </pitch>
        <duration>24</duration>
        <type>16th</type>
        <lyric>
          <text />
        </lyric>
      </note>
      <note>
        
        <pitch>
          <step>G</step>
          <octave>4</octave>
        </pitch>
        <duration>48</duration>
        <type>eighth</type>
        <lyric>
          <syllabic>single</syllabic>
          <text>le </text>
        </lyric>
      </note>
      <note>
        
        <pitch>
          <step>B</step>
          <alter>-1</alter>
          <octave>4</octave>
        </pitch>
        <duration>48</duration>
        <type>eighth</type>
        <accidental>flat</accidental>
        <lyric>
          <text />
        </lyric>
      </note>
      <note>
        
        <pitch>
          <step>A</step>
          <octave>4</octave>
        </pitch>
        <duration>192</duration>
        <type>half</type>
        <lyric>
          <syllabic>single</syllabic>
          <text>li </text>
        </lyric>
      </note>
      <note>
        
        <pitch>
          <step>A</step>
          <octave>4</octave>
        </pitch>
        <duration>96</duration>
        <type>quarter</type>
        <lyric>
          <text />
        </lyric>
      </note>
      <note>
        
        <rest />
        <duration>96</duration>
        <type>quarter</type>
        <lyric>
          <text />
        </lyric>
      </note>
      <note>
        
        <rest />
        <duration>48</duration>
        <type>eighth</type>
        <lyric>
          <text />
        </lyric>
      </note>
      <note>
        
        <pitch>
          <step>A</step>
          <octave>4</octave>
        </pitch>
        <duration>96</duration>
        <type>quarter</type>
        <lyric>
          <syllabic>begin</syllabic>
          <text>&#226;</text>
        </lyric>
      </note>
      <note>
        
        <pitch>
          <step>B</step>
          <alter>-0.5</alter>
          <octave>4</octave>
        </pitch>
        <duration>48</duration>
        <type>eighth</type>
        <accidental>quarter-flat</accidental>
        <lyric>
          <syllabic>end</syllabic>
          <text>r&#305;</text>
        </lyric>
      </note>
      <note>
        
        <pitch>
          <step>C</step>
          <octave>5</octave>
        </pitch>
        <duration>96</duration>
        <type>quarter</type>
        <lyric>
          <syllabic>single</syllabic>
          <text>z&#305;n </text>
        </lyric>
      </note>
      <note>
        
        <grace steal-time-previous="10" />
        <pitch>
          <step>E</step>
          <octave>5</octave>
        </pitch>
        <lyric>
          <text />
        </lyric>
      </note>
      <note>
        
        <pitch>
          <step>D</step>
          <octave>5</octave>
        </pitch>
        <duration>48</duration>
        <type>eighth</type>
        <lyric>
          <text />
        </lyric>
      </note>
      <note>
        
        <pitch>
          <step>C</step>
          <octave>5</octave>
        </pitch>
        <duration>48</duration>
        <type>eighth</type>
        <lyric>
          <text />
        </lyric>
      </note>
      <note>
        
        <pitch>
          <step>B</step>
          <alter>-1</alter>
          <octave>4</octave>
        </pitch>
        <duration>96</duration>
        <type>quarter</type>
        <accidental>flat</accidental>
        <lyric>
          <syllabic>begin</syllabic>
          <text>berk_</text>
        </lyric>
      </note>
      <note>
        
        <pitch>
          <step>A</step>
          <octave>4</octave>
        </pitch>
        <duration>96</duration>
        <type>quarter</type>
        <lyric>
          <text />
        </lyric>
      </note>
      <note>
        
        <pitch>
          <step>A</step>
          <octave>4</octave>
        </pitch>
        <duration>48</duration>
        <type>eighth</type>
        <lyric>
          <text />
        </lyric>
      </note>
      <note>
        
        <pitch>
          <step>B</step>
          <alter>-1</alter>
          <octave>4</octave>
        </pitch>
        <duration>96</duration>
        <type>quarter</type>
        <accidental>flat</accidental>
        <lyric>
          <syllabic>end</syllabic>
          <text>i </text>
        </lyric>
      </note>
      <note>
        
        <pitch>
          <step>A</step>
          <octave>4</octave>
        </pitch>
        <duration>48</duration>
        <type>eighth</type>
        <lyric>
          <text />
        </lyric>
      </note>
      <note>
        
        <pitch>
          <step>G</step>
          <octave>4</octave>
        </pitch>
        <duration>96</duration>
        <type>quarter</type>
        <lyric>
          <text />
        </lyric>
      </note>
      <note>
        
        <pitch>
          <step>A</step>
          <octave>4</octave>
        </pitch>
        <duration>96</duration>
        <type>quarter</type>
        <lyric>
          <syllabic>begin</syllabic>
          <text>se</text>
        </lyric>
      </note>
      <note>
        
        <pitch>
          <step>A</step>
          <octave>4</octave>
        </pitch>
        <duration>288</duration>
        <type>half</type>
        <dot />
        <lyric>
          <syllabic>end</syllabic>
          <text>men  </text>
          <end-line />
        </lyric>
      </note>
      <note>
        
        <rest />
        <duration>96</duration>
        <type>quarter</type>
        <lyric>
          <text />
        </lyric>
      </note>
    </measure>
    <measure number="3-0">
      <attributes />
      <note>
        
        <pitch>
          <step>E</step>
          <octave>5</octave>
        </pitch>
        <duration>144</duration>
        <type>quarter</type>
        <dot />
        <lyric name="VOCAL_SECTION">
          <syllabic>begin</syllabic>
          <text>Ka</text>
        </lyric>
      </note>
      <note>
        
        <pitch>
          <step>D</step>
          <octave>5</octave>
        </pitch>
        <duration>48</duration>
        <type>eighth</type>
        <lyric>
          <text />
        </lyric>
      </note>
      <note>
        
        <pitch>
          <step>C</step>
          <octave>5</octave>
        </pitch>
        <duration>96</duration>
        <type>quarter</type>
        <lyric>
          <text />
        </lyric>
      </note>
      <note>
        
        <pitch>
          <step>D</step>
          <octave>5</octave>
        </pitch>
        <duration>96</duration>
        <type>quarter</type>
        <lyric>
          <syllabic>end</syllabic>
          <text>me</text>
        </lyric>
      </note>
      <note>
        
        <pitch>
          <step>E</step>
          <octave>5</octave>
        </pitch>
        <duration>192</duration>
        <type>half</type>
        <lyric>
          <syllabic>single</syllabic>
          <text>tin </text>
        </lyric>
      </note>
      <note>
        
        <pitch>
          <step>E</step>
          <octave>5</octave>
        </pitch>
        <duration>144</duration>
        <type>quarter</type>
        <dot />
        <lyric>
          <syllabic>begin</syllabic>
          <text>serv_</text>
        </lyric>
      </note>
      <note>
        
        <pitch>
          <step>D</step>
          <octave>5</octave>
        </pitch>
        <duration>48</duration>
        <type>eighth</type>
        <lyric>
          <text />
        </lyric>
      </note>
      <note>
        
        <pitch>
          <step>D</step>
          <octave>5</octave>
        </pitch>
        <duration>48</duration>
        <type>eighth</type>
        <lyric>
          <text />
        </lyric>
      </note>
      <note>
        
        <rest />
        <duration>48</duration>
        <type>eighth</type>
        <lyric>
          <text />
        </lyric>
      </note>
      <note>
        
        <pitch>
          <step>A</step>
          <octave>5</octave>
        </pitch>
        <duration>48</duration>
        <type>eighth</type>
        <lyric>
          <syllabic>end</syllabic>
          <text>i </text>
        </lyric>
      </note>
      <note>
        
        <pitch>
          <step>G</step>
          <octave>5</octave>
        </pitch>
        <duration>48</duration>
        <type>eighth</type>
        <lyric>
          <text />
        </lyric>
      </note>
      <note>
        
        <pitch>
          <step>F</step>
          <octave>5</octave>
        </pitch>
        <duration>48</duration>
        <type>eighth</type>
        <lyric>
          <syllabic>begin</syllabic>
          <text>se</text>
        </lyric>
      </note>
      <note>
        
        <pitch>
          <step>E</step>
          <octave>5</octave>
        </pitch>
        <duration>96</duration>
        <type>quarter</type>
        <lyric>
          <text />
        </lyric>
      </note>
      <note>
        
        <pitch>
          <step>D</step>
          <octave>5</octave>
        </pitch>
        <duration>48</duration>
        <type>eighth</type>
        <lyric>
          <text />
        </lyric>
      </note>
      <note>
        
        <pitch>
          <step>D</step>
          <octave>5</octave>
        </pitch>
        <duration>48</duration>
        <type>eighth</type>
        <lyric>
          <syllabic>end</syllabic>
          <text>h&#238;</text>
        </lyric>
      </note>
      <note>
        
        <pitch>
          <step>C</step>
          <octave>5</octave>
        </pitch>
        <duration>96</duration>
        <type>quarter</type>
        <lyric>
          <text />
        </lyric>
      </note>
      <note>
        
        <pitch>
          <step>D</step>
          <octave>5</octave>
        </pitch>
        <duration>48</duration>
        <type>eighth</type>
        <lyric>
          <text />
        </lyric>
      </note>
      <note>
        
        <pitch>
          <step>C</step>
          <octave>5</octave>
        </pitch>
        <duration>48</duration>
        <type>eighth</type>
        <lyric>
          <syllabic>single</syllabic>
          <text>dir </text>
        </lyric>
      </note>
      <note>
        
        <pitch>
          <step>B</step>
          <octave>4</octave>
        </pitch>
        <duration>96</duration>
        <type>quarter</type>
        <lyric>
          <text />
        </lyric>
      </note>
      <note>
        
        <pitch>
          <step>A</step>
          <octave>4</octave>
        </pitch>
        <duration>48</duration>
        <type>eighth</type>
        <lyric>
          <text />
        </lyric>
      </note>
      <note>
        
        <pitch>
          <step>A</step>
          <octave>4</octave>
        </pitch>
        <duration>144</duration>
        <type>quarter</type>
        <dot />
        <lyric>
          <text />
        </lyric>
      </note>
      <note>
        
        <pitch>
          <step>G</step>
          <octave>4</octave>
        </pitch>
        <duration>48</duration>
        <type>eighth</type>
        <lyric>
          <text />
        </lyric>
      </note>
      <note>
        
        <rest />
        <duration>48</duration>
        <type>eighth</type>
        <lyric>
          <text />
        </lyric>
      </note>
      <note>
        
        <pitch>
          <step>A</step>
          <octave>4</octave>
        </pitch>
        <duration>96</duration>
        <type>quarter</type>
        <lyric>
          <syllabic>begin</syllabic>
          <text>&#226;</text>
        </lyric>
      </note>
      <note>
        
        <pitch>
          <step>B</step>
          <alter>-0.5</alter>
          <octave>4</octave>
        </pitch>
        <duration>48</duration>
        <type>eighth</type>
        <accidental>quarter-flat</accidental>
        <lyric>
          <syllabic>end</syllabic>
          <text>r&#305;</text>
        </lyric>
      </note>
      <note>
        
        <pitch>
          <step>C</step>
          <octave>5</octave>
        </pitch>
        <duration>96</duration>
        <type>quarter</type>
        <lyric>
          <syllabic>single</syllabic>
          <text>z&#305;n </text>
        </lyric>
      </note>
      <note>
        
        <grace steal-time-previous="10" />
        <pitch>
          <step>E</step>
          <octave>5</octave>
        </pitch>
        <lyric>
          <text />
        </lyric>
      </note>
      <note>
        
        <pitch>
          <step>D</step>
          <octave>5</octave>
        </pitch>
        <duration>48</duration>
        <type>eighth</type>
        <lyric>
          <text />
        </lyric>
      </note>
      <note>
        
        <pitch>
          <step>C</step>
          <octave>5</octave>
        </pitch>
        <duration>48</duration>
        <type>eighth</type>
        <lyric>
          <text />
        </lyric>
      </note>
      <note>
        
        <pitch>
          <step>B</step>
          <alter>-0.5</alter>
          <octave>4</octave>
        </pitch>
        <duration>96</duration>
        <type>quarter</type>
        <accidental>quarter-flat</accidental>
        <lyric>
          <syllabic>begin</syllabic>
          <text>berk_</text>
        </lyric>
      </note>
      <note>
        
        <pitch>
          <step>A</step>
          <octave>4</octave>
        </pitch>
        <duration>96</duration>
        <type>quarter</type>
        <lyric>
          <text />
        </lyric>
      </note>
      <note>
        
        <pitch>
          <step>A</step>
          <octave>4</octave>
        </pitch>
        <duration>48</duration>
        <type>eighth</type>
        <lyric>
          <text />
        </lyric>
      </note>
      <note>
        
        <pitch>
          <step>B</step>
          <alter>-1</alter>
          <octave>4</octave>
        </pitch>
        <duration>96</duration>
        <type>quarter</type>
        <accidental>flat</accidental>
        <lyric>
          <syllabic>end</syllabic>
          <text>i </text>
        </lyric>
      </note>
      <note>
        
        <pitch>
          <step>A</step>
          <octave>4</octave>
        </pitch>
        <duration>48</duration>
        <type>eighth</type>
        <lyric>
          <text />
        </lyric>
      </note>
      <note>
        
        <pitch>
          <step>G</step>
          <octave>4</octave>
        </pitch>
        <duration>96</duration>
        <type>quarter</type>
        <lyric>
          <text />
        </lyric>
      </note>
      <note>
        
        <pitch>
          <step>A</step>
          <octave>4</octave>
        </pitch>
        <duration>96</duration>
        <type>quarter</type>
        <lyric>
          <syllabic>begin</syllabic>
          <text>se</text>
        </lyric>
      </note>
      <note>
        
        <grace steal-time-previous="10" />
        <pitch>
          <step>B</step>
          <octave>4</octave>
        </pitch>
        <lyric>
          <text />
        </lyric>
      </note>
      <note>
        
        <pitch>
          <step>A</step>
          <octave>4</octave>
        </pitch>
        <duration>336</duration>
        <type>half</type>
        <dot />
        <dot />
        <lyric>
          <syllabic>end</syllabic>
          <text>men  </text>
          <end-line />
        </lyric>
      </note>
      <note>
        
        <rest />
        <duration>48</duration>
        <type>eighth</type>
        <lyric>
          <text />
        </lyric>
      </note>
    </measure>
    <measure number="4-0">
      <attributes />
      <note>
        
        <rest />
        <duration>48</duration>
        <type>eighth</type>
        <lyric name="VOCAL_SECTION">
          <text />
        </lyric>
      </note>
      <note>
        
        <pitch>
          <step>E</step>
          <octave>5</octave>
        </pitch>
        <duration>96</duration>
        <type>quarter</type>
        <lyric>
          <syllabic>single</syllabic>
          <text>Y&#226; </text>
        </lyric>
      </note>
      <note>
        
        <pitch>
          <step>F</step>
          <octave>5</octave>
        </pitch>
        <duration>48</duration>
        <type>eighth</type>
        <lyric>
          <text />
        </lyric>
      </note>
      <note>
        
        <pitch>
          <step>E</step>
          <octave>5</octave>
        </pitch>
        <duration>72</duration>
        <type>eighth</type>
        <dot />
        <lyric>
          <syllabic>single</syllabic>
          <text>lel </text>
        </lyric>
      </note>
      <note>
        
        <pitch>
          <step>D</step>
          <octave>5</octave>
        </pitch>
        <duration>24</duration>
        <type>16th</type>
        <lyric>
          <text />
        </lyric>
      </note>
      <note>
        
        <pitch>
          <step>C</step>
          <octave>5</octave>
        </pitch>
        <duration>96</duration>
        <type>quarter</type>
        <lyric>
          <syllabic>single</syllabic>
          <text>li </text>
        </lyric>
      </note>
      <note>
        
        <rest />
        <duration>48</duration>
        <type>eighth</type>
        <lyric>
          <text />
        </lyric>
      </note>
      <note>
        
        <pitch>
          <step>D</step>
          <octave>5</octave>
        </pitch>
        <duration>96</duration>
        <type>quarter</type>
        <lyric>
          <syllabic>single</syllabic>
          <text>y&#226; </text>
        </lyric>
      </note>
      <note>
        
        <pitch>
          <step>E</step>
          <octave>5</octave>
        </pitch>
        <duration>48</duration>
        <type>eighth</type>
        <lyric>
          <text />
        </lyric>
      </note>
      <note>
        
        <pitch>
          <step>D</step>
          <octave>5</octave>
        </pitch>
        <duration>72</duration>
        <type>eighth</type>
        <dot />
        <lyric>
          <syllabic>single</syllabic>
          <text>lel </text>
        </lyric>
      </note>
      <note>
        
        <pitch>
          <step>C</step>
          <octave>5</octave>
        </pitch>
        <duration>24</duration>
        <type>16th</type>
        <lyric>
          <text />
        </lyric>
      </note>
      <note>
        
        <pitch>
          <step>B</step>
          <alter>-0.5</alter>
          <octave>4</octave>
        </pitch>
        <duration>96</duration>
        <type>quarter</type>
        <accidental>quarter-flat</accidental>
        <lyric>
          <syllabic>single</syllabic>
          <text>li </text>
        </lyric>
      </note>
      <note>
        
        <rest />
        <duration>48</duration>
        <type>eighth</type>
        <lyric>
          <text />
        </lyric>
      </note>
      <note>
        
        <pitch>
          <step>C</step>
          <octave>5</octave>
        </pitch>
        <duration>96</duration>
        <type>quarter</type>
        <lyric>
          <syllabic>single</syllabic>
          <text>y&#226; </text>
        </lyric>
      </note>
      <note>
        
        <pitch>
          <step>D</step>
          <octave>5</octave>
        </pitch>
        <duration>48</duration>
        <type>eighth</type>
        <lyric>
          <text />
        </lyric>
      </note>
      <note>
        
        <pitch>
          <step>C</step>
          <octave>5</octave>
        </pitch>
        <duration>72</duration>
        <type>eighth</type>
        <dot />
        <lyric>
          <syllabic>single</syllabic>
          <text>lel </text>
        </lyric>
      </note>
      <note>
        
        <pitch>
          <step>B</step>
          <alter>-0.5</alter>
          <octave>4</octave>
        </pitch>
        <duration>24</duration>
        <type>16th</type>
        <accidental>quarter-flat</accidental>
        <lyric>
          <text />
        </lyric>
      </note>
      <note>
        
        <pitch>
          <step>A</step>
          <octave>4</octave>
        </pitch>
        <duration>96</duration>
        <type>quarter</type>
        <lyric>
          <syllabic>single</syllabic>
          <text>li </text>
        </lyric>
      </note>
      <note>
        
        <pitch>
          <step>B</step>
          <alter>-1</alter>
          <octave>4</octave>
        </pitch>
        <duration>72</duration>
        <type>eighth</type>
        <dot />
        <accidental>flat</accidental>
        <lyric>
          <syllabic>single</syllabic>
          <text>le </text>
        </lyric>
      </note>
      <note>
        
        <pitch>
          <step>A</step>
          <octave>4</octave>
        </pitch>
        <duration>24</duration>
        <type>16th</type>
        <lyric>
          <text />
        </lyric>
      </note>
      <note>
        
        <pitch>
          <step>G</step>
          <octave>4</octave>
        </pitch>
        <duration>48</duration>
        <type>eighth</type>
        <lyric>
          <syllabic>single</syllabic>
          <text>le </text>
        </lyric>
      </note>
      <note>
        
        <pitch>
          <step>B</step>
          <alter>-1</alter>
          <octave>4</octave>
        </pitch>
        <duration>48</duration>
        <type>eighth</type>
        <accidental>flat</accidental>
        <lyric>
          <text />
        </lyric>
      </note>
      <note>
        
        <pitch>
          <step>A</step>
          <octave>4</octave>
        </pitch>
        <duration>192</duration>
        <type>half</type>
        <lyric>
          <syllabic>single</syllabic>
          <text>li </text>
        </lyric>
      </note>
      <note>
        
        <pitch>
          <step>A</step>
          <octave>4</octave>
        </pitch>
        <duration>96</duration>
        <type>quarter</type>
        <lyric>
          <text />
        </lyric>
      </note>
      <note>
        
        <rest />
        <duration>96</duration>
        <type>quarter</type>
        <lyric>
          <text />
        </lyric>
      </note>
      <note>
        
        <rest />
        <duration>48</duration>
        <type>eighth</type>
        <lyric>
          <text />
        </lyric>
      </note>
      <note>
        
        <pitch>
          <step>A</step>
          <octave>4</octave>
        </pitch>
        <duration>96</duration>
        <type>quarter</type>
        <lyric>
          <syllabic>begin</syllabic>
          <text>&#226;</text>
        </lyric>
      </note>
      <note>
        
        <pitch>
          <step>B</step>
          <alter>-0.5</alter>
          <octave>4</octave>
        </pitch>
        <duration>48</duration>
        <type>eighth</type>
        <accidental>quarter-flat</accidental>
        <lyric>
          <syllabic>end</syllabic>
          <text>r&#305;</text>
        </lyric>
      </note>
      <note>
        
        <pitch>
          <step>C</step>
          <octave>5</octave>
        </pitch>
        <duration>96</duration>
        <type>quarter</type>
        <lyric>
          <syllabic>single</syllabic>
          <text>z&#305;n </text>
        </lyric>
      </note>
      <note>
        
        <grace steal-time-previous="10" />
        <pitch>
          <step>E</step>
          <octave>5</octave>
        </pitch>
        <lyric>
          <text />
        </lyric>
      </note>
      <note>
        
        <pitch>
          <step>D</step>
          <octave>5</octave>
        </pitch>
        <duration>48</duration>
        <type>eighth</type>
        <lyric>
          <text />
        </lyric>
      </note>
      <note>
        
        <pitch>
          <step>C</step>
          <octave>5</octave>
        </pitch>
        <duration>48</duration>
        <type>eighth</type>
        <lyric>
          <text />
        </lyric>
      </note>
      <note>
        
        <pitch>
          <step>B</step>
          <alter>-1</alter>
          <octave>4</octave>
        </pitch>
        <duration>96</duration>
        <type>quarter</type>
        <accidental>flat</accidental>
        <lyric>
          <syllabic>begin</syllabic>
          <text>berk_</text>
        </lyric>
      </note>
      <note>
        
        <pitch>
          <step>A</step>
          <octave>4</octave>
        </pitch>
        <duration>96</duration>
        <type>quarter</type>
        <lyric>
          <text />
        </lyric>
      </note>
      <note>
        
        <pitch>
          <step>A</step>
          <octave>4</octave>
        </pitch>
        <duration>48</duration>
        <type>eighth</type>
        <lyric>
          <text />
        </lyric>
      </note>
      <note>
        
        <pitch>
          <step>B</step>
          <alter>-1</alter>
          <octave>4</octave>
        </pitch>
        <duration>96</duration>
        <type>quarter</type>
        <accidental>flat</accidental>
        <lyric>
          <syllabic>end</syllabic>
          <text>i </text>
        </lyric>
      </note>
      <note>
        
        <pitch>
          <step>A</step>
          <octave>4</octave>
        </pitch>
        <duration>48</duration>
        <type>eighth</type>
        <lyric>
          <text />
        </lyric>
      </note>
      <note>
        
        <pitch>
          <step>G</step>
          <octave>4</octave>
        </pitch>
        <duration>96</duration>
        <type>quarter</type>
        <lyric>
          <text />
        </lyric>
      </note>
      <note>
        
        <pitch>
          <step>A</step>
          <octave>4</octave>
        </pitch>
        <duration>96</duration>
        <type>quarter</type>
        <lyric>
          <syllabic>begin</syllabic>
          <text>se</text>
        </lyric>
      </note>
      <note>
        
        <pitch>
          <step>A</step>
          <octave>4</octave>
        </pitch>
        <duration>288</duration>
        <type>half</type>
        <dot />
        <lyric>
          <syllabic>end</syllabic>
          <text>men  </text>
          <end-line />
        </lyric>
      </note>
      <note>
        
        <rest />
        <duration>96</duration>
        <type>quarter</type>
        <lyric>
          <text />
        </lyric>
      </note>
    </measure>
    <measure number="5-0">
      <attributes />
      <note>
        
        <pitch>
          <step>E</step>
          <octave>5</octave>
        </pitch>
        <duration>144</duration>
        <type>quarter</type>
        <dot />
        <lyric name="VOCAL_SECTION">
          <syllabic>begin</syllabic>
          <text>Leb</text>
        </lyric>
      </note>
      <note>
        
        <pitch>
          <step>D</step>
          <octave>5</octave>
        </pitch>
        <duration>48</duration>
        <type>eighth</type>
        <lyric>
          <text />
        </lyric>
      </note>
      <note>
        
        <pitch>
          <step>C</step>
          <octave>5</octave>
        </pitch>
        <duration>96</duration>
        <type>quarter</type>
        <lyric>
          <text />
        </lyric>
      </note>
      <note>
        
        <pitch>
          <step>D</step>
          <octave>5</octave>
        </pitch>
        <duration>96</duration>
        <type>quarter</type>
        <lyric>
          <syllabic>end</syllabic>
          <text>le</text>
        </lyric>
      </note>
      <note>
        
        <pitch>
          <step>E</step>
          <octave>5</octave>
        </pitch>
        <duration>192</duration>
        <type>half</type>
        <lyric>
          <syllabic>single</syllabic>
          <text>rin </text>
        </lyric>
      </note>
      <note>
        
        <pitch>
          <step>E</step>
          <octave>5</octave>
        </pitch>
        <duration>144</duration>
        <type>quarter</type>
        <dot />
        <lyric>
          <syllabic>begin</syllabic>
          <text>y&#226;</text>
        </lyric>
      </note>
      <note>
        
        <pitch>
          <step>D</step>
          <octave>5</octave>
        </pitch>
        <duration>48</duration>
        <type>eighth</type>
        <lyric>
          <text />
        </lyric>
      </note>
      <note>
        
        <pitch>
          <step>D</step>
          <octave>5</octave>
        </pitch>
        <duration>48</duration>
        <type>eighth</type>
        <lyric>
          <text />
        </lyric>
      </note>
      <note>
        
        <rest />
        <duration>48</duration>
        <type>eighth</type>
        <lyric>
          <text />
        </lyric>
      </note>
      <note>
        
        <pitch>
          <step>A</step>
          <octave>5</octave>
        </pitch>
        <duration>48</duration>
        <type>eighth</type>
        <lyric>
          <syllabic>end</syllabic>
          <text>kut_</text>
        </lyric>
      </note>
      <note>
        
        <pitch>
          <step>G</step>
          <octave>5</octave>
        </pitch>
        <duration>48</duration>
        <type>eighth</type>
        <lyric>
          <text />
        </lyric>
      </note>
      <note>
        
        <pitch>
          <step>F</step>
          <octave>5</octave>
        </pitch>
        <duration>48</duration>
        <type>eighth</type>
        <lyric>
          <syllabic>single</syllabic>
          <text>i </text>
        </lyric>
      </note>
      <note>
        
        <pitch>
          <step>E</step>
          <octave>5</octave>
        </pitch>
        <duration>96</duration>
        <type>quarter</type>
        <lyric>
          <text />
        </lyric>
      </note>
      <note>
        
        <pitch>
          <step>D</step>
          <octave>5</octave>
        </pitch>
        <duration>48</duration>
        <type>eighth</type>
        <lyric>
          <text />
        </lyric>
      </note>
      <note>
        
        <pitch>
          <step>D</step>
          <octave>5</octave>
        </pitch>
        <duration>48</duration>
        <type>eighth</type>
        <lyric>
          <syllabic>begin</syllabic>
          <text>ah</text>
        </lyric>
      </note>
      <note>
        
        <pitch>
          <step>C</step>
          <alter>+1</alter>
          <octave>5</octave>
        </pitch>
        <duration>96</duration>
        <type>quarter</type>
        <accidental>sharp</accidental>
        <lyric>
          <text />
        </lyric>
      </note>
      <note>
        
        <pitch>
          <step>B</step>
          <octave>4</octave>
        </pitch>
        <duration>48</duration>
        <type>eighth</type>
        <accidental>slash-flat</accidental>
        <lyric>
          <text />
        </lyric>
      </note>
      <note>
        
        <pitch>
          <step>B</step>
          <octave>4</octave>
        </pitch>
        <duration>48</duration>
        <type>eighth</type>
        <accidental>slash-flat</accidental>
        <lyric>
          <syllabic>end</syllabic>
          <text>mer </text>
        </lyric>
      </note>
      <note>
        
        <pitch>
          <step>A</step>
          <octave>4</octave>
        </pitch>
        <duration>48</duration>
        <type>eighth</type>
        <lyric>
          <text />
        </lyric>
      </note>
      <note>
        
        <pitch>
          <step>B</step>
          <octave>4</octave>
        </pitch>
        <duration>48</duration>
        <type>eighth</type>
        <accidental>slash-flat</accidental>
        <lyric>
          <text />
        </lyric>
      </note>
      <note>
        
        <pitch>
          <step>C</step>
          <alter>+1</alter>
          <octave>5</octave>
        </pitch>
        <duration>48</duration>
        <type>eighth</type>
        <accidental>sharp</accidental>
        <lyric>
          <text />
        </lyric>
      </note>
      <note>
        
        <pitch>
          <step>A</step>
          <octave>4</octave>
        </pitch>
        <duration>144</duration>
        <type>quarter</type>
        <dot />
        <lyric>
          <text />
        </lyric>
      </note>
      <note>
        
        <pitch>
          <step>G</step>
          <octave>4</octave>
        </pitch>
        <duration>48</duration>
        <type>eighth</type>
        <lyric>
          <text />
        </lyric>
      </note>
      <note>
        
        <rest />
        <duration>48</duration>
        <type>eighth</type>
        <lyric>
          <text />
        </lyric>
      </note>
      <note>
        
        <pitch>
          <step>A</step>
          <octave>4</octave>
        </pitch>
        <duration>96</duration>
        <type>quarter</type>
        <lyric>
          <syllabic>begin</syllabic>
          <text>di&#351;</text>
        </lyric>
      </note>
      <note>
        
        <pitch>
          <step>B</step>
          <octave>4</octave>
        </pitch>
        <duration>48</duration>
        <type>eighth</type>
        <accidental>slash-flat</accidental>
        <lyric>
          <syllabic>end</syllabic>
          <text>le</text>
        </lyric>
      </note>
      <note>
        
        <pitch>
          <step>C</step>
          <alter>+1</alter>
          <octave>5</octave>
        </pitch>
        <duration>96</duration>
        <type>quarter</type>
        <accidental>sharp</accidental>
        <lyric>
          <syllabic>single</syllabic>
          <text>rin </text>
        </lyric>
      </note>
      <note>
        
        <grace steal-time-previous="10" />
        <pitch>
          <step>E</step>
          <octave>5</octave>
        </pitch>
        <lyric>
          <text />
        </lyric>
      </note>
      <note>
        
        <pitch>
          <step>D</step>
          <octave>5</octave>
        </pitch>
        <duration>48</duration>
        <type>eighth</type>
        <lyric>
          <text />
        </lyric>
      </note>
      <note>
        
        <pitch>
          <step>C</step>
          <alter>+1</alter>
          <octave>5</octave>
        </pitch>
        <duration>48</duration>
        <type>eighth</type>
        <accidental>sharp</accidental>
        <lyric>
          <text />
        </lyric>
      </note>
      <note>
        
        <pitch>
          <step>B</step>
          <octave>4</octave>
        </pitch>
        <duration>96</duration>
        <type>quarter</type>
        <accidental>slash-flat</accidental>
        <lyric>
          <syllabic>begin</syllabic>
          <text>d&#252;rr_</text>
        </lyric>
      </note>
      <note>
        
        <pitch>
          <step>A</step>
          <octave>4</octave>
        </pitch>
        <duration>96</duration>
        <type>quarter</type>
        <lyric>
          <text />
        </lyric>
      </note>
      <note>
        
        <pitch>
          <step>A</step>
          <octave>4</octave>
        </pitch>
        <duration>48</duration>
        <type>eighth</type>
        <lyric>
          <text />
        </lyric>
      </note>
      <note>
        
        <pitch>
          <step>B</step>
          <alter>-1</alter>
          <octave>4</octave>
        </pitch>
        <duration>96</duration>
        <type>quarter</type>
        <accidental>flat</accidental>
        <lyric>
          <syllabic>end</syllabic>
          <text>i </text>
        </lyric>
      </note>
      <note>
        
        <pitch>
          <step>A</step>
          <octave>4</octave>
        </pitch>
        <duration>48</duration>
        <type>eighth</type>
        <lyric>
          <text />
        </lyric>
      </note>
      <note>
        
        <pitch>
          <step>G</step>
          <octave>4</octave>
        </pitch>
        <duration>96</duration>
        <type>quarter</type>
        <lyric>
          <text />
        </lyric>
      </note>
      <note>
        
        <pitch>
          <step>B</step>
          <alter>-1</alter>
          <octave>4</octave>
        </pitch>
        <duration>96</duration>
        <type>quarter</type>
        <accidental>flat</accidental>
        <lyric>
          <syllabic>begin</syllabic>
          <text>a</text>
        </lyric>
      </note>
      <note>
        
        <grace steal-time-previous="10" />
        <pitch>
          <step>B</step>
          <octave>4</octave>
        </pitch>
        <lyric>
          <text />
        </lyric>
      </note>
      <note>
        
        <pitch>
          <step>A</step>
          <octave>4</octave>
        </pitch>
        <duration>288</duration>
        <type>half</type>
        <dot />
        <lyric>
          <syllabic>end</syllabic>
          <text>den  </text>
          <end-line />
        </lyric>
      </note>
      <note>
        
        <rest />
        <duration>96</duration>
        <type>quarter</type>
        <lyric>
          <text />
        </lyric>
      </note>
    </measure>
    <measure number="6-0">
      <attributes />
      <note>
        
        <rest />
        <duration>48</duration>
        <type>eighth</type>
        <lyric name="VOCAL_SECTION">
          <text />
        </lyric>
      </note>
      <note>
        
        <pitch>
          <step>E</step>
          <octave>5</octave>
        </pitch>
        <duration>96</duration>
        <type>quarter</type>
        <lyric>
          <syllabic>single</syllabic>
          <text>Y&#226; </text>
        </lyric>
      </note>
      <note>
        
        <pitch>
          <step>F</step>
          <octave>5</octave>
        </pitch>
        <duration>48</duration>
        <type>eighth</type>
        <lyric>
          <text />
        </lyric>
      </note>
      <note>
        
        <pitch>
          <step>E</step>
          <octave>5</octave>
        </pitch>
        <duration>72</duration>
        <type>eighth</type>
        <dot />
        <lyric>
          <syllabic>single</syllabic>
          <text>lel </text>
        </lyric>
      </note>
      <note>
        
        <pitch>
          <step>D</step>
          <octave>5</octave>
        </pitch>
        <duration>24</duration>
        <type>16th</type>
        <lyric>
          <text />
        </lyric>
      </note>
      <note>
        
        <pitch>
          <step>C</step>
          <octave>5</octave>
        </pitch>
        <duration>96</duration>
        <type>quarter</type>
        <lyric>
          <syllabic>single</syllabic>
          <text>li </text>
        </lyric>
      </note>
      <note>
        
        <rest />
        <duration>48</duration>
        <type>eighth</type>
        <lyric>
          <text />
        </lyric>
      </note>
      <note>
        
        <pitch>
          <step>D</step>
          <octave>5</octave>
        </pitch>
        <duration>96</duration>
        <type>quarter</type>
        <lyric>
          <syllabic>single</syllabic>
          <text>y&#226; </text>
        </lyric>
      </note>
      <note>
        
        <pitch>
          <step>E</step>
          <octave>5</octave>
        </pitch>
        <duration>48</duration>
        <type>eighth</type>
        <lyric>
          <text />
        </lyric>
      </note>
      <note>
        
        <pitch>
          <step>D</step>
          <octave>5</octave>
        </pitch>
        <duration>72</duration>
        <type>eighth</type>
        <dot />
        <lyric>
          <syllabic>single</syllabic>
          <text>lel </text>
        </lyric>
      </note>
      <note>
        
        <pitch>
          <step>C</step>
          <octave>5</octave>
        </pitch>
        <duration>24</duration>
        <type>16th</type>
        <lyric>
          <text />
        </lyric>
      </note>
      <note>
        
        <pitch>
          <step>B</step>
          <alter>-0.5</alter>
          <octave>4</octave>
        </pitch>
        <duration>96</duration>
        <type>quarter</type>
        <accidental>quarter-flat</accidental>
        <lyric>
          <syllabic>single</syllabic>
          <text>li </text>
        </lyric>
      </note>
      <note>
        
        <rest />
        <duration>48</duration>
        <type>eighth</type>
        <lyric>
          <text />
        </lyric>
      </note>
      <note>
        
        <pitch>
          <step>C</step>
          <octave>5</octave>
        </pitch>
        <duration>96</duration>
        <type>quarter</type>
        <lyric>
          <syllabic>single</syllabic>
          <text>y&#226; </text>
        </lyric>
      </note>
      <note>
        
        <pitch>
          <step>D</step>
          <octave>5</octave>
        </pitch>
        <duration>48</duration>
        <type>eighth</type>
        <lyric>
          <text />
        </lyric>
      </note>
      <note>
        
        <pitch>
          <step>C</step>
          <octave>5</octave>
        </pitch>
        <duration>72</duration>
        <type>eighth</type>
        <dot />
        <lyric>
          <syllabic>single</syllabic>
          <text>lel </text>
        </lyric>
      </note>
      <note>
        
        <pitch>
          <step>B</step>
          <alter>-0.5</alter>
          <octave>4</octave>
        </pitch>
        <duration>24</duration>
        <type>16th</type>
        <accidental>quarter-flat</accidental>
        <lyric>
          <text />
        </lyric>
      </note>
      <note>
        
        <pitch>
          <step>A</step>
          <octave>4</octave>
        </pitch>
        <duration>96</duration>
        <type>quarter</type>
        <lyric>
          <syllabic>single</syllabic>
          <text>li </text>
        </lyric>
      </note>
      <note>
        
        <pitch>
          <step>B</step>
          <alter>-1</alter>
          <octave>4</octave>
        </pitch>
        <duration>72</duration>
        <type>eighth</type>
        <dot />
        <accidental>flat</accidental>
        <lyric>
          <syllabic>single</syllabic>
          <text>le </text>
        </lyric>
      </note>
      <note>
        
        <pitch>
          <step>A</step>
          <octave>4</octave>
        </pitch>
        <duration>24</duration>
        <type>16th</type>
        <lyric>
          <text />
        </lyric>
      </note>
      <note>
        
        <pitch>
          <step>G</step>
          <octave>4</octave>
        </pitch>
        <duration>48</duration>
        <type>eighth</type>
        <lyric>
          <syllabic>single</syllabic>
          <text>le </text>
        </lyric>
      </note>
      <note>
        
        <pitch>
          <step>B</step>
          <alter>-1</alter>
          <octave>4</octave>
        </pitch>
        <duration>48</duration>
        <type>eighth</type>
        <accidental>flat</accidental>
        <lyric>
          <text />
        </lyric>
      </note>
      <note>
        
        <pitch>
          <step>A</step>
          <octave>4</octave>
        </pitch>
        <duration>192</duration>
        <type>half</type>
        <lyric>
          <syllabic>single</syllabic>
          <text>li </text>
        </lyric>
      </note>
      <note>
        
        <pitch>
          <step>A</step>
          <octave>4</octave>
        </pitch>
        <duration>96</duration>
        <type>quarter</type>
        <lyric>
          <text />
        </lyric>
      </note>
      <note>
        
        <rest />
        <duration>96</duration>
        <type>quarter</type>
        <lyric>
          <text />
        </lyric>
      </note>
      <note>
        
        <rest />
        <duration>48</duration>
        <type>eighth</type>
        <lyric>
          <text />
        </lyric>
      </note>
      <note>
        
        <pitch>
          <step>A</step>
          <octave>4</octave>
        </pitch>
        <duration>96</duration>
        <type>quarter</type>
        <lyric>
          <syllabic>begin</syllabic>
          <text>di&#351;</text>
        </lyric>
      </note>
      <note>
        
        <pitch>
          <step>B</step>
          <alter>-0.5</alter>
          <octave>4</octave>
        </pitch>
        <duration>48</duration>
        <type>eighth</type>
        <accidental>quarter-flat</accidental>
        <lyric>
          <syllabic>end</syllabic>
          <text>le</text>
        </lyric>
      </note>
      <note>
        
        <pitch>
          <step>C</step>
          <octave>5</octave>
        </pitch>
        <duration>96</duration>
        <type>quarter</type>
        <lyric>
          <syllabic>single</syllabic>
          <text>rin </text>
        </lyric>
      </note>
      <note>
        
        <grace steal-time-previous="10" />
        <pitch>
          <step>E</step>
          <octave>5</octave>
        </pitch>
        <lyric>
          <text />
        </lyric>
      </note>
      <note>
        
        <pitch>
          <step>D</step>
          <octave>5</octave>
        </pitch>
        <duration>48</duration>
        <type>eighth</type>
        <lyric>
          <text />
        </lyric>
      </note>
      <note>
        
        <pitch>
          <step>C</step>
          <octave>5</octave>
        </pitch>
        <duration>48</duration>
        <type>eighth</type>
        <lyric>
          <text />
        </lyric>
      </note>
      <note>
        
        <pitch>
          <step>B</step>
          <alter>-1</alter>
          <octave>4</octave>
        </pitch>
        <duration>96</duration>
        <type>quarter</type>
        <accidental>flat</accidental>
        <lyric>
          <syllabic>begin</syllabic>
          <text>d&#252;rr_</text>
        </lyric>
      </note>
      <note>
        
        <pitch>
          <step>A</step>
          <octave>4</octave>
        </pitch>
        <duration>96</duration>
        <type>quarter</type>
        <lyric>
          <text />
        </lyric>
      </note>
      <note>
        
        <pitch>
          <step>A</step>
          <octave>4</octave>
        </pitch>
        <duration>48</duration>
        <type>eighth</type>
        <lyric>
          <text />
        </lyric>
      </note>
      <note>
        
        <pitch>
          <step>B</step>
          <alter>-1</alter>
          <octave>4</octave>
        </pitch>
        <duration>96</duration>
        <type>quarter</type>
        <accidental>flat</accidental>
        <lyric>
          <syllabic>end</syllabic>
          <text>i </text>
        </lyric>
      </note>
      <note>
        
        <pitch>
          <step>A</step>
          <octave>4</octave>
        </pitch>
        <duration>48</duration>
        <type>eighth</type>
        <lyric>
          <text />
        </lyric>
      </note>
      <note>
        
        <pitch>
          <step>G</step>
          <octave>4</octave>
        </pitch>
        <duration>96</duration>
        <type>quarter</type>
        <lyric>
          <text />
        </lyric>
      </note>
      <note>
        
        <pitch>
          <step>A</step>
          <octave>4</octave>
        </pitch>
        <duration>96</duration>
        <type>quarter</type>
        <lyric>
          <syllabic>begin</syllabic>
          <text>a</text>
        </lyric>
      </note>
      <note>
        
        <pitch>
          <step>A</step>
          <octave>4</octave>
        </pitch>
        <duration>288</duration>
        <type>half</type>
        <dot />
        <lyric>
          <syllabic>end</syllabic>
          <text>den  </text>
          <end-line />
        </lyric>
      </note>
      <note>
        
        <rest />
        <duration>96</duration>
        <type>quarter</type>
        <lyric>
          <text />
        </lyric>
      </note>
    </measure>
    <measure number="7-0">
      <attributes />
      <note>
        
        <pitch>
          <step>E</step>
          <octave>5</octave>
        </pitch>
        <duration>144</duration>
        <type>quarter</type>
        <dot />
        <lyric name="VOCAL_SECTION">
          <syllabic>begin</syllabic>
          <text>H&#252;sn_</text>
        </lyric>
      </note>
      <note>
        
        <pitch>
          <step>D</step>
          <octave>5</octave>
        </pitch>
        <duration>48</duration>
        <type>eighth</type>
        <lyric>
          <text />
        </lyric>
      </note>
      <note>
        
        <pitch>
          <step>C</step>
          <octave>5</octave>
        </pitch>
        <duration>96</duration>
        <type>quarter</type>
        <lyric>
          <text />
        </lyric>
      </note>
      <note>
        
        <pitch>
          <step>D</step>
          <octave>5</octave>
        </pitch>
        <duration>96</duration>
        <type>quarter</type>
        <lyric>
          <syllabic>end</syllabic>
          <text>i</text>
        </lyric>
      </note>
      <note>
        
        <pitch>
          <step>E</step>
          <octave>5</octave>
        </pitch>
        <duration>192</duration>
        <type>half</type>
        <lyric>
          <syllabic>single</syllabic>
          <text>le </text>
        </lyric>
      </note>
      <note>
        
        <pitch>
          <step>E</step>
          <octave>5</octave>
        </pitch>
        <duration>144</duration>
        <type>quarter</type>
        <dot />
        <lyric>
          <syllabic>single</syllabic>
          <text>bir </text>
        </lyric>
      </note>
      <note>
        
        <pitch>
          <step>D</step>
          <octave>5</octave>
        </pitch>
        <duration>48</duration>
        <type>eighth</type>
        <lyric>
          <text />
        </lyric>
      </note>
      <note>
        
        <pitch>
          <step>D</step>
          <octave>5</octave>
        </pitch>
        <duration>48</duration>
        <type>eighth</type>
        <lyric>
          <text />
        </lyric>
      </note>
      <note>
        
        <rest />
        <duration>48</duration>
        <type>eighth</type>
        <lyric>
          <text />
        </lyric>
      </note>
      <note>
        
        <pitch>
          <step>A</step>
          <octave>5</octave>
        </pitch>
        <duration>48</duration>
        <type>eighth</type>
        <lyric>
          <syllabic>begin</syllabic>
          <text>ta</text>
        </lyric>
      </note>
      <note>
        
        <pitch>
          <step>G</step>
          <octave>5</octave>
        </pitch>
        <duration>48</duration>
        <type>eighth</type>
        <lyric>
          <text />
        </lyric>
      </note>
      <note>
        
        <pitch>
          <step>F</step>
          <octave>5</octave>
        </pitch>
        <duration>48</duration>
        <type>eighth</type>
        <lyric>
          <syllabic>end</syllabic>
          <text>ze </text>
        </lyric>
      </note>
      <note>
        
        <pitch>
          <step>E</step>
          <octave>5</octave>
        </pitch>
        <duration>96</duration>
        <type>quarter</type>
        <lyric>
          <text />
        </lyric>
      </note>
      <note>
        
        <pitch>
          <step>D</step>
          <octave>5</octave>
        </pitch>
        <duration>48</duration>
        <type>eighth</type>
        <lyric>
          <text />
        </lyric>
      </note>
      <note>
        
        <pitch>
          <step>D</step>
          <octave>5</octave>
        </pitch>
        <duration>48</duration>
        <type>eighth</type>
        <lyric>
          <syllabic>begin</syllabic>
          <text>g&#252;l</text>
        </lyric>
      </note>
      <note>
        
        <pitch>
          <step>C</step>
          <octave>5</octave>
        </pitch>
        <duration>96</duration>
        <type>quarter</type>
        <lyric>
          <text />
        </lyric>
      </note>
      <note>
        
        <pitch>
          <step>D</step>
          <octave>5</octave>
        </pitch>
        <duration>48</duration>
        <type>eighth</type>
        <lyric>
          <text />
        </lyric>
      </note>
      <note>
        
        <pitch>
          <step>C</step>
          <octave>5</octave>
        </pitch>
        <duration>48</duration>
        <type>eighth</type>
        <lyric>
          <syllabic>end</syllabic>
          <text>s&#252;n </text>
        </lyric>
      </note>
      <note>
        
        <pitch>
          <step>B</step>
          <octave>4</octave>
        </pitch>
        <duration>96</duration>
        <type>quarter</type>
        <lyric>
          <text />
        </lyric>
      </note>
      <note>
        
        <pitch>
          <step>A</step>
          <octave>4</octave>
        </pitch>
        <duration>48</duration>
        <type>eighth</type>
        <lyric>
          <text />
        </lyric>
      </note>
      <note>
        
        <pitch>
          <step>A</step>
          <octave>4</octave>
        </pitch>
        <duration>144</duration>
        <type>quarter</type>
        <dot />
        <lyric>
          <text />
        </lyric>
      </note>
      <note>
        
        <pitch>
          <step>G</step>
          <octave>4</octave>
        </pitch>
        <duration>48</duration>
        <type>eighth</type>
        <lyric>
          <text />
        </lyric>
      </note>
      <note>
        
        <rest />
        <duration>48</duration>
        <type>eighth</type>
        <lyric>
          <text />
        </lyric>
      </note>
      <note>
        
        <pitch>
          <step>A</step>
          <octave>4</octave>
        </pitch>
        <duration>96</duration>
        <type>quarter</type>
        <lyric>
          <syllabic>begin</syllabic>
          <text>ger</text>
        </lyric>
      </note>
      <note>
        
        <pitch>
          <step>B</step>
          <alter>-0.5</alter>
          <octave>4</octave>
        </pitch>
        <duration>48</duration>
        <type>eighth</type>
        <accidental>quarter-flat</accidental>
        <lyric>
          <syllabic>end</syllabic>
          <text>&#231;i </text>
        </lyric>
      </note>
      <note>
        
        <pitch>
          <step>C</step>
          <octave>5</octave>
        </pitch>
        <duration>96</duration>
        <type>quarter</type>
        <lyric>
          <syllabic>single</syllabic>
          <text>ey </text>
        </lyric>
      </note>
      <note>
        
        <grace steal-time-previous="10" />
        <pitch>
          <step>E</step>
          <octave>5</octave>
        </pitch>
        <lyric>
          <text />
        </lyric>
      </note>
      <note>
        
        <pitch>
          <step>D</step>
          <octave>5</octave>
        </pitch>
        <duration>48</duration>
        <type>eighth</type>
        <lyric>
          <text />
        </lyric>
      </note>
      <note>
        
        <pitch>
          <step>C</step>
          <octave>5</octave>
        </pitch>
        <duration>48</duration>
        <type>eighth</type>
        <lyric>
          <text />
        </lyric>
      </note>
      <note>
        
        <pitch>
          <step>B</step>
          <alter>-0.5</alter>
          <octave>4</octave>
        </pitch>
        <duration>96</duration>
        <type>quarter</type>
        <accidental>quarter-flat</accidental>
        <lyric>
          <syllabic>begin</syllabic>
          <text>na</text>
        </lyric>
      </note>
      <note>
        
        <pitch>
          <step>A</step>
          <octave>4</octave>
        </pitch>
        <duration>96</duration>
        <type>quarter</type>
        <lyric>
          <text />
        </lyric>
      </note>
      <note>
        
        <pitch>
          <step>A</step>
          <octave>4</octave>
        </pitch>
        <duration>48</duration>
        <type>eighth</type>
        <lyric>
          <text />
        </lyric>
      </note>
      <note>
        
        <pitch>
          <step>B</step>
          <alter>-1</alter>
          <octave>4</octave>
        </pitch>
        <duration>96</duration>
        <type>quarter</type>
        <accidental>flat</accidental>
        <lyric>
          <syllabic>end</syllabic>
          <text>zik </text>
        </lyric>
      </note>
      <note>
        
        <pitch>
          <step>A</step>
          <octave>4</octave>
        </pitch>
        <duration>48</duration>
        <type>eighth</type>
        <lyric>
          <text />
        </lyric>
      </note>
      <note>
        
        <pitch>
          <step>G</step>
          <octave>4</octave>
        </pitch>
        <duration>96</duration>
        <type>quarter</type>
        <lyric>
          <text />
        </lyric>
      </note>
      <note>
        
        <pitch>
          <step>A</step>
          <octave>4</octave>
        </pitch>
        <duration>96</duration>
        <type>quarter</type>
        <lyric>
          <syllabic>begin</syllabic>
          <text>be</text>
        </lyric>
      </note>
      <note>
        
        <pitch>
          <step>A</step>
          <octave>4</octave>
        </pitch>
        <duration>336</duration>
        <type>half</type>
        <dot />
        <dot />
        <lyric>
          <syllabic>end</syllabic>
          <text>den  </text>
          <end-line />
        </lyric>
      </note>
      <note>
        
        <rest />
        <duration>48</duration>
        <type>eighth</type>
        <lyric>
          <text />
        </lyric>
      </note>
    </measure>
    <measure number="8-0">
      <attributes />
      <note>
        
        <rest />
        <duration>48</duration>
        <type>eighth</type>
        <lyric name="VOCAL_SECTION">
          <text />
        </lyric>
      </note>
      <note>
        
        <pitch>
          <step>E</step>
          <octave>5</octave>
        </pitch>
        <duration>96</duration>
        <type>quarter</type>
        <lyric>
          <syllabic>single</syllabic>
          <text>Y&#226; </text>
        </lyric>
      </note>
      <note>
        
        <pitch>
          <step>F</step>
          <octave>5</octave>
        </pitch>
        <duration>48</duration>
        <type>eighth</type>
        <lyric>
          <text />
        </lyric>
      </note>
      <note>
        
        <pitch>
          <step>E</step>
          <octave>5</octave>
        </pitch>
        <duration>72</duration>
        <type>eighth</type>
        <dot />
        <lyric>
          <syllabic>single</syllabic>
          <text>lel </text>
        </lyric>
      </note>
      <note>
        
        <pitch>
          <step>D</step>
          <octave>5</octave>
        </pitch>
        <duration>24</duration>
        <type>16th</type>
        <lyric>
          <text />
        </lyric>
      </note>
      <note>
        
        <pitch>
          <step>C</step>
          <octave>5</octave>
        </pitch>
        <duration>96</duration>
        <type>quarter</type>
        <lyric>
          <syllabic>single</syllabic>
          <text>li </text>
        </lyric>
      </note>
      <note>
        
        <rest />
        <duration>48</duration>
        <type>eighth</type>
        <lyric>
          <text />
        </lyric>
      </note>
      <note>
        
        <pitch>
          <step>D</step>
          <octave>5</octave>
        </pitch>
        <duration>96</duration>
        <type>quarter</type>
        <lyric>
          <syllabic>single</syllabic>
          <text>y&#226; </text>
        </lyric>
      </note>
      <note>
        
        <pitch>
          <step>E</step>
          <octave>5</octave>
        </pitch>
        <duration>48</duration>
        <type>eighth</type>
        <lyric>
          <text />
        </lyric>
      </note>
      <note>
        
        <pitch>
          <step>D</step>
          <octave>5</octave>
        </pitch>
        <duration>72</duration>
        <type>eighth</type>
        <dot />
        <lyric>
          <syllabic>single</syllabic>
          <text>lel </text>
        </lyric>
      </note>
      <note>
        
        <pitch>
          <step>C</step>
          <octave>5</octave>
        </pitch>
        <duration>24</duration>
        <type>16th</type>
        <lyric>
          <text />
        </lyric>
      </note>
      <note>
        
        <pitch>
          <step>B</step>
          <alter>-0.5</alter>
          <octave>4</octave>
        </pitch>
        <duration>96</duration>
        <type>quarter</type>
        <accidental>quarter-flat</accidental>
        <lyric>
          <syllabic>single</syllabic>
          <text>li </text>
        </lyric>
      </note>
      <note>
        
        <rest />
        <duration>48</duration>
        <type>eighth</type>
        <lyric>
          <text />
        </lyric>
      </note>
      <note>
        
        <pitch>
          <step>C</step>
          <octave>5</octave>
        </pitch>
        <duration>96</duration>
        <type>quarter</type>
        <lyric>
          <syllabic>single</syllabic>
          <text>y&#226; </text>
        </lyric>
      </note>
      <note>
        
        <pitch>
          <step>D</step>
          <octave>5</octave>
        </pitch>
        <duration>48</duration>
        <type>eighth</type>
        <lyric>
          <text />
        </lyric>
      </note>
      <note>
        
        <pitch>
          <step>C</step>
          <octave>5</octave>
        </pitch>
        <duration>72</duration>
        <type>eighth</type>
        <dot />
        <lyric>
          <syllabic>single</syllabic>
          <text>lel </text>
        </lyric>
      </note>
      <note>
        
        <pitch>
          <step>B</step>
          <alter>-0.5</alter>
          <octave>4</octave>
        </pitch>
        <duration>24</duration>
        <type>16th</type>
        <accidental>quarter-flat</accidental>
        <lyric>
          <text />
        </lyric>
      </note>
      <note>
        
        <pitch>
          <step>A</step>
          <octave>4</octave>
        </pitch>
        <duration>96</duration>
        <type>quarter</type>
        <lyric>
          <syllabic>single</syllabic>
          <text>li </text>
        </lyric>
      </note>
      <note>
        
        <pitch>
          <step>B</step>
          <alter>-1</alter>
          <octave>4</octave>
        </pitch>
        <duration>72</duration>
        <type>eighth</type>
        <dot />
        <accidental>flat</accidental>
        <lyric>
          <syllabic>single</syllabic>
          <text>le </text>
        </lyric>
      </note>
      <note>
        
        <pitch>
          <step>A</step>
          <octave>4</octave>
        </pitch>
        <duration>24</duration>
        <type>16th</type>
        <lyric>
          <text />
        </lyric>
      </note>
      <note>
        
        <pitch>
          <step>G</step>
          <octave>4</octave>
        </pitch>
        <duration>48</duration>
        <type>eighth</type>
        <lyric>
          <syllabic>single</syllabic>
          <text>le </text>
        </lyric>
      </note>
      <note>
        
        <pitch>
          <step>B</step>
          <alter>-1</alter>
          <octave>4</octave>
        </pitch>
        <duration>48</duration>
        <type>eighth</type>
        <accidental>flat</accidental>
        <lyric>
          <text />
        </lyric>
      </note>
      <note>
        
        <pitch>
          <step>A</step>
          <octave>4</octave>
        </pitch>
        <duration>192</duration>
        <type>half</type>
        <lyric>
          <syllabic>single</syllabic>
          <text>li </text>
        </lyric>
      </note>
      <note>
        
        <pitch>
          <step>A</step>
          <octave>4</octave>
        </pitch>
        <duration>96</duration>
        <type>quarter</type>
        <lyric>
          <text />
        </lyric>
      </note>
      <note>
        
        <rest />
        <duration>96</duration>
        <type>quarter</type>
        <lyric>
          <text />
        </lyric>
      </note>
      <note>
        
        <rest />
        <duration>48</duration>
        <type>eighth</type>
        <lyric>
          <text />
        </lyric>
      </note>
      <note>
        
        <pitch>
          <step>A</step>
          <octave>4</octave>
        </pitch>
        <duration>96</duration>
        <type>quarter</type>
        <lyric>
          <syllabic>begin</syllabic>
          <text>di&#351;</text>
        </lyric>
      </note>
      <note>
        
        <pitch>
          <step>B</step>
          <alter>-0.5</alter>
          <octave>4</octave>
        </pitch>
        <duration>48</duration>
        <type>eighth</type>
        <accidental>quarter-flat</accidental>
        <lyric>
          <syllabic>end</syllabic>
          <text>le</text>
        </lyric>
      </note>
      <note>
        
        <pitch>
          <step>C</step>
          <octave>5</octave>
        </pitch>
        <duration>96</duration>
        <type>quarter</type>
        <lyric>
          <syllabic>single</syllabic>
          <text>rin </text>
        </lyric>
      </note>
      <note>
        
        <grace steal-time-previous="10" />
        <pitch>
          <step>E</step>
          <octave>5</octave>
        </pitch>
        <lyric>
          <text />
        </lyric>
      </note>
      <note>
        
        <pitch>
          <step>D</step>
          <octave>5</octave>
        </pitch>
        <duration>48</duration>
        <type>eighth</type>
        <lyric>
          <text />
        </lyric>
      </note>
      <note>
        
        <pitch>
          <step>C</step>
          <octave>5</octave>
        </pitch>
        <duration>48</duration>
        <type>eighth</type>
        <lyric>
          <text />
        </lyric>
      </note>
      <note>
        
        <pitch>
          <step>B</step>
          <alter>-1</alter>
          <octave>4</octave>
        </pitch>
        <duration>96</duration>
        <type>quarter</type>
        <accidental>flat</accidental>
        <lyric>
          <syllabic>begin</syllabic>
          <text>d&#252;rr_</text>
        </lyric>
      </note>
      <note>
        
        <pitch>
          <step>A</step>
          <octave>4</octave>
        </pitch>
        <duration>96</duration>
        <type>quarter</type>
        <lyric>
          <text />
        </lyric>
      </note>
      <note>
        
        <pitch>
          <step>A</step>
          <octave>4</octave>
        </pitch>
        <duration>48</duration>
        <type>eighth</type>
        <lyric>
          <text />
        </lyric>
      </note>
      <note>
        
        <pitch>
          <step>B</step>
          <alter>-1</alter>
          <octave>4</octave>
        </pitch>
        <duration>96</duration>
        <type>quarter</type>
        <accidental>flat</accidental>
        <lyric>
          <syllabic>end</syllabic>
          <text>i </text>
        </lyric>
      </note>
      <note>
        
        <pitch>
          <step>A</step>
          <octave>4</octave>
        </pitch>
        <duration>48</duration>
        <type>eighth</type>
        <lyric>
          <text />
        </lyric>
      </note>
      <note>
        
        <pitch>
          <step>G</step>
          <octave>4</octave>
        </pitch>
        <duration>96</duration>
        <type>quarter</type>
        <lyric>
          <text />
        </lyric>
      </note>
      <note>
        
        <pitch>
          <step>A</step>
          <octave>4</octave>
        </pitch>
        <duration>96</duration>
        <type>quarter</type>
        <lyric>
          <syllabic>begin</syllabic>
          <text>a</text>
        </lyric>
      </note>
      <note>
        
        <pitch>
          <step>A</step>
          <octave>4</octave>
        </pitch>
        <duration>288</duration>
        <type>half</type>
        <dot />
        <lyric>
          <syllabic>end</syllabic>
          <text>den  </text>
          <end-line />
        </lyric>
      </note>
      <note>
        
        <rest />
        <duration>96</duration>
        <type>quarter</type>
        <lyric>
          <text />
        </lyric>
      </note>
    </measure>
    <measure number="9-0">
      <attributes />
    </measure>
  </part>
</score-partwise>