<score-partwise version="3.0">
  <work>
    <work-title>&#199;anakkale &#304;&#231;inde</work-title>
  </work>
  <identification>
    <creator type="composer">&#304;hsan Ozano&#287;lu</creator>
    <creator type="poet">[Anonim]</creator>
    <encoding>
      <encoder>Burak Uyar</encoder>
      <software>https://github.com/burakuyar/MusicXMLConverter</software>
    </encoding>
    <relation>http://musicbrainz.org/work/50a8c7a3-4c9b-4d0b-8e2d-8adc58f56c90</relation>
  </identification>
  <part-list>
    <score-part id="P1">
      <part-name>Music</part-name>
    </score-part>
  </part-list>
  <part id="P1">
    <measure number="1-0">
      <direction placement="above">
        <direction-type>
          <metronome>
            <beat-unit>quarter</beat-unit>
            <per-minute>92</per-minute>
          </metronome>
        </direction-type>
        <direction-type>
          <words default-y="35">Makam: Nev&#226;, Form: T&#252;rk&#252;, Usul: Sofyan </words>
        </direction-type>
        <sound tempo="92" />
      </direction>
      <attributes>
        <divisions>96</divisions>
        <time>
          <beats>4</beats>
          <beat-type>4</beat-type>
        </time>
      </attributes>
      <note>
        
        <pitch>
          <step>D</step>
          <octave>5</octave>
        </pitch>
        <duration>48</duration>
        <type>eighth</type>
        <lyric name="ARANA&#286;ME">
          <text>ARANA&#286;ME</text>
        </lyric>
      </note>
      <note>
        
        <pitch>
          <step>E</step>
          <octave>5</octave>
        </pitch>
        <duration>144</duration>
        <type>quarter</type>
        <dot />
        <lyric>
          <text>.</text>
        </lyric>
      </note>
      <note>
        
        <pitch>
          <step>E</step>
          <octave>5</octave>
        </pitch>
        <duration>96</duration>
        <type>quarter</type>
        <lyric>
          <text>.</text>
        </lyric>
      </note>
      <note>
        
        <pitch>
          <step>E</step>
          <alter>-1</alter>
          <octave>5</octave>
        </pitch>
        <duration>72</duration>
        <type>eighth</type>
        <dot />
        <accidental>flat</accidental>
        <lyric>
          <text>.</text>
        </lyric>
      </note>
      <note>
        
        <pitch>
          <step>D</step>
          <octave>5</octave>
        </pitch>
        <duration>24</duration>
        <type>16th</type>
        <lyric>
          <text>.</text>
        </lyric>
      </note>
    </measure>
    <measure number="2-0">
      <attributes />
      <note>
        
        <pitch>
          <step>D</step>
          <octave>5</octave>
        </pitch>
        <duration>96</duration>
        <type>quarter</type>
        <lyric>
          <text>.</text>
        </lyric>
      </note>
      <note>
        
        <pitch>
          <step>E</step>
          <alter>-1</alter>
          <octave>5</octave>
        </pitch>
        <duration>48</duration>
        <type>eighth</type>
        <accidental>flat</accidental>
        <lyric>
          <text>.</text>
        </lyric>
      </note>
      <note>
        
        <pitch>
          <step>D</step>
          <octave>5</octave>
        </pitch>
        <duration>48</duration>
        <type>eighth</type>
        <lyric>
          <text>.</text>
        </lyric>
      </note>
      <note>
        
        <pitch>
          <step>C</step>
          <octave>5</octave>
        </pitch>
        <duration>48</duration>
        <type>eighth</type>
        <lyric>
          <text>.</text>
        </lyric>
      </note>
      <note>
        
        <pitch>
          <step>B</step>
          <alter>-0.5</alter>
          <octave>4</octave>
        </pitch>
        <duration>48</duration>
        <type>eighth</type>
        <accidental>quarter-flat</accidental>
        <lyric>
          <text>.</text>
        </lyric>
      </note>
      <note>
        
        <pitch>
          <step>C</step>
          <octave>5</octave>
        </pitch>
        <duration>96</duration>
        <type>quarter</type>
        <lyric>
          <text>.</text>
        </lyric>
      </note>
    </measure>
    <measure number="3-0">
      <attributes />
      <note>
        
        <pitch>
          <step>B</step>
          <alter>-0.5</alter>
          <octave>4</octave>
        </pitch>
        <duration>48</duration>
        <type>eighth</type>
        <accidental>quarter-flat</accidental>
        <lyric>
          <text>.</text>
        </lyric>
      </note>
      <note>
        
        <pitch>
          <step>C</step>
          <octave>5</octave>
        </pitch>
        <duration>48</duration>
        <type>eighth</type>
        <lyric>
          <text>.</text>
        </lyric>
      </note>
      <note>
        
        <pitch>
          <step>D</step>
          <octave>5</octave>
        </pitch>
        <duration>96</duration>
        <type>quarter</type>
        <lyric>
          <text>.</text>
        </lyric>
      </note>
      <note>
        
        <pitch>
          <step>D</step>
          <octave>5</octave>
        </pitch>
        <duration>24</duration>
        <type>16th</type>
        <lyric>
          <text>.</text>
        </lyric>
      </note>
      <note>
        
        <pitch>
          <step>E</step>
          <alter>-1</alter>
          <octave>5</octave>
        </pitch>
        <duration>24</duration>
        <type>16th</type>
        <accidental>flat</accidental>
        <lyric>
          <text>.</text>
        </lyric>
      </note>
      <note>
        
        <pitch>
          <step>D</step>
          <octave>5</octave>
        </pitch>
        <duration>24</duration>
        <type>16th</type>
        <lyric>
          <text>.</text>
        </lyric>
      </note>
      <note>
        
        <pitch>
          <step>E</step>
          <alter>-1</alter>
          <octave>5</octave>
        </pitch>
        <duration>24</duration>
        <type>16th</type>
        <accidental>flat</accidental>
        <lyric>
          <text>.</text>
        </lyric>
      </note>
      <note>
        
        <pitch>
          <step>C</step>
          <octave>5</octave>
        </pitch>
        <duration>48</duration>
        <type>eighth</type>
        <lyric>
          <text>.</text>
        </lyric>
      </note>
      <note>
        
        <pitch>
          <step>B</step>
          <alter>-0.5</alter>
          <octave>4</octave>
        </pitch>
        <duration>48</duration>
        <type>eighth</type>
        <accidental>quarter-flat</accidental>
        <lyric>
          <text>.</text>
        </lyric>
      </note>
    </measure>
    <measure number="4-0">
      <attributes />
      <note>
        
        <pitch>
          <step>A</step>
          <octave>4</octave>
        </pitch>
        <duration>192</duration>
        <type>half</type>
        <lyric>
          <text>.</text>
        </lyric>
      </note>
      <note>
        
        <pitch>
          <step>B</step>
          <alter>-0.5</alter>
          <octave>4</octave>
        </pitch>
        <duration>48</duration>
        <type>eighth</type>
        <accidental>quarter-flat</accidental>
        <lyric>
          <text>.</text>
        </lyric>
      </note>
      <note>
        
        <pitch>
          <step>C</step>
          <octave>5</octave>
        </pitch>
        <duration>48</duration>
        <type>eighth</type>
        <lyric>
          <text>.</text>
        </lyric>
      </note>
      <note>
        
        <pitch>
          <step>D</step>
          <octave>5</octave>
        </pitch>
        <duration>48</duration>
        <type>eighth</type>
        <lyric>
          <text>.</text>
        </lyric>
      </note>
      <note>
        
        <pitch>
          <step>E</step>
          <octave>5</octave>
        </pitch>
        <duration>48</duration>
        <type>eighth</type>
        <lyric>
          <text>.</text>
        </lyric>
      </note>
    </measure>
    <measure number="5-0">
      <attributes />
      <note>
        
        <pitch>
          <step>C</step>
          <octave>5</octave>
        </pitch>
        <duration>48</duration>
        <type>eighth</type>
        <lyric>
          <text>.</text>
        </lyric>
      </note>
      <note>
        
        <grace steal-time-previous="10" />
        <pitch>
          <step>D</step>
          <octave>5</octave>
        </pitch>
        <lyric>
          <text>.</text>
        </lyric>
      </note>
      <note>
        
        <pitch>
          <step>B</step>
          <alter>-0.5</alter>
          <octave>4</octave>
        </pitch>
        <duration>72</duration>
        <type>eighth</type>
        <dot />
        <accidental>quarter-flat</accidental>
        <lyric>
          <text>.</text>
        </lyric>
      </note>
      <note>
        
        <pitch>
          <step>G</step>
          <octave>4</octave>
        </pitch>
        <duration>24</duration>
        <type>16th</type>
        <lyric>
          <text>.</text>
        </lyric>
      </note>
      <note>
        
        <pitch>
          <step>A</step>
          <octave>4</octave>
        </pitch>
        <duration>48</duration>
        <type>eighth</type>
        <lyric>
          <text>.</text>
        </lyric>
      </note>
      <note>
        
        <pitch>
          <step>B</step>
          <alter>-0.5</alter>
          <octave>4</octave>
        </pitch>
        <duration>48</duration>
        <type>eighth</type>
        <accidental>quarter-flat</accidental>
        <lyric>
          <text>.</text>
        </lyric>
      </note>
      <note>
        
        <pitch>
          <step>A</step>
          <octave>4</octave>
        </pitch>
        <duration>144</duration>
        <type>quarter</type>
        <dot />
        <lyric>
          <text>.</text>
        </lyric>
      </note>
    </measure>
    <measure number="6-0">
      <attributes />
      <note>
        
        <pitch>
          <step>A</step>
          <octave>4</octave>
        </pitch>
        <duration>288</duration>
        <type>half</type>
        <dot />
        <lyric>
          <text>.</text>
        </lyric>
      </note>
      <note>
        
        <rest />
        <duration>96</duration>
        <type>quarter</type>
        <lyric>
          <text />
        </lyric>
      </note>
    </measure>
    <measure number="7-0">
      <attributes />
      <note>
        
        <pitch>
          <step>D</step>
          <octave>5</octave>
        </pitch>
        <duration>48</duration>
        <type>eighth</type>
        <lyric name="ARANA&#286;ME">
          <text>ARANA&#286;ME</text>
        </lyric>
      </note>
      <note>
        
        <pitch>
          <step>E</step>
          <octave>5</octave>
        </pitch>
        <duration>144</duration>
        <type>quarter</type>
        <dot />
        <lyric>
          <text>.</text>
        </lyric>
      </note>
      <note>
        
        <pitch>
          <step>E</step>
          <octave>5</octave>
        </pitch>
        <duration>96</duration>
        <type>quarter</type>
        <lyric>
          <text>.</text>
        </lyric>
      </note>
      <note>
        
        <pitch>
          <step>E</step>
          <alter>-1</alter>
          <octave>5</octave>
        </pitch>
        <duration>72</duration>
        <type>eighth</type>
        <dot />
        <accidental>flat</accidental>
        <lyric>
          <text>.</text>
        </lyric>
      </note>
      <note>
        
        <pitch>
          <step>D</step>
          <octave>5</octave>
        </pitch>
        <duration>24</duration>
        <type>16th</type>
        <lyric>
          <text>.</text>
        </lyric>
      </note>
    </measure>
    <measure number="8-0">
      <attributes />
      <note>
        
        <pitch>
          <step>D</step>
          <octave>5</octave>
        </pitch>
        <duration>96</duration>
        <type>quarter</type>
        <lyric>
          <text>.</text>
        </lyric>
      </note>
      <note>
        
        <pitch>
          <step>E</step>
          <alter>-1</alter>
          <octave>5</octave>
        </pitch>
        <duration>48</duration>
        <type>eighth</type>
        <accidental>flat</accidental>
        <lyric>
          <text>.</text>
        </lyric>
      </note>
      <note>
        
        <pitch>
          <step>D</step>
          <octave>5</octave>
        </pitch>
        <duration>48</duration>
        <type>eighth</type>
        <lyric>
          <text>.</text>
        </lyric>
      </note>
      <note>
        
        <pitch>
          <step>C</step>
          <octave>5</octave>
        </pitch>
        <duration>48</duration>
        <type>eighth</type>
        <lyric>
          <text>.</text>
        </lyric>
      </note>
      <note>
        
        <pitch>
          <step>B</step>
          <alter>-0.5</alter>
          <octave>4</octave>
        </pitch>
        <duration>48</duration>
        <type>eighth</type>
        <accidental>quarter-flat</accidental>
        <lyric>
          <text>.</text>
        </lyric>
      </note>
      <note>
        
        <pitch>
          <step>C</step>
          <octave>5</octave>
        </pitch>
        <duration>96</duration>
        <type>quarter</type>
        <lyric>
          <text>.</text>
        </lyric>
      </note>
    </measure>
    <measure number="9-0">
      <attributes />
      <note>
        
        <pitch>
          <step>B</step>
          <alter>-0.5</alter>
          <octave>4</octave>
        </pitch>
        <duration>48</duration>
        <type>eighth</type>
        <accidental>quarter-flat</accidental>
        <lyric>
          <text>.</text>
        </lyric>
      </note>
      <note>
        
        <pitch>
          <step>C</step>
          <octave>5</octave>
        </pitch>
        <duration>48</duration>
        <type>eighth</type>
        <lyric>
          <text>.</text>
        </lyric>
      </note>
      <note>
        
        <pitch>
          <step>D</step>
          <octave>5</octave>
        </pitch>
        <duration>96</duration>
        <type>quarter</type>
        <lyric>
          <text>.</text>
        </lyric>
      </note>
      <note>
        
        <pitch>
          <step>D</step>
          <octave>5</octave>
        </pitch>
        <duration>24</duration>
        <type>16th</type>
        <lyric>
          <text>.</text>
        </lyric>
      </note>
      <note>
        
        <pitch>
          <step>E</step>
          <alter>-1</alter>
          <octave>5</octave>
        </pitch>
        <duration>24</duration>
        <type>16th</type>
        <accidental>flat</accidental>
        <lyric>
          <text>.</text>
        </lyric>
      </note>
      <note>
        
        <pitch>
          <step>D</step>
          <octave>5</octave>
        </pitch>
        <duration>24</duration>
        <type>16th</type>
        <lyric>
          <text>.</text>
        </lyric>
      </note>
      <note>
        
        <pitch>
          <step>E</step>
          <alter>-1</alter>
          <octave>5</octave>
        </pitch>
        <duration>24</duration>
        <type>16th</type>
        <accidental>flat</accidental>
        <lyric>
          <text>.</text>
        </lyric>
      </note>
      <note>
        
        <pitch>
          <step>C</step>
          <octave>5</octave>
        </pitch>
        <duration>48</duration>
        <type>eighth</type>
        <lyric>
          <text>.</text>
        </lyric>
      </note>
      <note>
        
        <pitch>
          <step>B</step>
          <alter>-0.5</alter>
          <octave>4</octave>
        </pitch>
        <duration>48</duration>
        <type>eighth</type>
        <accidental>quarter-flat</accidental>
        <lyric>
          <text>.</text>
        </lyric>
      </note>
    </measure>
    <measure number="10-0">
      <attributes />
      <note>
        
        <pitch>
          <step>A</step>
          <octave>4</octave>
        </pitch>
        <duration>192</duration>
        <type>half</type>
        <lyric>
          <text>.</text>
        </lyric>
      </note>
      <note>
        
        <pitch>
          <step>B</step>
          <alter>-0.5</alter>
          <octave>4</octave>
        </pitch>
        <duration>48</duration>
        <type>eighth</type>
        <accidental>quarter-flat</accidental>
        <lyric>
          <text>.</text>
        </lyric>
      </note>
      <note>
        
        <pitch>
          <step>C</step>
          <octave>5</octave>
        </pitch>
        <duration>48</duration>
        <type>eighth</type>
        <lyric>
          <text>.</text>
        </lyric>
      </note>
      <note>
        
        <pitch>
          <step>D</step>
          <octave>5</octave>
        </pitch>
        <duration>48</duration>
        <type>eighth</type>
        <lyric>
          <text>.</text>
        </lyric>
      </note>
      <note>
        
        <pitch>
          <step>E</step>
          <octave>5</octave>
        </pitch>
        <duration>48</duration>
        <type>eighth</type>
        <lyric>
          <text>.</text>
        </lyric>
      </note>
    </measure>
    <measure number="11-0">
      <attributes />
      <note>
        
        <pitch>
          <step>C</step>
          <octave>5</octave>
        </pitch>
        <duration>48</duration>
        <type>eighth</type>
        <lyric>
          <text>.</text>
        </lyric>
      </note>
      <note>
        
        <grace steal-time-previous="10" />
        <pitch>
          <step>D</step>
          <octave>5</octave>
        </pitch>
        <lyric>
          <text>.</text>
        </lyric>
      </note>
      <note>
        
        <pitch>
          <step>B</step>
          <alter>-0.5</alter>
          <octave>4</octave>
        </pitch>
        <duration>72</duration>
        <type>eighth</type>
        <dot />
        <accidental>quarter-flat</accidental>
        <lyric>
          <text>.</text>
        </lyric>
      </note>
      <note>
        
        <pitch>
          <step>G</step>
          <octave>4</octave>
        </pitch>
        <duration>24</duration>
        <type>16th</type>
        <lyric>
          <text>.</text>
        </lyric>
      </note>
      <note>
        
        <pitch>
          <step>A</step>
          <octave>4</octave>
        </pitch>
        <duration>48</duration>
        <type>eighth</type>
        <lyric>
          <text>.</text>
        </lyric>
      </note>
      <note>
        
        <pitch>
          <step>B</step>
          <alter>-0.5</alter>
          <octave>4</octave>
        </pitch>
        <duration>48</duration>
        <type>eighth</type>
        <accidental>quarter-flat</accidental>
        <lyric>
          <text>.</text>
        </lyric>
      </note>
      <note>
        
        <pitch>
          <step>A</step>
          <octave>4</octave>
        </pitch>
        <duration>144</duration>
        <type>quarter</type>
        <dot />
        <lyric>
          <text>.</text>
        </lyric>
      </note>
    </measure>
    <measure number="12-0">
      <attributes />
      <note>
        
        <pitch>
          <step>A</step>
          <octave>4</octave>
        </pitch>
        <duration>288</duration>
        <type>half</type>
        <dot />
        <lyric>
          <text>.</text>
        </lyric>
      </note>
      <note>
        
        <rest />
        <duration>96</duration>
        <type>quarter</type>
        <lyric>
          <text />
        </lyric>
      </note>
    </measure>
    <measure number="13-0">
      <attributes />
      <note>
        
        <rest />
        <duration>96</duration>
        <type>quarter</type>
        <lyric name="VOCAL_SECTION">
          <text />
        </lyric>
      </note>
      <note>
        
        <pitch>
          <step>G</step>
          <octave>4</octave>
        </pitch>
        <duration>48</duration>
        <type>eighth</type>
        <lyric>
          <syllabic>begin</syllabic>
          <text>&#199;a</text>
        </lyric>
      </note>
      <note>
        
        <pitch>
          <step>A</step>
          <octave>4</octave>
        </pitch>
        <duration>48</duration>
        <type>eighth</type>
        <lyric>
          <syllabic>end</syllabic>
          <text>nak</text>
        </lyric>
      </note>
      <note>
        
        <pitch>
          <step>A</step>
          <octave>4</octave>
        </pitch>
        <duration>48</duration>
        <type>eighth</type>
        <lyric>
          <syllabic>begin</syllabic>
          <text>ka</text>
        </lyric>
      </note>
      <note>
        
        <pitch>
          <step>A</step>
          <octave>4</octave>
        </pitch>
        <duration>144</duration>
        <type>quarter</type>
        <dot />
        <lyric>
          <syllabic>end</syllabic>
          <text>le </text>
        </lyric>
      </note>
    </measure>
    <measure number="14-0">
      <attributes />
      <note>
        
        <pitch>
          <step>G</step>
          <octave>5</octave>
        </pitch>
        <duration>72</duration>
        <type>eighth</type>
        <dot />
        <lyric>
          <syllabic>begin</syllabic>
          <text>i</text>
        </lyric>
      </note>
      <note>
        
        <pitch>
          <step>F</step>
          <alter>+1</alter>
          <octave>5</octave>
        </pitch>
        <duration>24</duration>
        <type>16th</type>
        <accidental>sharp</accidental>
        <lyric>
          <text />
        </lyric>
      </note>
      <note>
        
        <pitch>
          <step>E</step>
          <octave>5</octave>
        </pitch>
        <duration>72</duration>
        <type>eighth</type>
        <dot />
        <lyric>
          <syllabic>end</syllabic>
          <text>&#231;in</text>
        </lyric>
      </note>
      <note>
        
        <pitch>
          <step>D</step>
          <octave>5</octave>
        </pitch>
        <duration>24</duration>
        <type>16th</type>
        <lyric>
          <text />
        </lyric>
      </note>
      <note>
        
        <pitch>
          <step>D</step>
          <octave>5</octave>
        </pitch>
        <duration>144</duration>
        <type>quarter</type>
        <dot />
        <lyric>
          <syllabic>single</syllabic>
          <text>de </text>
        </lyric>
      </note>
      <note>
        
        <pitch>
          <step>C</step>
          <octave>5</octave>
        </pitch>
        <duration>48</duration>
        <type>eighth</type>
        <lyric>
          <text />
        </lyric>
      </note>
    </measure>
    <measure number="15-0">
      <attributes />
      <note>
        
        <pitch>
          <step>D</step>
          <octave>5</octave>
        </pitch>
        <duration>96</duration>
        <type>quarter</type>
        <lyric>
          <syllabic>begin</syllabic>
          <text>vur</text>
        </lyric>
      </note>
      <note>
        
        <pitch>
          <step>E</step>
          <octave>5</octave>
        </pitch>
        <duration>96</duration>
        <type>quarter</type>
        <lyric>
          <syllabic>end</syllabic>
          <text>du</text>
        </lyric>
      </note>
      <note>
        
        <pitch>
          <step>E</step>
          <octave>5</octave>
        </pitch>
        <duration>24</duration>
        <type>16th</type>
        <lyric>
          <syllabic>single</syllabic>
          <text>lar </text>
        </lyric>
      </note>
      <note>
        
        <pitch>
          <step>G</step>
          <octave>5</octave>
        </pitch>
        <duration>24</duration>
        <type>16th</type>
        <lyric>
          <text />
        </lyric>
      </note>
      <note>
        
        <pitch>
          <step>F</step>
          <alter>+1</alter>
          <octave>5</octave>
        </pitch>
        <duration>24</duration>
        <type>16th</type>
        <accidental>sharp</accidental>
        <lyric>
          <text />
        </lyric>
      </note>
      <note>
        
        <pitch>
          <step>G</step>
          <octave>5</octave>
        </pitch>
        <duration>24</duration>
        <type>16th</type>
        <lyric>
          <text />
        </lyric>
      </note>
      <note>
        
        <pitch>
          <step>E</step>
          <octave>5</octave>
        </pitch>
        <duration>72</duration>
        <type>eighth</type>
        <dot />
        <lyric>
          <syllabic>begin</syllabic>
          <text>be</text>
        </lyric>
      </note>
      <note>
        
        <pitch>
          <step>D</step>
          <octave>5</octave>
        </pitch>
        <duration>24</duration>
        <type>16th</type>
        <lyric>
          <text />
        </lyric>
      </note>
    </measure>
    <measure number="16-0">
      <attributes />
      <note>
        
        <pitch>
          <step>D</step>
          <octave>5</octave>
        </pitch>
        <duration>288</duration>
        <type>half</type>
        <dot />
        <lyric>
          <syllabic>end</syllabic>
          <text>ni  </text>
          <end-line />
        </lyric>
      </note>
      <note>
        
        <rest />
        <duration>96</duration>
        <type>quarter</type>
        <lyric>
          <text />
        </lyric>
      </note>
    </measure>
    <measure number="17-0">
      <attributes />
      <note>
        
        <pitch>
          <step>D</step>
          <octave>5</octave>
        </pitch>
        <duration>144</duration>
        <type>quarter</type>
        <dot />
        <lyric name="VOCAL_SECTION">
          <syllabic>begin</syllabic>
          <text>&#214;l</text>
        </lyric>
      </note>
      <note>
        
        <pitch>
          <step>E</step>
          <octave>5</octave>
        </pitch>
        <duration>48</duration>
        <type>eighth</type>
        <lyric>
          <syllabic>end</syllabic>
          <text>me</text>
        </lyric>
      </note>
      <note>
        
        <pitch>
          <step>E</step>
          <octave>5</octave>
        </pitch>
        <duration>96</duration>
        <type>quarter</type>
        <lyric>
          <syllabic>single</syllabic>
          <text>den </text>
        </lyric>
      </note>
      <note>
        
        <pitch>
          <step>E</step>
          <alter>-1</alter>
          <octave>5</octave>
        </pitch>
        <duration>72</duration>
        <type>eighth</type>
        <dot />
        <accidental>flat</accidental>
        <lyric>
          <syllabic>begin</syllabic>
          <text>me</text>
        </lyric>
      </note>
      <note>
        
        <pitch>
          <step>D</step>
          <octave>5</octave>
        </pitch>
        <duration>24</duration>
        <type>16th</type>
        <lyric>
          <text />
        </lyric>
      </note>
    </measure>
    <measure number="18-0">
      <attributes />
      <note>
        
        <pitch>
          <step>D</step>
          <octave>5</octave>
        </pitch>
        <duration>96</duration>
        <type>quarter</type>
        <lyric>
          <syllabic>end</syllabic>
          <text>za</text>
        </lyric>
      </note>
      <note>
        
        <pitch>
          <step>E</step>
          <alter>-1</alter>
          <octave>5</octave>
        </pitch>
        <duration>48</duration>
        <type>eighth</type>
        <accidental>flat</accidental>
        <lyric>
          <text />
        </lyric>
      </note>
      <note>
        
        <pitch>
          <step>D</step>
          <octave>5</octave>
        </pitch>
        <duration>48</duration>
        <type>eighth</type>
        <lyric>
          <text />
        </lyric>
      </note>
      <note>
        
        <pitch>
          <step>C</step>
          <octave>5</octave>
        </pitch>
        <duration>48</duration>
        <type>eighth</type>
        <lyric>
          <syllabic>single</syllabic>
          <text>ra </text>
        </lyric>
      </note>
      <note>
        
        <pitch>
          <step>B</step>
          <alter>-0.5</alter>
          <octave>4</octave>
        </pitch>
        <duration>48</duration>
        <type>eighth</type>
        <accidental>quarter-flat</accidental>
        <lyric>
          <text />
        </lyric>
      </note>
      <note>
        
        <pitch>
          <step>C</step>
          <octave>5</octave>
        </pitch>
        <duration>96</duration>
        <type>quarter</type>
        <lyric>
          <text />
        </lyric>
      </note>
    </measure>
    <measure number="19-0">
      <attributes />
      <note>
        
        <pitch>
          <step>B</step>
          <alter>-0.5</alter>
          <octave>4</octave>
        </pitch>
        <duration>48</duration>
        <type>eighth</type>
        <accidental>quarter-flat</accidental>
        <lyric>
          <syllabic>begin</syllabic>
          <text>koy</text>
        </lyric>
      </note>
      <note>
        
        <pitch>
          <step>C</step>
          <octave>5</octave>
        </pitch>
        <duration>48</duration>
        <type>eighth</type>
        <lyric>
          <text />
        </lyric>
      </note>
      <note>
        
        <pitch>
          <step>D</step>
          <octave>5</octave>
        </pitch>
        <duration>96</duration>
        <type>quarter</type>
        <lyric>
          <syllabic>end</syllabic>
          <text>du</text>
        </lyric>
      </note>
      <note>
        
        <pitch>
          <step>D</step>
          <octave>5</octave>
        </pitch>
        <duration>24</duration>
        <type>16th</type>
        <lyric>
          <syllabic>single</syllabic>
          <text>lar </text>
        </lyric>
      </note>
      <note>
        
        <pitch>
          <step>E</step>
          <alter>-1</alter>
          <octave>5</octave>
        </pitch>
        <duration>24</duration>
        <type>16th</type>
        <accidental>flat</accidental>
        <lyric>
          <text />
        </lyric>
      </note>
      <note>
        
        <pitch>
          <step>D</step>
          <octave>5</octave>
        </pitch>
        <duration>24</duration>
        <type>16th</type>
        <lyric>
          <text />
        </lyric>
      </note>
      <note>
        
        <pitch>
          <step>E</step>
          <alter>-1</alter>
          <octave>5</octave>
        </pitch>
        <duration>24</duration>
        <type>16th</type>
        <accidental>flat</accidental>
        <lyric>
          <text />
        </lyric>
      </note>
      <note>
        
        <pitch>
          <step>C</step>
          <octave>5</octave>
        </pitch>
        <duration>48</duration>
        <type>eighth</type>
        <lyric>
          <syllabic>begin</syllabic>
          <text>be</text>
        </lyric>
      </note>
      <note>
        
        <pitch>
          <step>B</step>
          <alter>-0.5</alter>
          <octave>4</octave>
        </pitch>
        <duration>48</duration>
        <type>eighth</type>
        <accidental>quarter-flat</accidental>
        <lyric>
          <text />
        </lyric>
      </note>
    </measure>
    <measure number="20-0">
      <attributes />
      <note>
        
        <pitch>
          <step>A</step>
          <octave>4</octave>
        </pitch>
        <duration>192</duration>
        <type>half</type>
        <lyric>
          <syllabic>end</syllabic>
          <text>ni  </text>
          <end-line />
        </lyric>
      </note>
      <note>
        
        <pitch>
          <step>B</step>
          <alter>-0.5</alter>
          <octave>4</octave>
        </pitch>
        <duration>48</duration>
        <type>eighth</type>
        <accidental>quarter-flat</accidental>
        <lyric name="VOCAL_SECTION">
          <syllabic>single</syllabic>
          <text>Of </text>
        </lyric>
      </note>
      <note>
        
        <pitch>
          <step>C</step>
          <octave>5</octave>
        </pitch>
        <duration>48</duration>
        <type>eighth</type>
        <lyric>
          <text />
        </lyric>
      </note>
      <note>
        
        <pitch>
          <step>D</step>
          <octave>5</octave>
        </pitch>
        <duration>48</duration>
        <type>eighth</type>
        <lyric>
          <text />
        </lyric>
      </note>
      <note>
        
        <pitch>
          <step>E</step>
          <octave>5</octave>
        </pitch>
        <duration>48</duration>
        <type>eighth</type>
        <lyric>
          <text />
        </lyric>
      </note>
    </measure>
    <measure number="21-0">
      <attributes />
      <note>
        
        <pitch>
          <step>C</step>
          <octave>5</octave>
        </pitch>
        <duration>48</duration>
        <type>eighth</type>
        <lyric>
          <syllabic>begin</syllabic>
          <text>gen&#231;</text>
        </lyric>
      </note>
      <note>
        
        <grace steal-time-previous="10" />
        <pitch>
          <step>D</step>
          <octave>5</octave>
        </pitch>
        <lyric>
          <text />
        </lyric>
      </note>
      <note>
        
        <pitch>
          <step>B</step>
          <alter>-0.5</alter>
          <octave>4</octave>
        </pitch>
        <duration>72</duration>
        <type>eighth</type>
        <dot />
        <accidental>quarter-flat</accidental>
        <lyric>
          <text />
        </lyric>
      </note>
      <note>
        
        <pitch>
          <step>G</step>
          <octave>4</octave>
        </pitch>
        <duration>24</duration>
        <type>16th</type>
        <lyric>
          <text />
        </lyric>
      </note>
      <note>
        
        <pitch>
          <step>A</step>
          <octave>4</octave>
        </pitch>
        <duration>48</duration>
        <type>eighth</type>
        <lyric>
          <syllabic>end</syllabic>
          <text>li</text>
        </lyric>
      </note>
      <note>
        
        <pitch>
          <step>B</step>
          <alter>-0.5</alter>
          <octave>4</octave>
        </pitch>
        <duration>48</duration>
        <type>eighth</type>
        <accidental>quarter-flat</accidental>
        <lyric>
          <syllabic>begin</syllabic>
          <text>&#287;im_</text>
        </lyric>
      </note>
      <note>
        
        <pitch>
          <step>A</step>
          <octave>4</octave>
        </pitch>
        <duration>144</duration>
        <type>quarter</type>
        <dot />
        <lyric>
          <syllabic>end</syllabic>
          <text>ey</text>
        </lyric>
      </note>
    </measure>
    <measure number="22-0">
      <attributes />
      <note>
        
        <pitch>
          <step>A</step>
          <octave>4</octave>
        </pitch>
        <duration>288</duration>
        <type>half</type>
        <dot />
        <lyric>
          <syllabic>single</syllabic>
          <text>vah  </text>
          <end-line />
        </lyric>
      </note>
      <note>
        
        <rest />
        <duration>96</duration>
        <type>quarter</type>
        <lyric>
          <text />
        </lyric>
      </note>
    </measure>
    <measure number="23-0">
      <attributes />
      <note>
        
        <pitch>
          <step>D</step>
          <octave>5</octave>
        </pitch>
        <duration>144</duration>
        <type>quarter</type>
        <dot />
        <lyric name="VOCAL_SECTION">
          <syllabic>begin</syllabic>
          <text>&#214;l</text>
        </lyric>
      </note>
      <note>
        
        <pitch>
          <step>E</step>
          <octave>5</octave>
        </pitch>
        <duration>48</duration>
        <type>eighth</type>
        <lyric>
          <syllabic>end</syllabic>
          <text>me</text>
        </lyric>
      </note>
      <note>
        
        <pitch>
          <step>E</step>
          <octave>5</octave>
        </pitch>
        <duration>96</duration>
        <type>quarter</type>
        <lyric>
          <syllabic>single</syllabic>
          <text>den </text>
        </lyric>
      </note>
      <note>
        
        <pitch>
          <step>E</step>
          <alter>-1</alter>
          <octave>5</octave>
        </pitch>
        <duration>72</duration>
        <type>eighth</type>
        <dot />
        <accidental>flat</accidental>
        <lyric>
          <syllabic>begin</syllabic>
          <text>me</text>
        </lyric>
      </note>
      <note>
        
        <pitch>
          <step>D</step>
          <octave>5</octave>
        </pitch>
        <duration>24</duration>
        <type>16th</type>
        <lyric>
          <text />
        </lyric>
      </note>
    </measure>
    <measure number="24-0">
      <attributes />
      <note>
        
        <pitch>
          <step>D</step>
          <octave>5</octave>
        </pitch>
        <duration>96</duration>
        <type>quarter</type>
        <lyric>
          <syllabic>end</syllabic>
          <text>za</text>
        </lyric>
      </note>
      <note>
        
        <pitch>
          <step>E</step>
          <alter>-1</alter>
          <octave>5</octave>
        </pitch>
        <duration>48</duration>
        <type>eighth</type>
        <accidental>flat</accidental>
        <lyric>
          <text />
        </lyric>
      </note>
      <note>
        
        <pitch>
          <step>D</step>
          <octave>5</octave>
        </pitch>
        <duration>48</duration>
        <type>eighth</type>
        <lyric>
          <text />
        </lyric>
      </note>
      <note>
        
        <pitch>
          <step>C</step>
          <octave>5</octave>
        </pitch>
        <duration>48</duration>
        <type>eighth</type>
        <lyric>
          <syllabic>single</syllabic>
          <text>ra </text>
        </lyric>
      </note>
      <note>
        
        <pitch>
          <step>B</step>
          <alter>-0.5</alter>
          <octave>4</octave>
        </pitch>
        <duration>48</duration>
        <type>eighth</type>
        <accidental>quarter-flat</accidental>
        <lyric>
          <text />
        </lyric>
      </note>
      <note>
        
        <pitch>
          <step>C</step>
          <octave>5</octave>
        </pitch>
        <duration>96</duration>
        <type>quarter</type>
        <lyric>
          <text />
        </lyric>
      </note>
    </measure>
    <measure number="25-0">
      <attributes />
      <note>
        
        <pitch>
          <step>B</step>
          <alter>-0.5</alter>
          <octave>4</octave>
        </pitch>
        <duration>48</duration>
        <type>eighth</type>
        <accidental>quarter-flat</accidental>
        <lyric>
          <syllabic>begin</syllabic>
          <text>koy</text>
        </lyric>
      </note>
      <note>
        
        <pitch>
          <step>C</step>
          <octave>5</octave>
        </pitch>
        <duration>48</duration>
        <type>eighth</type>
        <lyric>
          <text />
        </lyric>
      </note>
      <note>
        
        <pitch>
          <step>D</step>
          <octave>5</octave>
        </pitch>
        <duration>96</duration>
        <type>quarter</type>
        <lyric>
          <syllabic>end</syllabic>
          <text>du</text>
        </lyric>
      </note>
      <note>
        
        <pitch>
          <step>D</step>
          <octave>5</octave>
        </pitch>
        <duration>24</duration>
        <type>16th</type>
        <lyric>
          <syllabic>single</syllabic>
          <text>lar </text>
        </lyric>
      </note>
      <note>
        
        <pitch>
          <step>E</step>
          <alter>-1</alter>
          <octave>5</octave>
        </pitch>
        <duration>24</duration>
        <type>16th</type>
        <accidental>flat</accidental>
        <lyric>
          <text />
        </lyric>
      </note>
      <note>
        
        <pitch>
          <step>D</step>
          <octave>5</octave>
        </pitch>
        <duration>24</duration>
        <type>16th</type>
        <lyric>
          <text />
        </lyric>
      </note>
      <note>
        
        <pitch>
          <step>E</step>
          <alter>-1</alter>
          <octave>5</octave>
        </pitch>
        <duration>24</duration>
        <type>16th</type>
        <accidental>flat</accidental>
        <lyric>
          <text />
        </lyric>
      </note>
      <note>
        
        <pitch>
          <step>C</step>
          <octave>5</octave>
        </pitch>
        <duration>48</duration>
        <type>eighth</type>
        <lyric>
          <syllabic>begin</syllabic>
          <text>be</text>
        </lyric>
      </note>
      <note>
        
        <pitch>
          <step>B</step>
          <alter>-0.5</alter>
          <octave>4</octave>
        </pitch>
        <duration>48</duration>
        <type>eighth</type>
        <accidental>quarter-flat</accidental>
        <lyric>
          <text />
        </lyric>
      </note>
    </measure>
    <measure number="26-0">
      <attributes />
      <note>
        
        <pitch>
          <step>A</step>
          <octave>4</octave>
        </pitch>
        <duration>192</duration>
        <type>half</type>
        <lyric>
          <syllabic>end</syllabic>
          <text>ni  </text>
          <end-line />
        </lyric>
      </note>
      <note>
        
        <pitch>
          <step>B</step>
          <alter>-0.5</alter>
          <octave>4</octave>
        </pitch>
        <duration>48</duration>
        <type>eighth</type>
        <accidental>quarter-flat</accidental>
        <lyric name="VOCAL_SECTION">
          <syllabic>single</syllabic>
          <text>Of </text>
        </lyric>
      </note>
      <note>
        
        <pitch>
          <step>C</step>
          <octave>5</octave>
        </pitch>
        <duration>48</duration>
        <type>eighth</type>
        <lyric>
          <text />
        </lyric>
      </note>
      <note>
        
        <pitch>
          <step>D</step>
          <octave>5</octave>
        </pitch>
        <duration>48</duration>
        <type>eighth</type>
        <lyric>
          <text />
        </lyric>
      </note>
      <note>
        
        <pitch>
          <step>E</step>
          <octave>5</octave>
        </pitch>
        <duration>48</duration>
        <type>eighth</type>
        <lyric>
          <text />
        </lyric>
      </note>
    </measure>
    <measure number="27-0">
      <attributes />
      <note>
        
        <pitch>
          <step>C</step>
          <octave>5</octave>
        </pitch>
        <duration>48</duration>
        <type>eighth</type>
        <lyric>
          <syllabic>begin</syllabic>
          <text>gen&#231;</text>
        </lyric>
      </note>
      <note>
        
        <grace steal-time-previous="10" />
        <pitch>
          <step>D</step>
          <octave>5</octave>
        </pitch>
        <lyric>
          <text />
        </lyric>
      </note>
      <note>
        
        <pitch>
          <step>B</step>
          <alter>-0.5</alter>
          <octave>4</octave>
        </pitch>
        <duration>72</duration>
        <type>eighth</type>
        <dot />
        <accidental>quarter-flat</accidental>
        <lyric>
          <text />
        </lyric>
      </note>
      <note>
        
        <pitch>
          <step>G</step>
          <octave>4</octave>
        </pitch>
        <duration>24</duration>
        <type>16th</type>
        <lyric>
          <text />
        </lyric>
      </note>
      <note>
        
        <pitch>
          <step>A</step>
          <octave>4</octave>
        </pitch>
        <duration>48</duration>
        <type>eighth</type>
        <lyric>
          <syllabic>end</syllabic>
          <text>li</text>
        </lyric>
      </note>
      <note>
        
        <pitch>
          <step>B</step>
          <alter>-0.5</alter>
          <octave>4</octave>
        </pitch>
        <duration>48</duration>
        <type>eighth</type>
        <accidental>quarter-flat</accidental>
        <lyric>
          <syllabic>begin</syllabic>
          <text>&#287;im_</text>
        </lyric>
      </note>
      <note>
        
        <pitch>
          <step>A</step>
          <octave>4</octave>
        </pitch>
        <duration>144</duration>
        <type>quarter</type>
        <dot />
        <lyric>
          <syllabic>end</syllabic>
          <text>ey</text>
        </lyric>
      </note>
    </measure>
    <measure number="28-0">
      <attributes />
      <note>
        
        <pitch>
          <step>A</step>
          <octave>4</octave>
        </pitch>
        <duration>288</duration>
        <type>half</type>
        <dot />
        <lyric>
          <syllabic>single</syllabic>
          <text>vah  </text>
          <end-line />
        </lyric>
      </note>
      <note>
        
        <rest />
        <duration>96</duration>
        <type>quarter</type>
        <lyric>
          <text />
        </lyric>
      </note>
    </measure>
    <measure number="29-0">
      <attributes />
      <note>
        
        <pitch>
          <step>D</step>
          <octave>5</octave>
        </pitch>
        <duration>48</duration>
        <type>eighth</type>
        <lyric name="ARANA&#286;ME">
          <text>ARANA&#286;ME</text>
        </lyric>
      </note>
      <note>
        
        <pitch>
          <step>E</step>
          <octave>5</octave>
        </pitch>
        <duration>144</duration>
        <type>quarter</type>
        <dot />
        <lyric>
          <text>.</text>
        </lyric>
      </note>
      <note>
        
        <pitch>
          <step>E</step>
          <octave>5</octave>
        </pitch>
        <duration>96</duration>
        <type>quarter</type>
        <lyric>
          <text>.</text>
        </lyric>
      </note>
      <note>
        
        <pitch>
          <step>E</step>
          <alter>-1</alter>
          <octave>5</octave>
        </pitch>
        <duration>72</duration>
        <type>eighth</type>
        <dot />
        <accidental>flat</accidental>
        <lyric>
          <text>.</text>
        </lyric>
      </note>
      <note>
        
        <pitch>
          <step>D</step>
          <octave>5</octave>
        </pitch>
        <duration>24</duration>
        <type>16th</type>
        <lyric>
          <text>.</text>
        </lyric>
      </note>
    </measure>
    <measure number="30-0">
      <attributes />
      <note>
        
        <pitch>
          <step>D</step>
          <octave>5</octave>
        </pitch>
        <duration>96</duration>
        <type>quarter</type>
        <lyric>
          <text>.</text>
        </lyric>
      </note>
      <note>
        
        <pitch>
          <step>E</step>
          <alter>-1</alter>
          <octave>5</octave>
        </pitch>
        <duration>48</duration>
        <type>eighth</type>
        <accidental>flat</accidental>
        <lyric>
          <text>.</text>
        </lyric>
      </note>
      <note>
        
        <pitch>
          <step>D</step>
          <octave>5</octave>
        </pitch>
        <duration>48</duration>
        <type>eighth</type>
        <lyric>
          <text>.</text>
        </lyric>
      </note>
      <note>
        
        <pitch>
          <step>C</step>
          <octave>5</octave>
        </pitch>
        <duration>48</duration>
        <type>eighth</type>
        <lyric>
          <text>.</text>
        </lyric>
      </note>
      <note>
        
        <pitch>
          <step>B</step>
          <alter>-0.5</alter>
          <octave>4</octave>
        </pitch>
        <duration>48</duration>
        <type>eighth</type>
        <accidental>quarter-flat</accidental>
        <lyric>
          <text>.</text>
        </lyric>
      </note>
      <note>
        
        <pitch>
          <step>C</step>
          <octave>5</octave>
        </pitch>
        <duration>96</duration>
        <type>quarter</type>
        <lyric>
          <text>.</text>
        </lyric>
      </note>
    </measure>
    <measure number="31-0">
      <attributes />
      <note>
        
        <pitch>
          <step>B</step>
          <alter>-0.5</alter>
          <octave>4</octave>
        </pitch>
        <duration>48</duration>
        <type>eighth</type>
        <accidental>quarter-flat</accidental>
        <lyric>
          <text>.</text>
        </lyric>
      </note>
      <note>
        
        <pitch>
          <step>C</step>
          <octave>5</octave>
        </pitch>
        <duration>48</duration>
        <type>eighth</type>
        <lyric>
          <text>.</text>
        </lyric>
      </note>
      <note>
        
        <pitch>
          <step>D</step>
          <octave>5</octave>
        </pitch>
        <duration>96</duration>
        <type>quarter</type>
        <lyric>
          <text>.</text>
        </lyric>
      </note>
      <note>
        
        <pitch>
          <step>D</step>
          <octave>5</octave>
        </pitch>
        <duration>24</duration>
        <type>16th</type>
        <lyric>
          <text>.</text>
        </lyric>
      </note>
      <note>
        
        <pitch>
          <step>E</step>
          <alter>-1</alter>
          <octave>5</octave>
        </pitch>
        <duration>24</duration>
        <type>16th</type>
        <accidental>flat</accidental>
        <lyric>
          <text>.</text>
        </lyric>
      </note>
      <note>
        
        <pitch>
          <step>D</step>
          <octave>5</octave>
        </pitch>
        <duration>24</duration>
        <type>16th</type>
        <lyric>
          <text>.</text>
        </lyric>
      </note>
      <note>
        
        <pitch>
          <step>E</step>
          <alter>-1</alter>
          <octave>5</octave>
        </pitch>
        <duration>24</duration>
        <type>16th</type>
        <accidental>flat</accidental>
        <lyric>
          <text>.</text>
        </lyric>
      </note>
      <note>
        
        <pitch>
          <step>C</step>
          <octave>5</octave>
        </pitch>
        <duration>48</duration>
        <type>eighth</type>
        <lyric>
          <text>.</text>
        </lyric>
      </note>
      <note>
        
        <pitch>
          <step>B</step>
          <alter>-0.5</alter>
          <octave>4</octave>
        </pitch>
        <duration>48</duration>
        <type>eighth</type>
        <accidental>quarter-flat</accidental>
        <lyric>
          <text>.</text>
        </lyric>
      </note>
    </measure>
    <measure number="32-0">
      <attributes />
      <note>
        
        <pitch>
          <step>A</step>
          <octave>4</octave>
        </pitch>
        <duration>192</duration>
        <type>half</type>
        <lyric>
          <text>.</text>
        </lyric>
      </note>
      <note>
        
        <pitch>
          <step>B</step>
          <alter>-0.5</alter>
          <octave>4</octave>
        </pitch>
        <duration>48</duration>
        <type>eighth</type>
        <accidental>quarter-flat</accidental>
        <lyric>
          <text>.</text>
        </lyric>
      </note>
      <note>
        
        <pitch>
          <step>C</step>
          <octave>5</octave>
        </pitch>
        <duration>48</duration>
        <type>eighth</type>
        <lyric>
          <text>.</text>
        </lyric>
      </note>
      <note>
        
        <pitch>
          <step>D</step>
          <octave>5</octave>
        </pitch>
        <duration>48</duration>
        <type>eighth</type>
        <lyric>
          <text>.</text>
        </lyric>
      </note>
      <note>
        
        <pitch>
          <step>E</step>
          <octave>5</octave>
        </pitch>
        <duration>48</duration>
        <type>eighth</type>
        <lyric>
          <text>.</text>
        </lyric>
      </note>
    </measure>
    <measure number="33-0">
      <attributes />
      <note>
        
        <pitch>
          <step>C</step>
          <octave>5</octave>
        </pitch>
        <duration>48</duration>
        <type>eighth</type>
        <lyric>
          <text>.</text>
        </lyric>
      </note>
      <note>
        
        <grace steal-time-previous="10" />
        <pitch>
          <step>D</step>
          <octave>5</octave>
        </pitch>
        <lyric>
          <text>.</text>
        </lyric>
      </note>
      <note>
        
        <pitch>
          <step>B</step>
          <alter>-0.5</alter>
          <octave>4</octave>
        </pitch>
        <duration>72</duration>
        <type>eighth</type>
        <dot />
        <accidental>quarter-flat</accidental>
        <lyric>
          <text>.</text>
        </lyric>
      </note>
      <note>
        
        <pitch>
          <step>G</step>
          <octave>4</octave>
        </pitch>
        <duration>24</duration>
        <type>16th</type>
        <lyric>
          <text>.</text>
        </lyric>
      </note>
      <note>
        
        <pitch>
          <step>A</step>
          <octave>4</octave>
        </pitch>
        <duration>48</duration>
        <type>eighth</type>
        <lyric>
          <text>.</text>
        </lyric>
      </note>
      <note>
        
        <pitch>
          <step>B</step>
          <alter>-0.5</alter>
          <octave>4</octave>
        </pitch>
        <duration>48</duration>
        <type>eighth</type>
        <accidental>quarter-flat</accidental>
        <lyric>
          <text>.</text>
        </lyric>
      </note>
      <note>
        
        <pitch>
          <step>A</step>
          <octave>4</octave>
        </pitch>
        <duration>144</duration>
        <type>quarter</type>
        <dot />
        <lyric>
          <text>.</text>
        </lyric>
      </note>
    </measure>
    <measure number="34-0">
      <attributes />
      <note>
        
        <pitch>
          <step>A</step>
          <octave>4</octave>
        </pitch>
        <duration>288</duration>
        <type>half</type>
        <dot />
        <lyric>
          <text>.</text>
        </lyric>
      </note>
      <note>
        
        <rest />
        <duration>96</duration>
        <type>quarter</type>
        <lyric>
          <text />
        </lyric>
      </note>
    </measure>
    <measure number="35-0">
      <attributes />
      <note>
        
        <pitch>
          <step>D</step>
          <octave>5</octave>
        </pitch>
        <duration>48</duration>
        <type>eighth</type>
        <lyric name="ARANA&#286;ME">
          <text>ARANA&#286;ME</text>
        </lyric>
      </note>
      <note>
        
        <pitch>
          <step>E</step>
          <octave>5</octave>
        </pitch>
        <duration>144</duration>
        <type>quarter</type>
        <dot />
        <lyric>
          <text>.</text>
        </lyric>
      </note>
      <note>
        
        <pitch>
          <step>E</step>
          <octave>5</octave>
        </pitch>
        <duration>96</duration>
        <type>quarter</type>
        <lyric>
          <text>.</text>
        </lyric>
      </note>
      <note>
        
        <pitch>
          <step>E</step>
          <alter>-1</alter>
          <octave>5</octave>
        </pitch>
        <duration>72</duration>
        <type>eighth</type>
        <dot />
        <accidental>flat</accidental>
        <lyric>
          <text>.</text>
        </lyric>
      </note>
      <note>
        
        <pitch>
          <step>D</step>
          <octave>5</octave>
        </pitch>
        <duration>24</duration>
        <type>16th</type>
        <lyric>
          <text>.</text>
        </lyric>
      </note>
    </measure>
    <measure number="36-0">
      <attributes />
      <note>
        
        <pitch>
          <step>D</step>
          <octave>5</octave>
        </pitch>
        <duration>96</duration>
        <type>quarter</type>
        <lyric>
          <text>.</text>
        </lyric>
      </note>
      <note>
        
        <pitch>
          <step>E</step>
          <alter>-1</alter>
          <octave>5</octave>
        </pitch>
        <duration>48</duration>
        <type>eighth</type>
        <accidental>flat</accidental>
        <lyric>
          <text>.</text>
        </lyric>
      </note>
      <note>
        
        <pitch>
          <step>D</step>
          <octave>5</octave>
        </pitch>
        <duration>48</duration>
        <type>eighth</type>
        <lyric>
          <text>.</text>
        </lyric>
      </note>
      <note>
        
        <pitch>
          <step>C</step>
          <octave>5</octave>
        </pitch>
        <duration>48</duration>
        <type>eighth</type>
        <lyric>
          <text>.</text>
        </lyric>
      </note>
      <note>
        
        <pitch>
          <step>B</step>
          <alter>-0.5</alter>
          <octave>4</octave>
        </pitch>
        <duration>48</duration>
        <type>eighth</type>
        <accidental>quarter-flat</accidental>
        <lyric>
          <text>.</text>
        </lyric>
      </note>
      <note>
        
        <pitch>
          <step>C</step>
          <octave>5</octave>
        </pitch>
        <duration>96</duration>
        <type>quarter</type>
        <lyric>
          <text>.</text>
        </lyric>
      </note>
    </measure>
    <measure number="37-0">
      <attributes />
      <note>
        
        <pitch>
          <step>B</step>
          <alter>-0.5</alter>
          <octave>4</octave>
        </pitch>
        <duration>48</duration>
        <type>eighth</type>
        <accidental>quarter-flat</accidental>
        <lyric>
          <text>.</text>
        </lyric>
      </note>
      <note>
        
        <pitch>
          <step>C</step>
          <octave>5</octave>
        </pitch>
        <duration>48</duration>
        <type>eighth</type>
        <lyric>
          <text>.</text>
        </lyric>
      </note>
      <note>
        
        <pitch>
          <step>D</step>
          <octave>5</octave>
        </pitch>
        <duration>96</duration>
        <type>quarter</type>
        <lyric>
          <text>.</text>
        </lyric>
      </note>
      <note>
        
        <pitch>
          <step>D</step>
          <octave>5</octave>
        </pitch>
        <duration>24</duration>
        <type>16th</type>
        <lyric>
          <text>.</text>
        </lyric>
      </note>
      <note>
        
        <pitch>
          <step>E</step>
          <alter>-1</alter>
          <octave>5</octave>
        </pitch>
        <duration>24</duration>
        <type>16th</type>
        <accidental>flat</accidental>
        <lyric>
          <text>.</text>
        </lyric>
      </note>
      <note>
        
        <pitch>
          <step>D</step>
          <octave>5</octave>
        </pitch>
        <duration>24</duration>
        <type>16th</type>
        <lyric>
          <text>.</text>
        </lyric>
      </note>
      <note>
        
        <pitch>
          <step>E</step>
          <alter>-1</alter>
          <octave>5</octave>
        </pitch>
        <duration>24</duration>
        <type>16th</type>
        <accidental>flat</accidental>
        <lyric>
          <text>.</text>
        </lyric>
      </note>
      <note>
        
        <pitch>
          <step>C</step>
          <octave>5</octave>
        </pitch>
        <duration>48</duration>
        <type>eighth</type>
        <lyric>
          <text>.</text>
        </lyric>
      </note>
      <note>
        
        <pitch>
          <step>B</step>
          <alter>-0.5</alter>
          <octave>4</octave>
        </pitch>
        <duration>48</duration>
        <type>eighth</type>
        <accidental>quarter-flat</accidental>
        <lyric>
          <text>.</text>
        </lyric>
      </note>
    </measure>
    <measure number="38-0">
      <attributes />
      <note>
        
        <pitch>
          <step>A</step>
          <octave>4</octave>
        </pitch>
        <duration>192</duration>
        <type>half</type>
        <lyric>
          <text>.</text>
        </lyric>
      </note>
      <note>
        
        <pitch>
          <step>B</step>
          <alter>-0.5</alter>
          <octave>4</octave>
        </pitch>
        <duration>48</duration>
        <type>eighth</type>
        <accidental>quarter-flat</accidental>
        <lyric>
          <text>.</text>
        </lyric>
      </note>
      <note>
        
        <pitch>
          <step>C</step>
          <octave>5</octave>
        </pitch>
        <duration>48</duration>
        <type>eighth</type>
        <lyric>
          <text>.</text>
        </lyric>
      </note>
      <note>
        
        <pitch>
          <step>D</step>
          <octave>5</octave>
        </pitch>
        <duration>48</duration>
        <type>eighth</type>
        <lyric>
          <text>.</text>
        </lyric>
      </note>
      <note>
        
        <pitch>
          <step>E</step>
          <octave>5</octave>
        </pitch>
        <duration>48</duration>
        <type>eighth</type>
        <lyric>
          <text>.</text>
        </lyric>
      </note>
    </measure>
    <measure number="39-0">
      <attributes />
      <note>
        
        <pitch>
          <step>C</step>
          <octave>5</octave>
        </pitch>
        <duration>48</duration>
        <type>eighth</type>
        <lyric>
          <text>.</text>
        </lyric>
      </note>
      <note>
        
        <grace steal-time-previous="10" />
        <pitch>
          <step>D</step>
          <octave>5</octave>
        </pitch>
        <lyric>
          <text>.</text>
        </lyric>
      </note>
      <note>
        
        <pitch>
          <step>B</step>
          <alter>-0.5</alter>
          <octave>4</octave>
        </pitch>
        <duration>72</duration>
        <type>eighth</type>
        <dot />
        <accidental>quarter-flat</accidental>
        <lyric>
          <text>.</text>
        </lyric>
      </note>
      <note>
        
        <pitch>
          <step>G</step>
          <octave>4</octave>
        </pitch>
        <duration>24</duration>
        <type>16th</type>
        <lyric>
          <text>.</text>
        </lyric>
      </note>
      <note>
        
        <pitch>
          <step>A</step>
          <octave>4</octave>
        </pitch>
        <duration>48</duration>
        <type>eighth</type>
        <lyric>
          <text>.</text>
        </lyric>
      </note>
      <note>
        
        <pitch>
          <step>B</step>
          <alter>-0.5</alter>
          <octave>4</octave>
        </pitch>
        <duration>48</duration>
        <type>eighth</type>
        <accidental>quarter-flat</accidental>
        <lyric>
          <text>.</text>
        </lyric>
      </note>
      <note>
        
        <pitch>
          <step>A</step>
          <octave>4</octave>
        </pitch>
        <duration>144</duration>
        <type>quarter</type>
        <dot />
        <lyric>
          <text>.</text>
        </lyric>
      </note>
    </measure>
    <measure number="40-0">
      <attributes />
      <note>
        
        <pitch>
          <step>A</step>
          <octave>4</octave>
        </pitch>
        <duration>288</duration>
        <type>half</type>
        <dot />
        <lyric>
          <text>.</text>
        </lyric>
      </note>
      <note>
        
        <rest />
        <duration>96</duration>
        <type>quarter</type>
        <lyric>
          <text />
        </lyric>
      </note>
    </measure>
    <measure number="41-0">
      <attributes />
      <note>
        
        <rest />
        <duration>96</duration>
        <type>quarter</type>
        <lyric name="VOCAL_SECTION">
          <text />
        </lyric>
      </note>
      <note>
        
        <pitch>
          <step>G</step>
          <octave>4</octave>
        </pitch>
        <duration>48</duration>
        <type>eighth</type>
        <lyric>
          <syllabic>begin</syllabic>
          <text>&#199;a</text>
        </lyric>
      </note>
      <note>
        
        <pitch>
          <step>A</step>
          <octave>4</octave>
        </pitch>
        <duration>48</duration>
        <type>eighth</type>
        <lyric>
          <syllabic>end</syllabic>
          <text>nak</text>
        </lyric>
      </note>
      <note>
        
        <pitch>
          <step>A</step>
          <octave>4</octave>
        </pitch>
        <duration>48</duration>
        <type>eighth</type>
        <lyric>
          <syllabic>begin</syllabic>
          <text>ka</text>
        </lyric>
      </note>
      <note>
        
        <pitch>
          <step>A</step>
          <octave>4</octave>
        </pitch>
        <duration>144</duration>
        <type>quarter</type>
        <dot />
        <lyric>
          <syllabic>end</syllabic>
          <text>le </text>
        </lyric>
      </note>
    </measure>
    <measure number="42-0">
      <attributes />
      <note>
        
        <pitch>
          <step>G</step>
          <octave>5</octave>
        </pitch>
        <duration>72</duration>
        <type>eighth</type>
        <dot />
        <lyric>
          <syllabic>begin</syllabic>
          <text>i</text>
        </lyric>
      </note>
      <note>
        
        <pitch>
          <step>F</step>
          <alter>+1</alter>
          <octave>5</octave>
        </pitch>
        <duration>24</duration>
        <type>16th</type>
        <accidental>sharp</accidental>
        <lyric>
          <text />
        </lyric>
      </note>
      <note>
        
        <pitch>
          <step>E</step>
          <octave>5</octave>
        </pitch>
        <duration>72</duration>
        <type>eighth</type>
        <dot />
        <lyric>
          <syllabic>end</syllabic>
          <text>&#231;in</text>
        </lyric>
      </note>
      <note>
        
        <pitch>
          <step>D</step>
          <octave>5</octave>
        </pitch>
        <duration>24</duration>
        <type>16th</type>
        <lyric>
          <text />
        </lyric>
      </note>
      <note>
        
        <pitch>
          <step>D</step>
          <octave>5</octave>
        </pitch>
        <duration>144</duration>
        <type>quarter</type>
        <dot />
        <lyric>
          <syllabic>single</syllabic>
          <text>de </text>
        </lyric>
      </note>
      <note>
        
        <pitch>
          <step>C</step>
          <octave>5</octave>
        </pitch>
        <duration>48</duration>
        <type>eighth</type>
        <lyric>
          <text />
        </lyric>
      </note>
    </measure>
    <measure number="43-0">
      <attributes />
      <note>
        
        <pitch>
          <step>D</step>
          <octave>5</octave>
        </pitch>
        <duration>96</duration>
        <type>quarter</type>
        <lyric>
          <syllabic>begin</syllabic>
          <text>Ay</text>
        </lyric>
      </note>
      <note>
        
        <pitch>
          <step>E</step>
          <octave>5</octave>
        </pitch>
        <duration>96</duration>
        <type>quarter</type>
        <lyric>
          <syllabic>end</syllabic>
          <text>na</text>
        </lyric>
      </note>
      <note>
        
        <pitch>
          <step>E</step>
          <octave>5</octave>
        </pitch>
        <duration>24</duration>
        <type>16th</type>
        <lyric>
          <syllabic>single</syllabic>
          <text>l&#305; </text>
        </lyric>
      </note>
      <note>
        
        <pitch>
          <step>G</step>
          <octave>5</octave>
        </pitch>
        <duration>24</duration>
        <type>16th</type>
        <lyric>
          <text />
        </lyric>
      </note>
      <note>
        
        <pitch>
          <step>F</step>
          <alter>+1</alter>
          <octave>5</octave>
        </pitch>
        <duration>24</duration>
        <type>16th</type>
        <accidental>sharp</accidental>
        <lyric>
          <text />
        </lyric>
      </note>
      <note>
        
        <pitch>
          <step>G</step>
          <octave>5</octave>
        </pitch>
        <duration>24</duration>
        <type>16th</type>
        <lyric>
          <text />
        </lyric>
      </note>
      <note>
        
        <pitch>
          <step>E</step>
          <octave>5</octave>
        </pitch>
        <duration>72</duration>
        <type>eighth</type>
        <dot />
        <lyric>
          <syllabic>begin</syllabic>
          <text>&#231;ar</text>
        </lyric>
      </note>
      <note>
        
        <pitch>
          <step>D</step>
          <octave>5</octave>
        </pitch>
        <duration>24</duration>
        <type>16th</type>
        <lyric>
          <text />
        </lyric>
      </note>
    </measure>
    <measure number="44-0">
      <attributes />
      <note>
        
        <pitch>
          <step>D</step>
          <octave>5</octave>
        </pitch>
        <duration>288</duration>
        <type>half</type>
        <dot />
        <lyric>
          <syllabic>end</syllabic>
          <text>&#351;&#305;  </text>
          <end-line />
        </lyric>
      </note>
      <note>
        
        <rest />
        <duration>96</duration>
        <type>quarter</type>
        <lyric>
          <text />
        </lyric>
      </note>
    </measure>
    <measure number="45-0">
      <attributes />
      <note>
        
        <rest />
        <duration>96</duration>
        <type>quarter</type>
        <lyric name="VOCAL_SECTION">
          <text />
        </lyric>
      </note>
      <note>
        
        <pitch>
          <step>D</step>
          <octave>5</octave>
        </pitch>
        <duration>48</duration>
        <type>eighth</type>
        <lyric>
          <syllabic>begin</syllabic>
          <text>A</text>
        </lyric>
      </note>
      <note>
        
        <pitch>
          <step>E</step>
          <octave>5</octave>
        </pitch>
        <duration>48</duration>
        <type>eighth</type>
        <lyric>
          <syllabic>end</syllabic>
          <text>na </text>
        </lyric>
      </note>
      <note>
        
        <pitch>
          <step>E</step>
          <octave>5</octave>
        </pitch>
        <duration>96</duration>
        <type>quarter</type>
        <lyric>
          <syllabic>single</syllabic>
          <text>ben </text>
        </lyric>
      </note>
      <note>
        
        <pitch>
          <step>E</step>
          <alter>-1</alter>
          <octave>5</octave>
        </pitch>
        <duration>72</duration>
        <type>eighth</type>
        <dot />
        <accidental>flat</accidental>
        <lyric>
          <syllabic>begin</syllabic>
          <text>gi</text>
        </lyric>
      </note>
      <note>
        
        <pitch>
          <step>D</step>
          <octave>5</octave>
        </pitch>
        <duration>24</duration>
        <type>16th</type>
        <lyric>
          <text />
        </lyric>
      </note>
    </measure>
    <measure number="46-0">
      <attributes />
      <note>
        
        <pitch>
          <step>D</step>
          <octave>5</octave>
        </pitch>
        <duration>96</duration>
        <type>quarter</type>
        <lyric>
          <syllabic>end</syllabic>
          <text>di</text>
        </lyric>
      </note>
      <note>
        
        <pitch>
          <step>E</step>
          <alter>-1</alter>
          <octave>5</octave>
        </pitch>
        <duration>48</duration>
        <type>eighth</type>
        <accidental>flat</accidental>
        <lyric>
          <text />
        </lyric>
      </note>
      <note>
        
        <pitch>
          <step>D</step>
          <octave>5</octave>
        </pitch>
        <duration>48</duration>
        <type>eighth</type>
        <lyric>
          <text />
        </lyric>
      </note>
      <note>
        
        <pitch>
          <step>C</step>
          <octave>5</octave>
        </pitch>
        <duration>48</duration>
        <type>eighth</type>
        <lyric>
          <syllabic>single</syllabic>
          <text>yom </text>
        </lyric>
      </note>
      <note>
        
        <pitch>
          <step>B</step>
          <alter>-0.5</alter>
          <octave>4</octave>
        </pitch>
        <duration>48</duration>
        <type>eighth</type>
        <accidental>quarter-flat</accidental>
        <lyric>
          <text />
        </lyric>
      </note>
      <note>
        
        <pitch>
          <step>C</step>
          <octave>5</octave>
        </pitch>
        <duration>96</duration>
        <type>quarter</type>
        <lyric>
          <text />
        </lyric>
      </note>
    </measure>
    <measure number="47-0">
      <attributes />
      <note>
        
        <pitch>
          <step>B</step>
          <alter>-0.5</alter>
          <octave>4</octave>
        </pitch>
        <duration>48</duration>
        <type>eighth</type>
        <accidental>quarter-flat</accidental>
        <lyric>
          <syllabic>begin</syllabic>
          <text>d&#252;&#351;</text>
        </lyric>
      </note>
      <note>
        
        <pitch>
          <step>C</step>
          <octave>5</octave>
        </pitch>
        <duration>48</duration>
        <type>eighth</type>
        <lyric>
          <text />
        </lyric>
      </note>
      <note>
        
        <pitch>
          <step>D</step>
          <octave>5</octave>
        </pitch>
        <duration>96</duration>
        <type>quarter</type>
        <lyric>
          <syllabic>end</syllabic>
          <text>ma</text>
        </lyric>
      </note>
      <note>
        
        <pitch>
          <step>D</step>
          <octave>5</octave>
        </pitch>
        <duration>24</duration>
        <type>16th</type>
        <lyric>
          <syllabic>single</syllabic>
          <text>na </text>
        </lyric>
      </note>
      <note>
        
        <pitch>
          <step>E</step>
          <alter>-1</alter>
          <octave>5</octave>
        </pitch>
        <duration>24</duration>
        <type>16th</type>
        <accidental>flat</accidental>
        <lyric>
          <text />
        </lyric>
      </note>
      <note>
        
        <pitch>
          <step>D</step>
          <octave>5</octave>
        </pitch>
        <duration>24</duration>
        <type>16th</type>
        <lyric>
          <text />
        </lyric>
      </note>
      <note>
        
        <pitch>
          <step>E</step>
          <alter>-1</alter>
          <octave>5</octave>
        </pitch>
        <duration>24</duration>
        <type>16th</type>
        <accidental>flat</accidental>
        <lyric>
          <text />
        </lyric>
      </note>
      <note>
        
        <pitch>
          <step>C</step>
          <octave>5</octave>
        </pitch>
        <duration>48</duration>
        <type>eighth</type>
        <lyric>
          <syllabic>begin</syllabic>
          <text>kar</text>
        </lyric>
      </note>
      <note>
        
        <pitch>
          <step>B</step>
          <alter>-0.5</alter>
          <octave>4</octave>
        </pitch>
        <duration>48</duration>
        <type>eighth</type>
        <accidental>quarter-flat</accidental>
        <lyric>
          <text />
        </lyric>
      </note>
    </measure>
    <measure number="48-0">
      <attributes />
      <note>
        
        <pitch>
          <step>A</step>
          <octave>4</octave>
        </pitch>
        <duration>192</duration>
        <type>half</type>
        <lyric>
          <syllabic>end</syllabic>
          <text>&#351;&#305;  </text>
          <end-line />
        </lyric>
      </note>
      <note>
        
        <pitch>
          <step>B</step>
          <alter>-0.5</alter>
          <octave>4</octave>
        </pitch>
        <duration>48</duration>
        <type>eighth</type>
        <accidental>quarter-flat</accidental>
        <lyric name="VOCAL_SECTION">
          <syllabic>single</syllabic>
          <text>Of </text>
        </lyric>
      </note>
      <note>
        
        <pitch>
          <step>C</step>
          <octave>5</octave>
        </pitch>
        <duration>48</duration>
        <type>eighth</type>
        <lyric>
          <text />
        </lyric>
      </note>
      <note>
        
        <pitch>
          <step>D</step>
          <octave>5</octave>
        </pitch>
        <duration>48</duration>
        <type>eighth</type>
        <lyric>
          <text />
        </lyric>
      </note>
      <note>
        
        <pitch>
          <step>E</step>
          <octave>5</octave>
        </pitch>
        <duration>48</duration>
        <type>eighth</type>
        <lyric>
          <text />
        </lyric>
      </note>
    </measure>
    <measure number="49-0">
      <attributes />
      <note>
        
        <pitch>
          <step>C</step>
          <octave>5</octave>
        </pitch>
        <duration>48</duration>
        <type>eighth</type>
        <lyric>
          <syllabic>begin</syllabic>
          <text>gen&#231;</text>
        </lyric>
      </note>
      <note>
        
        <grace steal-time-previous="10" />
        <pitch>
          <step>D</step>
          <octave>5</octave>
        </pitch>
        <lyric>
          <text />
        </lyric>
      </note>
      <note>
        
        <pitch>
          <step>B</step>
          <alter>-0.5</alter>
          <octave>4</octave>
        </pitch>
        <duration>72</duration>
        <type>eighth</type>
        <dot />
        <accidental>quarter-flat</accidental>
        <lyric>
          <text />
        </lyric>
      </note>
      <note>
        
        <pitch>
          <step>G</step>
          <octave>4</octave>
        </pitch>
        <duration>24</duration>
        <type>16th</type>
        <lyric>
          <text />
        </lyric>
      </note>
      <note>
        
        <pitch>
          <step>A</step>
          <octave>4</octave>
        </pitch>
        <duration>48</duration>
        <type>eighth</type>
        <lyric>
          <syllabic>end</syllabic>
          <text>li</text>
        </lyric>
      </note>
      <note>
        
        <pitch>
          <step>B</step>
          <alter>-0.5</alter>
          <octave>4</octave>
        </pitch>
        <duration>48</duration>
        <type>eighth</type>
        <accidental>quarter-flat</accidental>
        <lyric>
          <syllabic>begin</syllabic>
          <text>&#287;im_</text>
        </lyric>
      </note>
      <note>
        
        <pitch>
          <step>A</step>
          <octave>4</octave>
        </pitch>
        <duration>144</duration>
        <type>quarter</type>
        <dot />
        <lyric>
          <syllabic>end</syllabic>
          <text>ey</text>
        </lyric>
      </note>
    </measure>
    <measure number="50-0">
      <attributes />
      <note>
        
        <pitch>
          <step>A</step>
          <octave>4</octave>
        </pitch>
        <duration>288</duration>
        <type>half</type>
        <dot />
        <lyric>
          <syllabic>single</syllabic>
          <text>vah  </text>
          <end-line />
        </lyric>
      </note>
      <note>
        
        <rest />
        <duration>96</duration>
        <type>quarter</type>
        <lyric>
          <text />
        </lyric>
      </note>
    </measure>
    <measure number="51-0">
      <attributes />
      <note>
        
        <rest />
        <duration>96</duration>
        <type>quarter</type>
        <lyric name="VOCAL_SECTION">
          <text />
        </lyric>
      </note>
      <note>
        
        <pitch>
          <step>D</step>
          <octave>5</octave>
        </pitch>
        <duration>48</duration>
        <type>eighth</type>
        <lyric>
          <syllabic>begin</syllabic>
          <text>A</text>
        </lyric>
      </note>
      <note>
        
        <pitch>
          <step>E</step>
          <octave>5</octave>
        </pitch>
        <duration>48</duration>
        <type>eighth</type>
        <lyric>
          <syllabic>end</syllabic>
          <text>na </text>
        </lyric>
      </note>
      <note>
        
        <pitch>
          <step>E</step>
          <octave>5</octave>
        </pitch>
        <duration>96</duration>
        <type>quarter</type>
        <lyric>
          <syllabic>single</syllabic>
          <text>ben </text>
        </lyric>
      </note>
      <note>
        
        <pitch>
          <step>E</step>
          <alter>-1</alter>
          <octave>5</octave>
        </pitch>
        <duration>72</duration>
        <type>eighth</type>
        <dot />
        <accidental>flat</accidental>
        <lyric>
          <syllabic>begin</syllabic>
          <text>gi</text>
        </lyric>
      </note>
      <note>
        
        <pitch>
          <step>D</step>
          <octave>5</octave>
        </pitch>
        <duration>24</duration>
        <type>16th</type>
        <lyric>
          <text />
        </lyric>
      </note>
    </measure>
    <measure number="52-0">
      <attributes />
      <note>
        
        <pitch>
          <step>D</step>
          <octave>5</octave>
        </pitch>
        <duration>96</duration>
        <type>quarter</type>
        <lyric>
          <syllabic>end</syllabic>
          <text>di</text>
        </lyric>
      </note>
      <note>
        
        <pitch>
          <step>E</step>
          <alter>-1</alter>
          <octave>5</octave>
        </pitch>
        <duration>48</duration>
        <type>eighth</type>
        <accidental>flat</accidental>
        <lyric>
          <text />
        </lyric>
      </note>
      <note>
        
        <pitch>
          <step>D</step>
          <octave>5</octave>
        </pitch>
        <duration>48</duration>
        <type>eighth</type>
        <lyric>
          <text />
        </lyric>
      </note>
      <note>
        
        <pitch>
          <step>C</step>
          <octave>5</octave>
        </pitch>
        <duration>48</duration>
        <type>eighth</type>
        <lyric>
          <syllabic>single</syllabic>
          <text>yom </text>
        </lyric>
      </note>
      <note>
        
        <pitch>
          <step>B</step>
          <alter>-0.5</alter>
          <octave>4</octave>
        </pitch>
        <duration>48</duration>
        <type>eighth</type>
        <accidental>quarter-flat</accidental>
        <lyric>
          <text />
        </lyric>
      </note>
      <note>
        
        <pitch>
          <step>C</step>
          <octave>5</octave>
        </pitch>
        <duration>96</duration>
        <type>quarter</type>
        <lyric>
          <text />
        </lyric>
      </note>
    </measure>
    <measure number="53-0">
      <attributes />
      <note>
        
        <pitch>
          <step>B</step>
          <alter>-0.5</alter>
          <octave>4</octave>
        </pitch>
        <duration>48</duration>
        <type>eighth</type>
        <accidental>quarter-flat</accidental>
        <lyric>
          <syllabic>begin</syllabic>
          <text>d&#252;&#351;</text>
        </lyric>
      </note>
      <note>
        
        <pitch>
          <step>C</step>
          <octave>5</octave>
        </pitch>
        <duration>48</duration>
        <type>eighth</type>
        <lyric>
          <text />
        </lyric>
      </note>
      <note>
        
        <pitch>
          <step>D</step>
          <octave>5</octave>
        </pitch>
        <duration>96</duration>
        <type>quarter</type>
        <lyric>
          <syllabic>end</syllabic>
          <text>ma</text>
        </lyric>
      </note>
      <note>
        
        <pitch>
          <step>D</step>
          <octave>5</octave>
        </pitch>
        <duration>24</duration>
        <type>16th</type>
        <lyric>
          <syllabic>single</syllabic>
          <text>na </text>
        </lyric>
      </note>
      <note>
        
        <pitch>
          <step>E</step>
          <alter>-1</alter>
          <octave>5</octave>
        </pitch>
        <duration>24</duration>
        <type>16th</type>
        <accidental>flat</accidental>
        <lyric>
          <text />
        </lyric>
      </note>
      <note>
        
        <pitch>
          <step>D</step>
          <octave>5</octave>
        </pitch>
        <duration>24</duration>
        <type>16th</type>
        <lyric>
          <text />
        </lyric>
      </note>
      <note>
        
        <pitch>
          <step>E</step>
          <alter>-1</alter>
          <octave>5</octave>
        </pitch>
        <duration>24</duration>
        <type>16th</type>
        <accidental>flat</accidental>
        <lyric>
          <text />
        </lyric>
      </note>
      <note>
        
        <pitch>
          <step>C</step>
          <octave>5</octave>
        </pitch>
        <duration>48</duration>
        <type>eighth</type>
        <lyric>
          <syllabic>begin</syllabic>
          <text>kar</text>
        </lyric>
      </note>
      <note>
        
        <pitch>
          <step>B</step>
          <alter>-0.5</alter>
          <octave>4</octave>
        </pitch>
        <duration>48</duration>
        <type>eighth</type>
        <accidental>quarter-flat</accidental>
        <lyric>
          <text />
        </lyric>
      </note>
    </measure>
    <measure number="54-0">
      <attributes />
      <note>
        
        <pitch>
          <step>A</step>
          <octave>4</octave>
        </pitch>
        <duration>192</duration>
        <type>half</type>
        <lyric>
          <syllabic>end</syllabic>
          <text>&#351;&#305;  </text>
          <end-line />
        </lyric>
      </note>
      <note>
        
        <pitch>
          <step>B</step>
          <alter>-0.5</alter>
          <octave>4</octave>
        </pitch>
        <duration>48</duration>
        <type>eighth</type>
        <accidental>quarter-flat</accidental>
        <lyric name="VOCAL_SECTION">
          <syllabic>single</syllabic>
          <text>Of </text>
        </lyric>
      </note>
      <note>
        
        <pitch>
          <step>C</step>
          <octave>5</octave>
        </pitch>
        <duration>48</duration>
        <type>eighth</type>
        <lyric>
          <text />
        </lyric>
      </note>
      <note>
        
        <pitch>
          <step>D</step>
          <octave>5</octave>
        </pitch>
        <duration>48</duration>
        <type>eighth</type>
        <lyric>
          <text />
        </lyric>
      </note>
      <note>
        
        <pitch>
          <step>E</step>
          <octave>5</octave>
        </pitch>
        <duration>48</duration>
        <type>eighth</type>
        <lyric>
          <text />
        </lyric>
      </note>
    </measure>
    <measure number="55-0">
      <attributes />
      <note>
        
        <pitch>
          <step>C</step>
          <octave>5</octave>
        </pitch>
        <duration>48</duration>
        <type>eighth</type>
        <lyric>
          <syllabic>begin</syllabic>
          <text>gen&#231;</text>
        </lyric>
      </note>
      <note>
        
        <grace steal-time-previous="10" />
        <pitch>
          <step>D</step>
          <octave>5</octave>
        </pitch>
        <lyric>
          <text />
        </lyric>
      </note>
      <note>
        
        <pitch>
          <step>B</step>
          <alter>-0.5</alter>
          <octave>4</octave>
        </pitch>
        <duration>72</duration>
        <type>eighth</type>
        <dot />
        <accidental>quarter-flat</accidental>
        <lyric>
          <text />
        </lyric>
      </note>
      <note>
        
        <pitch>
          <step>G</step>
          <octave>4</octave>
        </pitch>
        <duration>24</duration>
        <type>16th</type>
        <lyric>
          <text />
        </lyric>
      </note>
      <note>
        
        <pitch>
          <step>A</step>
          <octave>4</octave>
        </pitch>
        <duration>48</duration>
        <type>eighth</type>
        <lyric>
          <syllabic>end</syllabic>
          <text>li</text>
        </lyric>
      </note>
      <note>
        
        <pitch>
          <step>B</step>
          <alter>-0.5</alter>
          <octave>4</octave>
        </pitch>
        <duration>48</duration>
        <type>eighth</type>
        <accidental>quarter-flat</accidental>
        <lyric>
          <syllabic>begin</syllabic>
          <text>&#287;im_</text>
        </lyric>
      </note>
      <note>
        
        <pitch>
          <step>A</step>
          <octave>4</octave>
        </pitch>
        <duration>144</duration>
        <type>quarter</type>
        <dot />
        <lyric>
          <syllabic>end</syllabic>
          <text>ey</text>
        </lyric>
      </note>
    </measure>
    <measure number="56-0">
      <attributes />
      <note>
        
        <pitch>
          <step>A</step>
          <octave>4</octave>
        </pitch>
        <duration>288</duration>
        <type>half</type>
        <dot />
        <lyric>
          <syllabic>single</syllabic>
          <text>vah  </text>
          <end-line />
        </lyric>
      </note>
      <note>
        
        <rest />
        <duration>96</duration>
        <type>quarter</type>
        <lyric>
          <text />
        </lyric>
      </note>
    </measure>
    <measure number="57-0">
      <attributes />
    </measure>
  </part>
</score-partwise>